<?xml version="1.0" encoding="UTF-8"?><svg id="a" xmlns="http://www.w3.org/2000/svg" viewBox="0 0 500 256.1"><defs><style>.b{stroke-miterlimit:2;}.b,.c{fill:#d8c0dd;}.b,.c,.d,.e,.f{stroke:#577281;}.b,.e{stroke-width:.5px;}.g{fill:#fff;}.h{stroke:#cdcbc9;stroke-dasharray:0 0 7 4;stroke-linecap:round;stroke-linejoin:round;stroke-width:.2px;}.h,.f{fill:none;}.c,.d,.e,.f{stroke-miterlimit:10;}.c,.d,.f{stroke-width:.5px;}.d{fill:#582c7c;}.e{fill:#582c7d;}</style></defs><path class="h" d="M18.7,173.3H497.3M18.7,147.6H497.3M18.7,121.9H497.3M18.7,96.2H497.3M18.7,70.4H497.3M18.7,44.7H497.3M18.7,19H497.3"/><line class="f" x1="18.3" y1="199" x2="18.3" y2="19"/><line class="f" x1="18.3" y1="199" x2="496.9" y2="199"/><g><rect class="e" x="224.3" y="246.3" width="7.8" height="7.1"/><g><path d="M239.8,251.3v.6h-3.3c0-.1,0-.3,0-.4,0-.2,.2-.4,.4-.7,.2-.2,.5-.5,.8-.8,.5-.4,.9-.8,1.1-1.1,.2-.3,.3-.5,.3-.7s0-.5-.3-.6c-.2-.2-.4-.3-.7-.3s-.5,0-.7,.3-.3,.4-.3,.7h-.6c0-.5,.2-.9,.5-1.1s.7-.4,1.1-.4,.9,.1,1.1,.4,.4,.6,.4,1,0,.4-.1,.6c0,.2-.2,.4-.4,.6-.2,.2-.5,.5-.9,.9-.4,.3-.6,.5-.7,.6-.1,.1-.2,.2-.3,.3h2.5Z"/><path d="M240.5,249.4c0-.6,0-1.1,.2-1.4,.1-.4,.3-.6,.5-.8,.2-.2,.5-.3,.9-.3s.5,0,.7,.2c.2,.1,.4,.3,.5,.5s.2,.5,.3,.7,.1,.7,.1,1.2,0,1.1-.2,1.4c-.1,.4-.3,.6-.5,.8-.2,.2-.5,.3-.9,.3s-.9-.2-1.1-.5c-.3-.4-.5-1.1-.5-2Zm.6,0c0,.8,0,1.4,.3,1.6,.2,.3,.4,.4,.7,.4s.5-.1,.7-.4c.2-.3,.3-.8,.3-1.6s0-1.4-.3-1.6c-.2-.3-.4-.4-.7-.4s-.5,.1-.7,.4c-.2,.3-.3,.9-.3,1.7Z"/><path d="M244.4,249.4c0-.6,0-1.1,.2-1.4,.1-.4,.3-.6,.5-.8,.2-.2,.5-.3,.9-.3s.5,0,.7,.2c.2,.1,.4,.3,.5,.5s.2,.5,.3,.7,.1,.7,.1,1.2,0,1.1-.2,1.4c-.1,.4-.3,.6-.5,.8-.2,.2-.5,.3-.9,.3s-.9-.2-1.1-.5c-.3-.4-.5-1.1-.5-2Zm.6,0c0,.8,0,1.4,.3,1.6,.2,.3,.4,.4,.7,.4s.5-.1,.7-.4c.2-.3,.3-.8,.3-1.6s0-1.4-.3-1.6c-.2-.3-.4-.4-.7-.4s-.5,.1-.7,.4c-.2,.3-.3,.9-.3,1.7Z"/><path d="M248.3,250.7h.6c0,.2,.1,.4,.3,.5,.1,.1,.3,.2,.5,.2s.4,0,.5-.1c.1,0,.3-.2,.4-.3,0-.1,.2-.3,.2-.6s0-.5,0-.8,0,0,0-.1c-.1,.2-.3,.4-.5,.5-.2,.1-.4,.2-.7,.2-.4,0-.8-.2-1.1-.5s-.4-.7-.4-1.2,.1-.9,.4-1.2c.3-.3,.7-.5,1.1-.5s.6,0,.9,.3c.3,.2,.5,.4,.6,.8,.1,.3,.2,.8,.2,1.4s0,1.1-.2,1.5c-.1,.4-.3,.7-.6,.9-.3,.2-.6,.3-1,.3s-.7-.1-1-.3c-.2-.2-.4-.5-.4-.9Zm2.5-2.2c0-.4,0-.6-.3-.8-.2-.2-.4-.3-.7-.3s-.5,.1-.7,.3c-.2,.2-.3,.5-.3,.9s0,.6,.3,.8c.2,.2,.4,.3,.7,.3s.5,0,.7-.3c.2-.2,.3-.5,.3-.8Z"/></g></g><rect class="b" x="263.3" y="246.3" width="7.8" height="7.1"/><g><path d="M278.9,251.3v.6h-3.3c0-.1,0-.3,0-.4,0-.2,.2-.4,.4-.7s.5-.5,.8-.8c.5-.4,.9-.8,1.1-1.1s.3-.5,.3-.7,0-.4-.3-.6c-.2-.2-.4-.3-.7-.3s-.5,0-.7,.3-.3,.4-.3,.7h-.6c0-.5,.2-.9,.5-1.1,.3-.2,.7-.4,1.1-.4s.9,.1,1.1,.4,.4,.6,.4,1,0,.4-.1,.6c0,.2-.2,.4-.4,.6-.2,.2-.5,.5-.9,.9-.4,.3-.6,.5-.7,.6-.1,.1-.2,.2-.3,.3h2.5Z"/><path d="M279.5,249.4c0-.6,0-1.1,.2-1.4,.1-.4,.3-.6,.5-.8,.2-.2,.5-.3,.9-.3s.5,0,.7,.2c.2,.1,.4,.3,.5,.5,.1,.2,.2,.5,.3,.7,0,.3,.1,.7,.1,1.2s0,1.1-.2,1.4c-.1,.4-.3,.6-.5,.8-.2,.2-.5,.3-.9,.3s-.9-.2-1.1-.5c-.3-.4-.5-1.1-.5-2Zm.6,0c0,.8,0,1.4,.3,1.6s.4,.4,.7,.4,.5-.1,.7-.4c.2-.3,.3-.8,.3-1.6s0-1.4-.3-1.6c-.2-.3-.4-.4-.7-.4s-.5,.1-.7,.4c-.2,.3-.3,.9-.3,1.7Z"/><path d="M286.7,251.3v.6h-3.3c0-.1,0-.3,0-.4,0-.2,.2-.4,.4-.7s.5-.5,.8-.8c.5-.4,.9-.8,1.1-1.1s.3-.5,.3-.7,0-.4-.3-.6c-.2-.2-.4-.3-.7-.3s-.5,0-.7,.3-.3,.4-.3,.7h-.6c0-.5,.2-.9,.5-1.1,.3-.2,.7-.4,1.1-.4s.9,.1,1.1,.4,.4,.6,.4,1,0,.4-.1,.6c0,.2-.2,.4-.4,.6-.2,.2-.5,.5-.9,.9-.4,.3-.6,.5-.7,.6-.1,.1-.2,.2-.3,.3h2.5Z"/><path d="M287.3,249.4c0-.6,0-1.1,.2-1.4,.1-.4,.3-.6,.5-.8,.2-.2,.5-.3,.9-.3s.5,0,.7,.2c.2,.1,.4,.3,.5,.5,.1,.2,.2,.5,.3,.7,0,.3,.1,.7,.1,1.2s0,1.1-.2,1.4c-.1,.4-.3,.6-.5,.8-.2,.2-.5,.3-.9,.3s-.9-.2-1.1-.5c-.3-.4-.5-1.1-.5-2Zm.6,0c0,.8,0,1.4,.3,1.6s.4,.4,.7,.4,.5-.1,.7-.4c.2-.3,.3-.8,.3-1.6s0-1.4-.3-1.6c-.2-.3-.4-.4-.7-.4s-.5,.1-.7,.4c-.2,.3-.3,.9-.3,1.7Z"/></g><g><path d="M36.7,208.5l-1.3-5h.7l.8,3.3c0,.3,.2,.7,.2,1,.1-.5,.2-.8,.2-.9l1-3.4h.8l.7,2.5c.2,.6,.3,1.2,.4,1.8,0-.3,.1-.7,.2-1.1l.8-3.2h.7l-1.4,5h-.6l-1.1-3.8c0-.3-.1-.5-.2-.6,0,.2-.1,.4-.1,.6l-1.1,3.8h-.7Z"/><path d="M42.4,208.5v-5h.6v1.8c.3-.3,.6-.5,1.1-.5s.5,0,.7,.2,.3,.3,.4,.4,.1,.5,.1,.8v2.3h-.6v-2.3c0-.3,0-.5-.2-.7s-.3-.2-.6-.2-.4,0-.5,.1c-.2,0-.3,.2-.3,.4s-.1,.4-.1,.7v2h-.6Z"/><path d="M46.3,204.2v-.7h.6v.7h-.6Zm0,4.3v-3.6h.6v3.6h-.6Z"/><path d="M49.1,207.9v.5c0,0-.2,0-.4,0-.2,0-.4,0-.5-.1s-.2-.2-.3-.3c0-.1,0-.4,0-.7v-2.1h-.5v-.5h.5v-.9l.6-.4v1.3h.6v.5h-.6v2.1c0,.2,0,.3,0,.3,0,0,0,0,.1,.1,0,0,.1,0,.2,0s.2,0,.3,0Z"/><path d="M52.2,207.3h.6c-.1,.5-.3,.7-.6,.9s-.6,.3-1,.3-1-.2-1.3-.5c-.3-.3-.5-.8-.5-1.4s.2-1.1,.5-1.4,.7-.5,1.2-.5,.9,.2,1.2,.5,.5,.8,.5,1.4,0,0,0,.2h-2.7c0,.4,.1,.7,.3,.9s.5,.3,.8,.3,.4,0,.6-.2,.3-.3,.4-.6Zm-2-1h2c0-.3-.1-.5-.2-.7-.2-.2-.5-.4-.8-.4s-.5,0-.7,.3c-.2,.2-.3,.4-.3,.8Z"/></g><g><path d="M90,208.5v-5h1.9c.4,0,.7,0,.9,.2,.2,.1,.4,.3,.5,.5,.1,.2,.2,.4,.2,.7s0,.4-.2,.6-.3,.3-.5,.5c.3,0,.5,.2,.7,.5,.2,.2,.2,.5,.2,.8s0,.5-.1,.7-.2,.4-.4,.5-.3,.2-.5,.2c-.2,0-.5,0-.8,0h-1.9Zm.7-2.9h1.1c.3,0,.5,0,.6,0,.2,0,.3-.1,.4-.2s.1-.3,.1-.4,0-.3-.1-.4-.2-.2-.3-.3c-.1,0-.4,0-.8,0h-1v1.5Zm0,2.3h1.2c.2,0,.4,0,.5,0,.2,0,.3,0,.4-.1s.2-.2,.3-.3c0-.1,0-.3,0-.4s0-.3-.1-.5c0-.1-.2-.2-.4-.3-.2,0-.4,0-.7,0h-1.2v1.7Z"/><path d="M94.6,208.5v-5h.6v5h-.6Z"/><path d="M98.5,208c-.2,.2-.4,.3-.7,.4-.2,0-.4,.1-.7,.1-.4,0-.7,0-.9-.3s-.3-.4-.3-.7,0-.3,.1-.5c0-.1,.2-.3,.3-.4,.1,0,.3-.2,.4-.2,.1,0,.3,0,.5,0,.5,0,.9-.1,1.1-.2,0,0,0-.1,0-.2,0-.3,0-.4-.2-.5-.2-.1-.4-.2-.7-.2s-.5,0-.6,.2c-.1,.1-.2,.3-.3,.5h-.6c0-.3,.1-.5,.3-.7,.1-.2,.3-.3,.5-.4s.5-.1,.8-.1,.6,0,.8,.1,.3,.2,.4,.3c0,.1,.2,.2,.2,.4,0,.1,0,.3,0,.6v.8c0,.6,0,.9,0,1.1,0,.2,0,.3,.2,.4h-.6c0-.1-.1-.3-.1-.4Zm0-1.4c-.2,0-.6,.2-1,.2-.3,0-.4,0-.5,.1s-.2,.1-.2,.2c0,0,0,.2,0,.3,0,.2,0,.3,.2,.4,.1,.1,.3,.2,.5,.2s.4,0,.6-.2c.2-.1,.3-.2,.4-.4,0-.1,0-.3,0-.6v-.2Z"/><path d="M102.4,207.1h.6c0,.5-.2,.8-.5,1.1-.3,.2-.6,.4-1,.4s-.9-.2-1.2-.5c-.3-.3-.5-.8-.5-1.4s0-.7,.2-1,.3-.5,.6-.7c.3-.1,.6-.2,.9-.2s.7,0,1,.3c.3,.2,.4,.5,.5,.8h-.6c0-.2-.2-.3-.3-.5-.1-.1-.3-.2-.5-.2-.3,0-.6,.1-.8,.3s-.3,.6-.3,1.1,0,.8,.3,1.1,.4,.3,.7,.3,.4,0,.6-.2,.3-.4,.3-.7Z"/><path d="M103.6,208.5v-5h.6v2.9l1.5-1.5h.8l-1.4,1.3,1.5,2.3h-.8l-1.2-1.9-.4,.4v1.4h-.6Z"/></g><g><path d="M138,208.5v-5h.7v2.1h2.6v-2.1h.7v5h-.7v-2.4h-2.6v2.4h-.7Z"/><path d="M143,204.2v-.7h.6v.7h-.6Zm0,4.3v-3.6h.6v3.6h-.6Z"/><path d="M144.3,207.4h.6c0,.1,.1,.3,.3,.5,.2,.1,.4,.2,.7,.2s.5,0,.6-.2c.1-.1,.2-.3,.2-.4s0-.2-.2-.3c0,0-.3-.1-.6-.2-.5-.1-.8-.2-.9-.3-.2,0-.3-.2-.4-.3,0-.1-.1-.3-.1-.5s0-.3,.1-.4c0-.1,.2-.3,.3-.3,0,0,.2-.1,.4-.2,.2,0,.3,0,.5,0,.3,0,.5,0,.8,.1s.4,.2,.5,.3,.2,.3,.2,.6h-.6c0-.1-.1-.3-.2-.4-.1-.1-.3-.2-.6-.2s-.5,0-.6,.1-.2,.2-.2,.3,0,.2,0,.2c0,0,.1,.1,.2,.2,0,0,.2,0,.5,.2,.4,.1,.7,.2,.9,.3,.2,0,.3,.2,.4,.3s.1,.3,.1,.5,0,.4-.2,.6-.3,.3-.5,.4c-.2,0-.5,.1-.8,.1-.5,0-.8,0-1.1-.3-.2-.2-.4-.5-.5-.9Z"/><path d="M148,209.9v-5h.6v.5c.1-.2,.3-.3,.4-.4s.4-.1,.6-.1,.6,0,.8,.2,.4,.4,.5,.7,.2,.6,.2,1,0,.7-.2,1-.3,.5-.6,.7c-.3,.2-.5,.2-.8,.2s-.4,0-.6-.1c-.2,0-.3-.2-.4-.3v1.8h-.6Zm.6-3.2c0,.5,0,.8,.3,1s.4,.3,.7,.3,.5-.1,.7-.3c.2-.2,.3-.6,.3-1.1s0-.8-.3-1c-.2-.2-.4-.3-.7-.3s-.5,.1-.7,.4c-.2,.2-.3,.6-.3,1.1Z"/><path d="M154.3,208c-.2,.2-.4,.3-.7,.4-.2,0-.4,.1-.7,.1-.4,0-.7,0-.9-.3s-.3-.4-.3-.7,0-.3,.1-.5c0-.1,.2-.3,.3-.4,.1,0,.3-.2,.4-.2,.1,0,.3,0,.5,0,.5,0,.9-.1,1.1-.2,0,0,0-.1,0-.2,0-.3,0-.4-.2-.5-.2-.1-.4-.2-.7-.2s-.5,0-.6,.2c-.1,.1-.2,.3-.3,.5h-.6c0-.3,.1-.5,.3-.7,.1-.2,.3-.3,.5-.4s.5-.1,.8-.1,.6,0,.8,.1,.3,.2,.4,.3c0,.1,.2,.2,.2,.4,0,.1,0,.3,0,.6v.8c0,.6,0,.9,0,1.1,0,.2,0,.3,.2,.4h-.6c0-.1-.1-.3-.1-.4Zm0-1.4c-.2,0-.6,.2-1,.2-.3,0-.4,0-.5,.1s-.2,.1-.2,.2c0,0,0,.2,0,.3,0,.2,0,.3,.2,.4,.1,.1,.3,.2,.5,.2s.4,0,.6-.2c.2-.1,.3-.2,.4-.4,0-.1,0-.3,0-.6v-.2Z"/><path d="M155.8,208.5v-3.6h.6v.5c.3-.4,.7-.6,1.2-.6s.4,0,.6,.1c.2,0,.3,.2,.4,.3s.2,.3,.2,.5c0,.1,0,.3,0,.6v2.2h-.6v-2.2c0-.3,0-.4,0-.6,0-.1-.1-.2-.3-.3-.1,0-.3-.1-.4-.1-.3,0-.5,0-.7,.2-.2,.2-.3,.5-.3,.9v2h-.6Z"/><path d="M159.7,204.2v-.7h.6v.7h-.6Zm0,4.3v-3.6h.6v3.6h-.6Z"/><path d="M163.6,207.1h.6c0,.5-.2,.8-.5,1.1-.3,.2-.6,.4-1,.4s-.9-.2-1.2-.5c-.3-.3-.5-.8-.5-1.4s0-.7,.2-1,.3-.5,.6-.7c.3-.1,.6-.2,.9-.2s.7,0,1,.3c.3,.2,.4,.5,.5,.8h-.6c0-.2-.2-.3-.3-.5-.1-.1-.3-.2-.5-.2-.3,0-.6,.1-.8,.3s-.3,.6-.3,1.1,0,.8,.3,1.1,.4,.3,.7,.3,.4,0,.6-.2,.3-.4,.3-.7Z"/></g><g><path d="M195.9,208.5l1.9-5h.7l2.1,5h-.8l-.6-1.5h-2.1l-.6,1.5h-.7Zm1.4-2.1h1.7l-.5-1.4c-.2-.4-.3-.8-.4-1,0,.3-.2,.6-.3,1l-.6,1.5Z"/><path d="M200.8,207.4h.6c0,.1,.1,.3,.3,.5,.2,.1,.4,.2,.7,.2s.5,0,.6-.2c.1-.1,.2-.3,.2-.4s0-.2-.2-.3c0,0-.3-.1-.6-.2-.5-.1-.8-.2-.9-.3-.2,0-.3-.2-.4-.3,0-.1-.1-.3-.1-.5s0-.3,.1-.4c0-.1,.2-.3,.3-.3,0,0,.2-.1,.4-.2,.2,0,.3,0,.5,0,.3,0,.5,0,.8,.1s.4,.2,.5,.3,.2,.3,.2,.6h-.6c0-.1-.1-.3-.2-.4-.1-.1-.3-.2-.6-.2s-.5,0-.6,.1-.2,.2-.2,.3,0,.2,0,.2c0,0,.1,.1,.2,.2,0,0,.2,0,.5,.2,.4,.1,.7,.2,.9,.3,.2,0,.3,.2,.4,.3s.1,.3,.1,.5,0,.4-.2,.6-.3,.3-.5,.4c-.2,0-.5,.1-.8,.1-.5,0-.8,0-1.1-.3-.2-.2-.4-.5-.5-.9Z"/><path d="M204.6,204.2v-.7h.6v.7h-.6Zm0,4.3v-3.6h.6v3.6h-.6Z"/><path d="M208.5,208c-.2,.2-.4,.3-.7,.4-.2,0-.4,.1-.7,.1-.4,0-.7,0-.9-.3s-.3-.4-.3-.7,0-.3,.1-.5c0-.1,.2-.3,.3-.4,.1,0,.3-.2,.4-.2,.1,0,.3,0,.5,0,.5,0,.9-.1,1.1-.2,0,0,0-.1,0-.2,0-.3,0-.4-.2-.5-.2-.1-.4-.2-.7-.2s-.5,0-.6,.2c-.1,.1-.2,.3-.3,.5h-.6c0-.3,.1-.5,.3-.7,.1-.2,.3-.3,.5-.4s.5-.1,.8-.1,.6,0,.8,.1,.3,.2,.4,.3c0,.1,.2,.2,.2,.4,0,.1,0,.3,0,.6v.8c0,.6,0,.9,0,1.1,0,.2,0,.3,.2,.4h-.6c0-.1-.1-.3-.1-.4Zm0-1.4c-.2,0-.6,.2-1,.2-.3,0-.4,0-.5,.1s-.2,.1-.2,.2c0,0,0,.2,0,.3,0,.2,0,.3,.2,.4,.1,.1,.3,.2,.5,.2s.4,0,.6-.2c.2-.1,.3-.2,.4-.4,0-.1,0-.3,0-.6v-.2Z"/><path d="M210,208.5v-3.6h.6v.5c.3-.4,.7-.6,1.2-.6s.4,0,.6,.1c.2,0,.3,.2,.4,.3s.2,.3,.2,.5c0,.1,0,.3,0,.6v2.2h-.6v-2.2c0-.3,0-.4,0-.6,0-.1-.1-.2-.3-.3-.1,0-.3-.1-.4-.1-.3,0-.5,0-.7,.2-.2,.2-.3,.5-.3,.9v2h-.6Z"/></g><g><path d="M246.7,208.5v-5h1.9c.3,0,.6,0,.8,0,.2,0,.5,.1,.6,.2,.2,.1,.3,.3,.4,.5,.1,.2,.2,.4,.2,.7,0,.4-.1,.8-.4,1.1-.3,.3-.8,.4-1.5,.4h-1.3v2h-.7Zm.7-2.6h1.3c.4,0,.7,0,.9-.2s.3-.4,.3-.7,0-.4-.2-.5c-.1-.1-.2-.2-.4-.3-.1,0-.3,0-.6,0h-1.3v1.8Z"/><path d="M253.7,208c-.2,.2-.4,.3-.7,.4-.2,0-.4,.1-.7,.1-.4,0-.7,0-.9-.3s-.3-.4-.3-.7,0-.3,.1-.5c0-.1,.2-.3,.3-.4,.1,0,.3-.2,.4-.2,.1,0,.3,0,.5,0,.5,0,.9-.1,1.1-.2,0,0,0-.1,0-.2,0-.3,0-.4-.2-.5-.2-.1-.4-.2-.7-.2s-.5,0-.6,.2c-.1,.1-.2,.3-.3,.5h-.6c0-.3,.1-.5,.3-.7,.1-.2,.3-.3,.5-.4s.5-.1,.8-.1,.6,0,.8,.1,.3,.2,.4,.3c0,.1,.2,.2,.2,.4,0,.1,0,.3,0,.6v.8c0,.6,0,.9,0,1.1,0,.2,0,.3,.2,.4h-.6c0-.1-.1-.3-.1-.4Zm0-1.4c-.2,0-.6,.2-1,.2-.3,0-.4,0-.5,.1s-.2,.1-.2,.2c0,0,0,.2,0,.3,0,.2,0,.3,.2,.4,.1,.1,.3,.2,.5,.2s.4,0,.6-.2c.2-.1,.3-.2,.4-.4,0-.1,0-.3,0-.6v-.2Z"/><path d="M257.6,207.1h.6c0,.5-.2,.8-.5,1.1-.3,.2-.6,.4-1,.4s-.9-.2-1.2-.5c-.3-.3-.5-.8-.5-1.4s0-.7,.2-1,.3-.5,.6-.7c.3-.1,.6-.2,.9-.2s.7,0,1,.3c.3,.2,.4,.5,.5,.8h-.6c0-.2-.2-.3-.3-.5-.1-.1-.3-.2-.5-.2-.3,0-.6,.1-.8,.3s-.3,.6-.3,1.1,0,.8,.3,1.1,.4,.3,.7,.3,.4,0,.6-.2,.3-.4,.3-.7Z"/><path d="M258.7,204.2v-.7h.6v.7h-.6Zm0,4.3v-3.6h.6v3.6h-.6Z"/><path d="M260.4,208.5v-3.2h-.5v-.5h.5v-.4c0-.2,0-.4,0-.5,0-.2,.2-.3,.3-.4s.4-.1,.6-.1,.4,0,.6,0v.5c-.2,0-.3,0-.5,0-.2,0-.3,0-.4,.1,0,0-.1,.2-.1,.4v.3h.7v.5h-.7v3.2h-.6Z"/><path d="M262.2,204.2v-.7h.6v.7h-.6Zm0,4.3v-3.6h.6v3.6h-.6Z"/><path d="M266.1,207.1h.6c0,.5-.2,.8-.5,1.1s-.6,.4-1,.4-.9-.2-1.2-.5-.5-.8-.5-1.4,0-.7,.2-1,.3-.5,.6-.7,.6-.2,.9-.2,.7,0,1,.3c.3,.2,.4,.5,.5,.8h-.6c0-.2-.2-.3-.3-.5s-.3-.2-.5-.2c-.3,0-.6,.1-.8,.3s-.3,.6-.3,1.1,0,.8,.3,1.1c.2,.2,.4,.3,.7,.3s.4,0,.6-.2,.3-.4,.3-.7Z"/><path d="M245.7,216.9v-5h.7v5h-.7Z"/><path d="M247.2,215.8h.6c0,.1,.1,.3,.3,.5,.2,.1,.4,.2,.7,.2s.5,0,.6-.2c.1-.1,.2-.3,.2-.4s0-.2-.2-.3c0,0-.3-.1-.6-.2-.5-.1-.8-.2-.9-.3-.2,0-.3-.2-.4-.3,0-.1-.1-.3-.1-.5s0-.3,.1-.4c0-.1,.2-.3,.3-.3,0,0,.2-.1,.4-.2,.2,0,.3,0,.5,0,.3,0,.5,0,.8,.1s.4,.2,.5,.3,.2,.3,.2,.6h-.6c0-.1-.1-.3-.2-.4-.1-.1-.3-.2-.6-.2s-.5,0-.6,.1-.2,.2-.2,.3,0,.2,0,.2c0,0,.1,.1,.2,.2,0,0,.2,0,.5,.2,.4,.1,.7,.2,.9,.3,.2,0,.3,.2,.4,.3s.1,.3,.1,.5,0,.4-.2,.6-.3,.3-.5,.4c-.2,0-.5,.1-.8,.1-.5,0-.8,0-1.1-.3-.2-.2-.4-.5-.5-.9Z"/><path d="M250.9,216.9v-5h.6v5h-.6Z"/><path d="M254.9,216.4c-.2,.2-.4,.3-.7,.4-.2,0-.4,.1-.7,.1-.4,0-.7,0-.9-.3s-.3-.4-.3-.7,0-.3,.1-.5c0-.1,.2-.3,.3-.4,.1,0,.3-.2,.4-.2,.1,0,.3,0,.5,0,.5,0,.9-.1,1.1-.2,0,0,0-.1,0-.2,0-.3,0-.4-.2-.5-.2-.1-.4-.2-.7-.2s-.5,0-.6,.2c-.1,.1-.2,.3-.3,.5h-.6c0-.3,.1-.5,.3-.7,.1-.2,.3-.3,.5-.4s.5-.1,.8-.1,.6,0,.8,.1,.3,.2,.4,.3c0,.1,.2,.2,.2,.4,0,.1,0,.3,0,.6v.8c0,.6,0,.9,0,1.1,0,.2,0,.3,.2,.4h-.6c0-.1-.1-.3-.1-.4Zm0-1.4c-.2,0-.6,.2-1,.2-.3,0-.4,0-.5,.1s-.2,.1-.2,.2c0,0,0,.2,0,.3,0,.2,0,.3,.2,.4,.1,.1,.3,.2,.5,.2s.4,0,.6-.2c.2-.1,.3-.2,.4-.4,0-.1,0-.3,0-.6v-.2Z"/><path d="M256.4,216.9v-3.6h.6v.5c.3-.4,.7-.6,1.2-.6s.4,0,.6,.1c.2,0,.3,.2,.4,.3s.2,.3,.2,.5c0,.1,0,.3,0,.6v2.2h-.6v-2.2c0-.3,0-.4,0-.6,0-.1-.1-.2-.3-.3-.1,0-.3-.1-.4-.1-.3,0-.5,0-.7,.2-.2,.2-.3,.5-.3,.9v2h-.6Z"/><path d="M262.6,216.9v-.5c-.2,.4-.6,.5-1,.5s-.6,0-.8-.2c-.2-.2-.4-.4-.6-.7-.1-.3-.2-.6-.2-1s0-.7,.2-1c.1-.3,.3-.5,.5-.7s.5-.2,.8-.2,.4,0,.6,.1,.3,.2,.4,.4v-1.8h.6v5h-.6Zm-1.9-1.8c0,.5,0,.8,.3,1,.2,.2,.4,.3,.7,.3s.5-.1,.7-.3c.2-.2,.3-.6,.3-1s0-.9-.3-1.1-.4-.3-.7-.3-.5,.1-.7,.3-.3,.6-.3,1.1Z"/><path d="M266.7,215.7h.6c-.1,.5-.3,.7-.6,.9-.3,.2-.6,.3-1,.3s-1-.2-1.3-.5c-.3-.3-.5-.8-.5-1.4s.2-1.1,.5-1.4,.7-.5,1.2-.5,.9,.2,1.2,.5,.5,.8,.5,1.4,0,0,0,.2h-2.7c0,.4,.1,.7,.3,.9s.5,.3,.8,.3,.4,0,.6-.2c.2-.1,.3-.3,.4-.6Zm-2-1h2c0-.3-.1-.5-.2-.7-.2-.2-.5-.4-.8-.4s-.5,0-.7,.3-.3,.4-.3,.8Z"/><path d="M268.1,216.9v-3.6h.6v.6c.1-.3,.3-.4,.4-.5,.1,0,.3-.1,.4-.1,.2,0,.4,0,.6,.2l-.2,.6c-.2,0-.3-.1-.5-.1s-.3,0-.4,.1c-.1,0-.2,.2-.2,.3,0,.2-.1,.5-.1,.7v1.9h-.6Z"/></g><g><path d="M349.5,208.7l1.9-5h.7l2.1,5h-.8l-.6-1.5h-2.1l-.6,1.5h-.7Zm1.4-2.1h1.7l-.5-1.4c-.2-.4-.3-.8-.4-1,0,.3-.2,.6-.3,1l-.5,1.5Z"/><path d="M354.7,208.7v-3.6h.6v.5c.1-.2,.3-.3,.5-.4,.2-.1,.4-.2,.6-.2s.5,0,.7,.2,.3,.3,.4,.5c.3-.4,.7-.6,1.1-.6s.6,0,.8,.3c.2,.2,.3,.5,.3,.9v2.5h-.6v-2.3c0-.2,0-.4,0-.5,0-.1-.1-.2-.2-.3s-.2,0-.4,0c-.3,0-.5,0-.6,.3-.2,.2-.3,.4-.3,.8v2.1h-.6v-2.4c0-.3,0-.5-.2-.6s-.3-.2-.5-.2-.3,0-.5,.1c-.1,0-.3,.2-.3,.4s0,.4,0,.8v1.9h-.6Z"/><path d="M363,207.5h.6c-.1,.5-.3,.7-.6,.9-.3,.2-.6,.3-1,.3s-1-.2-1.3-.5c-.3-.3-.5-.8-.5-1.4s.2-1.1,.5-1.4,.7-.5,1.2-.5,.9,.2,1.2,.5,.5,.8,.5,1.4,0,0,0,.2h-2.7c0,.4,.1,.7,.3,.9s.5,.3,.8,.3,.4,0,.6-.2c.2-.1,.3-.3,.4-.6Zm-2-1h2c0-.3-.1-.5-.2-.7-.2-.2-.5-.4-.8-.4s-.5,0-.7,.3-.3,.4-.3,.8Z"/><path d="M364.4,208.7v-3.6h.6v.6c.1-.3,.3-.4,.4-.5,.1,0,.3-.1,.4-.1,.2,0,.4,0,.6,.2l-.2,.6c-.2,0-.3-.1-.5-.1s-.3,0-.4,.1c-.1,0-.2,.2-.2,.3,0,.2-.1,.5-.1,.7v1.9h-.6Z"/><path d="M366.7,204.4v-.7h.6v.7h-.6Zm0,4.3v-3.6h.6v3.6h-.6Z"/><path d="M370.7,207.3h.6c0,.5-.2,.8-.5,1.1s-.6,.4-1,.4-.9-.2-1.2-.5-.5-.8-.5-1.4,0-.7,.2-1,.3-.5,.6-.7,.6-.2,.9-.2,.7,0,1,.3c.3,.2,.4,.5,.5,.8h-.6c0-.2-.2-.3-.3-.5s-.3-.2-.5-.2c-.3,0-.6,.1-.8,.3s-.3,.6-.3,1.1,0,.8,.3,1.1c.2,.2,.4,.3,.7,.3s.4,0,.6-.2,.3-.4,.3-.7Z"/><path d="M374.2,208.2c-.2,.2-.4,.3-.7,.4s-.4,.1-.7,.1c-.4,0-.7,0-.9-.3s-.3-.4-.3-.7,0-.3,.1-.5,.2-.3,.3-.4,.3-.2,.4-.2c.1,0,.3,0,.5,0,.5,0,.9-.1,1.1-.2,0,0,0-.1,0-.2,0-.3,0-.4-.2-.5-.2-.1-.4-.2-.7-.2s-.5,0-.6,.2c-.1,.1-.2,.3-.3,.5h-.6c0-.3,.1-.5,.3-.7,.1-.2,.3-.3,.5-.4,.2,0,.5-.1,.8-.1s.6,0,.8,.1c.2,0,.3,.2,.4,.3,0,.1,.2,.2,.2,.4,0,.1,0,.3,0,.6v.8c0,.6,0,.9,0,1.1,0,.2,0,.3,.2,.4h-.6c0-.1-.1-.3-.1-.4Zm0-1.4c-.2,0-.6,.2-1,.2-.3,0-.4,0-.5,.1s-.2,.1-.2,.2c0,0,0,.2,0,.3,0,.2,0,.3,.2,.4s.3,.2,.5,.2,.4,0,.6-.2c.2-.1,.3-.2,.4-.4,0-.1,0-.3,0-.6v-.2Z"/><path d="M375.7,208.7v-3.6h.6v.5c.3-.4,.7-.6,1.2-.6s.4,0,.6,.1,.3,.2,.4,.3,.2,.3,.2,.5c0,.1,0,.3,0,.6v2.2h-.6v-2.2c0-.3,0-.4,0-.6,0-.1-.1-.2-.3-.3-.1,0-.3-.1-.4-.1-.3,0-.5,0-.7,.2s-.3,.5-.3,.9v2h-.6Z"/><path d="M344,216.7v-5h.7v5h-.7Z"/><path d="M345.7,216.7v-3.6h.6v.5c.3-.4,.7-.6,1.2-.6s.4,0,.6,.1,.3,.2,.4,.3,.2,.3,.2,.5c0,.1,0,.3,0,.6v2.2h-.6v-2.2c0-.3,0-.4,0-.6,0-.1-.1-.2-.3-.3-.1,0-.3-.1-.4-.1-.3,0-.5,0-.7,.2s-.3,.5-.3,.9v2h-.6Z"/><path d="M352,216.7v-.5c-.2,.4-.6,.5-1,.5s-.6,0-.8-.2c-.2-.2-.4-.4-.6-.7-.1-.3-.2-.6-.2-1s0-.7,.2-1c.1-.3,.3-.5,.5-.7s.5-.2,.8-.2,.4,0,.6,.1,.3,.2,.4,.4v-1.8h.6v5h-.6Zm-1.9-1.8c0,.5,0,.8,.3,1,.2,.2,.4,.3,.7,.3s.5-.1,.7-.3c.2-.2,.3-.6,.3-1s0-.9-.3-1.1-.4-.3-.7-.3-.5,.1-.7,.3-.3,.6-.3,1.1Z"/><path d="M353.5,212.4v-.7h.6v.7h-.6Zm0,4.3v-3.6h.6v3.6h-.6Z"/><path d="M357.4,216.2c-.2,.2-.4,.3-.7,.4s-.4,.1-.7,.1c-.4,0-.7,0-.9-.3s-.3-.4-.3-.7,0-.3,.1-.5,.2-.3,.3-.4,.3-.2,.4-.2c.1,0,.3,0,.5,0,.5,0,.9-.1,1.1-.2,0,0,0-.1,0-.2,0-.3,0-.4-.2-.5-.2-.1-.4-.2-.7-.2s-.5,0-.6,.2c-.1,.1-.2,.3-.3,.5h-.6c0-.3,.1-.5,.3-.7,.1-.2,.3-.3,.5-.4,.2,0,.5-.1,.8-.1s.6,0,.8,.1c.2,0,.3,.2,.4,.3,0,.1,.2,.2,.2,.4,0,.1,0,.3,0,.6v.8c0,.6,0,.9,0,1.1,0,.2,0,.3,.2,.4h-.6c0-.1-.1-.3-.1-.4Zm0-1.4c-.2,0-.6,.2-1,.2-.3,0-.4,0-.5,.1s-.2,.1-.2,.2c0,0,0,.2,0,.3,0,.2,0,.3,.2,.4s.3,.2,.5,.2,.4,0,.6-.2c.2-.1,.3-.2,.4-.4,0-.1,0-.3,0-.6v-.2Z"/><path d="M359,216.7v-3.6h.6v.5c.3-.4,.7-.6,1.2-.6s.4,0,.6,.1,.3,.2,.4,.3,.2,.3,.2,.5c0,.1,0,.3,0,.6v2.2h-.6v-2.2c0-.3,0-.4,0-.6,0-.1-.1-.2-.3-.3-.1,0-.3-.1-.4-.1-.3,0-.5,0-.7,.2s-.3,.5-.3,.9v2h-.6Z"/><path d="M362.4,216.7l1.5-5.2h.5l-1.4,5.2h-.5Z"/><path d="M364.3,216.7l1.9-5h.7l2.1,5h-.8l-.6-1.5h-2.1l-.6,1.5h-.7Zm1.4-2.1h1.7l-.5-1.4c-.2-.4-.3-.8-.4-1,0,.3-.2,.6-.3,1l-.5,1.5Z"/><path d="M369.5,216.7v-5h.6v5h-.6Z"/><path d="M373.4,216.2c-.2,.2-.4,.3-.7,.4s-.4,.1-.7,.1c-.4,0-.7,0-.9-.3s-.3-.4-.3-.7,0-.3,.1-.5,.2-.3,.3-.4,.3-.2,.4-.2c.1,0,.3,0,.5,0,.5,0,.9-.1,1.1-.2,0,0,0-.1,0-.2,0-.3,0-.4-.2-.5-.2-.1-.4-.2-.7-.2s-.5,0-.6,.2c-.1,.1-.2,.3-.3,.5h-.6c0-.3,.1-.5,.3-.7,.1-.2,.3-.3,.5-.4,.2,0,.5-.1,.8-.1s.6,0,.8,.1c.2,0,.3,.2,.4,.3,0,.1,.2,.2,.2,.4,0,.1,0,.3,0,.6v.8c0,.6,0,.9,0,1.1,0,.2,0,.3,.2,.4h-.6c0-.1-.1-.3-.1-.4Zm0-1.4c-.2,0-.6,.2-1,.2-.3,0-.4,0-.5,.1s-.2,.1-.2,.2c0,0,0,.2,0,.3,0,.2,0,.3,.2,.4s.3,.2,.5,.2,.4,0,.6-.2c.2-.1,.3-.2,.4-.4,0-.1,0-.3,0-.6v-.2Z"/><path d="M374.7,215.6h.6c0,.1,.1,.3,.3,.5s.4,.2,.7,.2,.5,0,.6-.2c.1-.1,.2-.3,.2-.4s0-.2-.2-.3c0,0-.3-.1-.6-.2-.5-.1-.8-.2-.9-.3-.2,0-.3-.2-.4-.3s-.1-.3-.1-.5,0-.3,.1-.4c0-.1,.2-.3,.3-.3,0,0,.2-.1,.4-.2,.2,0,.3,0,.5,0,.3,0,.5,0,.8,.1,.2,0,.4,.2,.5,.3s.2,.3,.2,.6h-.6c0-.1-.1-.3-.2-.4s-.3-.2-.6-.2-.5,0-.6,.1-.2,.2-.2,.3,0,.2,0,.2c0,0,.1,.1,.2,.2,0,0,.2,0,.5,.2,.4,.1,.7,.2,.9,.3,.2,0,.3,.2,.4,.3s.1,.3,.1,.5,0,.4-.2,.6c-.1,.2-.3,.3-.5,.4-.2,0-.5,.1-.8,.1-.5,0-.8,0-1.1-.3s-.4-.5-.5-.9Z"/><path d="M378.4,216.7v-5h.6v2.9l1.5-1.5h.8l-1.4,1.3,1.5,2.3h-.8l-1.2-1.9-.4,.4v1.4h-.6Z"/><path d="M384.3,216.2c-.2,.2-.4,.3-.7,.4s-.4,.1-.7,.1c-.4,0-.7,0-.9-.3s-.3-.4-.3-.7,0-.3,.1-.5,.2-.3,.3-.4,.3-.2,.4-.2c.1,0,.3,0,.5,0,.5,0,.9-.1,1.1-.2,0,0,0-.1,0-.2,0-.3,0-.4-.2-.5-.2-.1-.4-.2-.7-.2s-.5,0-.6,.2c-.1,.1-.2,.3-.3,.5h-.6c0-.3,.1-.5,.3-.7,.1-.2,.3-.3,.5-.4,.2,0,.5-.1,.8-.1s.6,0,.8,.1c.2,0,.3,.2,.4,.3,0,.1,.2,.2,.2,.4,0,.1,0,.3,0,.6v.8c0,.6,0,.9,0,1.1,0,.2,0,.3,.2,.4h-.6c0-.1-.1-.3-.1-.4Zm0-1.4c-.2,0-.6,.2-1,.2-.3,0-.4,0-.5,.1s-.2,.1-.2,.2c0,0,0,.2,0,.3,0,.2,0,.3,.2,.4s.3,.2,.5,.2,.4,0,.6-.2c.2-.1,.3-.2,.4-.4,0-.1,0-.3,0-.6v-.2Z"/><path d="M355,224.7v-5h.7l2.6,3.9v-3.9h.6v5h-.7l-2.6-3.9v3.9h-.6Z"/><path d="M362.3,224.2c-.2,.2-.4,.3-.7,.4s-.4,.1-.7,.1c-.4,0-.7,0-.9-.3s-.3-.4-.3-.7,0-.3,.1-.5,.2-.3,.3-.4,.3-.2,.4-.2c.1,0,.3,0,.5,0,.5,0,.9-.1,1.1-.2,0,0,0-.1,0-.2,0-.3,0-.4-.2-.5-.2-.1-.4-.2-.7-.2s-.5,0-.6,.2c-.1,.1-.2,.3-.3,.5h-.6c0-.3,.1-.5,.3-.7,.1-.2,.3-.3,.5-.4,.2,0,.5-.1,.8-.1s.6,0,.8,.1c.2,0,.3,.2,.4,.3,0,.1,.2,.2,.2,.4,0,.1,0,.3,0,.6v.8c0,.6,0,.9,0,1.1,0,.2,0,.3,.2,.4h-.6c0-.1-.1-.3-.1-.4Zm0-1.4c-.2,0-.6,.2-1,.2-.3,0-.4,0-.5,.1s-.2,.1-.2,.2c0,0,0,.2,0,.3,0,.2,0,.3,.2,.4s.3,.2,.5,.2,.4,0,.6-.2c.2-.1,.3-.2,.4-.4,0-.1,0-.3,0-.6v-.2Z"/><path d="M365.2,224.1v.5c0,0-.2,0-.4,0-.2,0-.4,0-.5-.1s-.2-.2-.3-.3c0-.1,0-.4,0-.7v-2.1h-.5v-.5h.5v-.9l.6-.4v1.3h.6v.5h-.6v2.1c0,.2,0,.3,0,.3s0,0,.1,.1,.1,0,.2,0,.2,0,.3,0Z"/><path d="M365.8,220.4v-.7h.6v.7h-.6Zm0,4.3v-3.6h.6v3.6h-.6Z"/><path d="M368.3,224.7l-1.4-3.6h.6l.8,2.2c0,.2,.2,.5,.2,.7,0-.2,.1-.4,.2-.7l.8-2.2h.6l-1.4,3.6h-.6Z"/><path d="M373.3,223.5h.6c-.1,.5-.3,.7-.6,.9-.3,.2-.6,.3-1,.3s-1-.2-1.3-.5c-.3-.3-.5-.8-.5-1.4s.2-1.1,.5-1.4,.7-.5,1.2-.5,.9,.2,1.2,.5,.5,.8,.5,1.4,0,0,0,.2h-2.7c0,.4,.1,.7,.3,.9s.5,.3,.8,.3,.4,0,.6-.2c.2-.1,.3-.3,.4-.6Zm-2-1h2c0-.3-.1-.5-.2-.7-.2-.2-.5-.4-.8-.4s-.5,0-.7,.3-.3,.4-.3,.8Z"/></g><g><path d="M408.3,209.1v-4.4h-1.7v-.6h4v.6h-1.7v4.4h-.7Z"/><path d="M411.9,209.1l-1.1-3.6h.6l.6,2.1,.2,.8s0-.3,.2-.7l.6-2.1h.6l.5,2.1,.2,.7,.2-.7,.6-2.1h.6l-1.1,3.6h-.6l-.6-2.2v-.6l-.9,2.8h-.6Z"/><path d="M416,207.2c0-.7,.2-1.2,.6-1.5,.3-.3,.7-.4,1.1-.4s.9,.2,1.2,.5c.3,.3,.5,.8,.5,1.4s0,.8-.2,1.1c-.1,.3-.3,.5-.6,.6s-.6,.2-.9,.2c-.5,0-.9-.2-1.2-.5s-.5-.8-.5-1.4Zm.6,0c0,.5,.1,.8,.3,1,.2,.2,.5,.3,.8,.3s.6-.1,.8-.3c.2-.2,.3-.6,.3-1.1s-.1-.8-.3-1c-.2-.2-.5-.3-.8-.3s-.6,.1-.8,.3-.3,.6-.3,1Z"/><path d="M421.9,207.2c0-.7,.2-1.2,.6-1.5,.3-.3,.7-.4,1.1-.4s.9,.2,1.2,.5c.3,.3,.5,.8,.5,1.4s0,.8-.2,1.1c-.1,.3-.3,.5-.6,.6s-.6,.2-.9,.2c-.5,0-.9-.2-1.2-.5s-.5-.8-.5-1.4Zm.6,0c0,.5,.1,.8,.3,1,.2,.2,.5,.3,.8,.3s.6-.1,.8-.3c.2-.2,.3-.6,.3-1.1s-.1-.8-.3-1c-.2-.2-.5-.3-.8-.3s-.6,.1-.8,.3-.3,.6-.3,1Z"/><path d="M426,209.1v-3.6h.6v.6c.1-.3,.3-.4,.4-.5,.1,0,.3-.1,.4-.1,.2,0,.4,0,.6,.2l-.2,.6c-.2,0-.3-.1-.5-.1s-.3,0-.4,.1c-.1,0-.2,.2-.2,.3,0,.2-.1,.5-.1,.7v1.9h-.6Z"/><path d="M399.1,217.1v-3.6h.6v.5c.1-.2,.3-.3,.5-.4,.2-.1,.4-.2,.6-.2s.5,0,.7,.2,.3,.3,.4,.5c.3-.4,.7-.6,1.1-.6s.6,0,.8,.3c.2,.2,.3,.5,.3,.9v2.5h-.6v-2.3c0-.2,0-.4,0-.5,0-.1-.1-.2-.2-.3s-.2,0-.4,0c-.3,0-.5,0-.6,.3-.2,.2-.3,.4-.3,.8v2.1h-.6v-2.4c0-.3,0-.5-.2-.6s-.3-.2-.5-.2-.3,0-.5,.1c-.1,0-.3,.2-.3,.4s0,.4,0,.8v1.9h-.6Z"/><path d="M404.7,215.2c0-.7,.2-1.2,.6-1.5,.3-.3,.7-.4,1.1-.4s.9,.2,1.2,.5c.3,.3,.5,.8,.5,1.4s0,.8-.2,1.1c-.1,.3-.3,.5-.6,.6s-.6,.2-.9,.2c-.5,0-.9-.2-1.2-.5s-.5-.8-.5-1.4Zm.6,0c0,.5,.1,.8,.3,1,.2,.2,.5,.3,.8,.3s.6-.1,.8-.3c.2-.2,.3-.6,.3-1.1s-.1-.8-.3-1c-.2-.2-.5-.3-.8-.3s-.6,.1-.8,.3-.3,.6-.3,1Z"/><path d="M408.9,217.1v-3.6h.6v.6c.1-.3,.3-.4,.4-.5,.1,0,.3-.1,.4-.1,.2,0,.4,0,.6,.2l-.2,.6c-.2,0-.3-.1-.5-.1s-.3,0-.4,.1c-.1,0-.2,.2-.2,.3,0,.2-.1,.5-.1,.7v1.9h-.6Z"/><path d="M413.7,215.9h.6c-.1,.5-.3,.7-.6,.9-.3,.2-.6,.3-1,.3s-1-.2-1.3-.5c-.3-.3-.5-.8-.5-1.4s.2-1.1,.5-1.4,.7-.5,1.2-.5,.9,.2,1.2,.5,.5,.8,.5,1.4,0,0,0,.2h-2.7c0,.4,.1,.7,.3,.9s.5,.3,.8,.3,.4,0,.6-.2c.2-.1,.3-.3,.4-.6Zm-2-1h2c0-.3-.1-.5-.2-.7-.2-.2-.5-.4-.8-.4s-.5,0-.7,.3-.3,.4-.3,.8Z"/><path d="M417,217.1v-3.6h.6v.6c.1-.3,.3-.4,.4-.5,.1,0,.3-.1,.4-.1,.2,0,.4,0,.6,.2l-.2,.6c-.2,0-.3-.1-.5-.1s-.3,0-.4,.1c-.1,0-.2,.2-.2,.3,0,.2-.1,.5-.1,.7v1.9h-.6Z"/><path d="M421.7,216.6c-.2,.2-.4,.3-.7,.4s-.4,.1-.7,.1c-.4,0-.7,0-.9-.3s-.3-.4-.3-.7,0-.3,.1-.5,.2-.3,.3-.4,.3-.2,.4-.2c.1,0,.3,0,.5,0,.5,0,.9-.1,1.1-.2,0,0,0-.1,0-.2,0-.3,0-.4-.2-.5-.2-.1-.4-.2-.7-.2s-.5,0-.6,.2c-.1,.1-.2,.3-.3,.5h-.6c0-.3,.1-.5,.3-.7,.1-.2,.3-.3,.5-.4,.2,0,.5-.1,.8-.1s.6,0,.8,.1c.2,0,.3,.2,.4,.3,0,.1,.2,.2,.2,.4,0,.1,0,.3,0,.6v.8c0,.6,0,.9,0,1.1,0,.2,0,.3,.2,.4h-.6c0-.1-.1-.3-.1-.4Zm0-1.4c-.2,0-.6,.2-1,.2-.3,0-.4,0-.5,.1s-.2,.1-.2,.2c0,0,0,.2,0,.3,0,.2,0,.3,.2,.4s.3,.2,.5,.2,.4,0,.6-.2c.2-.1,.3-.2,.4-.4,0-.1,0-.3,0-.6v-.2Z"/><path d="M425.6,215.7h.6c0,.5-.2,.8-.5,1.1s-.6,.4-1,.4-.9-.2-1.2-.5-.5-.8-.5-1.4,0-.7,.2-1,.3-.5,.6-.7,.6-.2,.9-.2,.7,0,1,.3c.3,.2,.4,.5,.5,.8h-.6c0-.2-.2-.3-.3-.5s-.3-.2-.5-.2c-.3,0-.6,.1-.8,.3s-.3,.6-.3,1.1,0,.8,.3,1.1c.2,.2,.4,.3,.7,.3s.4,0,.6-.2,.3-.4,.3-.7Z"/><path d="M429.2,215.9h.6c-.1,.5-.3,.7-.6,.9-.3,.2-.6,.3-1,.3s-1-.2-1.3-.5c-.3-.3-.5-.8-.5-1.4s.2-1.1,.5-1.4,.7-.5,1.2-.5,.9,.2,1.2,.5,.5,.8,.5,1.4,0,0,0,.2h-2.7c0,.4,.1,.7,.3,.9s.5,.3,.8,.3,.4,0,.6-.2c.2-.1,.3-.3,.4-.6Zm-2-1h2c0-.3-.1-.5-.2-.7-.2-.2-.5-.4-.8-.4s-.5,0-.7,.3-.3,.4-.3,.8Z"/><path d="M430.4,216h.6c0,.1,.1,.3,.3,.5s.4,.2,.7,.2,.5,0,.6-.2c.1-.1,.2-.3,.2-.4s0-.2-.2-.3c0,0-.3-.1-.6-.2-.5-.1-.8-.2-.9-.3-.2,0-.3-.2-.4-.3s-.1-.3-.1-.5,0-.3,.1-.4c0-.1,.2-.3,.3-.3,0,0,.2-.1,.4-.2,.2,0,.3,0,.5,0,.3,0,.5,0,.8,.1,.2,0,.4,.2,.5,.3s.2,.3,.2,.6h-.6c0-.1-.1-.3-.2-.4s-.3-.2-.6-.2-.5,0-.6,.1-.2,.2-.2,.3,0,.2,0,.2c0,0,.1,.1,.2,.2,0,0,.2,0,.5,.2,.4,.1,.7,.2,.9,.3,.2,0,.3,.2,.4,.3s.1,.3,.1,.5,0,.4-.2,.6c-.1,.2-.3,.3-.5,.4-.2,0-.5,.1-.8,.1-.5,0-.8,0-1.1-.3s-.4-.5-.5-.9Z"/></g><g><path d="M452.6,209.1v-5h.7l2.6,3.9v-3.9h.6v5h-.7l-2.6-3.9v3.9h-.6Z"/><path d="M457.4,207.2c0-.7,.2-1.2,.6-1.5,.3-.3,.7-.4,1.1-.4s.9,.2,1.2,.5c.3,.3,.5,.8,.5,1.4s0,.8-.2,1.1c-.1,.3-.3,.5-.6,.6s-.6,.2-.9,.2c-.5,0-.9-.2-1.2-.5s-.5-.8-.5-1.4Zm.6,0c0,.5,.1,.8,.3,1,.2,.2,.5,.3,.8,.3s.6-.1,.8-.3c.2-.2,.3-.6,.3-1.1s-.1-.8-.3-1c-.2-.2-.5-.3-.8-.3s-.6,.1-.8,.3-.3,.6-.3,1Z"/><path d="M461.5,209.1v-3.6h.6v.5c.3-.4,.7-.6,1.2-.6s.4,0,.6,.1,.3,.2,.4,.3,.2,.3,.2,.5c0,.1,0,.3,0,.6v2.2h-.6v-2.2c0-.3,0-.4,0-.6,0-.1-.1-.2-.3-.3-.1,0-.3-.1-.4-.1-.3,0-.5,0-.7,.2s-.3,.5-.3,.9v2h-.6Z"/><path d="M465.4,209.1v-3.6h.6v.6c.1-.3,.3-.4,.4-.5,.1,0,.3-.1,.4-.1,.2,0,.4,0,.6,.2l-.2,.6c-.2,0-.3-.1-.5-.1s-.3,0-.4,.1c-.1,0-.2,.2-.2,.3,0,.2-.1,.5-.1,.7v1.9h-.6Z"/><path d="M470.2,207.9h.6c-.1,.5-.3,.7-.6,.9-.3,.2-.6,.3-1,.3s-1-.2-1.3-.5c-.3-.3-.5-.8-.5-1.4s.2-1.1,.5-1.4,.7-.5,1.2-.5,.9,.2,1.2,.5,.5,.8,.5,1.4,0,0,0,.2h-2.7c0,.4,.1,.7,.3,.9s.5,.3,.8,.3,.4,0,.6-.2c.2-.1,.3-.3,.4-.6Zm-2-1h2c0-.3-.1-.5-.2-.7-.2-.2-.5-.4-.8-.4s-.5,0-.7,.3-.3,.4-.3,.8Z"/><path d="M471.4,208h.6c0,.1,.1,.3,.3,.5s.4,.2,.7,.2,.5,0,.6-.2c.1-.1,.2-.3,.2-.4s0-.2-.2-.3c0,0-.3-.1-.6-.2-.5-.1-.8-.2-.9-.3-.2,0-.3-.2-.4-.3s-.1-.3-.1-.5,0-.3,.1-.4c0-.1,.2-.3,.3-.3,0,0,.2-.1,.4-.2,.2,0,.3,0,.5,0,.3,0,.5,0,.8,.1,.2,0,.4,.2,.5,.3s.2,.3,.2,.6h-.6c0-.1-.1-.3-.2-.4s-.3-.2-.6-.2-.5,0-.6,.1-.2,.2-.2,.3,0,.2,0,.2c0,0,.1,.1,.2,.2,0,0,.2,0,.5,.2,.4,.1,.7,.2,.9,.3,.2,0,.3,.2,.4,.3s.1,.3,.1,.5,0,.4-.2,.6c-.1,.2-.3,.3-.5,.4-.2,0-.5,.1-.8,.1-.5,0-.8,0-1.1-.3s-.4-.5-.5-.9Z"/><path d="M475.1,204.8v-.7h.6v.7h-.6Zm0,4.3v-3.6h.6v3.6h-.6Z"/><path d="M479,209.1v-.5c-.2,.4-.6,.5-1,.5s-.6,0-.8-.2c-.2-.2-.4-.4-.6-.7-.1-.3-.2-.6-.2-1s0-.7,.2-1c.1-.3,.3-.5,.5-.7s.5-.2,.8-.2,.4,0,.6,.1,.3,.2,.4,.4v-1.8h.6v5h-.6Zm-1.9-1.8c0,.5,0,.8,.3,1,.2,.2,.4,.3,.7,.3s.5-.1,.7-.3c.2-.2,.3-.6,.3-1s0-.9-.3-1.1-.4-.3-.7-.3-.5,.1-.7,.3-.3,.6-.3,1.1Z"/><path d="M483.1,207.9h.6c-.1,.5-.3,.7-.6,.9-.3,.2-.6,.3-1,.3s-1-.2-1.3-.5c-.3-.3-.5-.8-.5-1.4s.2-1.1,.5-1.4,.7-.5,1.2-.5,.9,.2,1.2,.5,.5,.8,.5,1.4,0,0,0,.2h-2.7c0,.4,.1,.7,.3,.9s.5,.3,.8,.3,.4,0,.6-.2c.2-.1,.3-.3,.4-.6Zm-2-1h2c0-.3-.1-.5-.2-.7-.2-.2-.5-.4-.8-.4s-.5,0-.7,.3-.3,.4-.3,.8Z"/><path d="M484.5,209.1v-3.6h.6v.5c.3-.4,.7-.6,1.2-.6s.4,0,.6,.1,.3,.2,.4,.3,.2,.3,.2,.5c0,.1,0,.3,0,.6v2.2h-.6v-2.2c0-.3,0-.4,0-.6,0-.1-.1-.2-.3-.3-.1,0-.3-.1-.4-.1-.3,0-.5,0-.7,.2s-.3,.5-.3,.9v2h-.6Z"/><path d="M489.7,208.5v.5c0,0-.2,0-.4,0-.2,0-.4,0-.5-.1s-.2-.2-.3-.3c0-.1,0-.4,0-.7v-2.1h-.5v-.5h.5v-.9l.6-.4v1.3h.6v.5h-.6v2.1c0,.2,0,.3,0,.3s0,0,.1,.1,.1,0,.2,0,.2,0,.3,0Z"/><path d="M466.4,216.6c-.2,.2-.4,.3-.7,.4s-.4,.1-.7,.1c-.4,0-.7,0-.9-.3s-.3-.4-.3-.7,0-.3,.1-.5,.2-.3,.3-.4,.3-.2,.4-.2c.1,0,.3,0,.5,0,.5,0,.9-.1,1.1-.2,0,0,0-.1,0-.2,0-.3,0-.4-.2-.5-.2-.1-.4-.2-.7-.2s-.5,0-.6,.2c-.1,.1-.2,.3-.3,.5h-.6c0-.3,.1-.5,.3-.7,.1-.2,.3-.3,.5-.4,.2,0,.5-.1,.8-.1s.6,0,.8,.1c.2,0,.3,.2,.4,.3,0,.1,.2,.2,.2,.4,0,.1,0,.3,0,.6v.8c0,.6,0,.9,0,1.1,0,.2,0,.3,.2,.4h-.6c0-.1-.1-.3-.1-.4Zm0-1.4c-.2,0-.6,.2-1,.2-.3,0-.4,0-.5,.1s-.2,.1-.2,.2c0,0,0,.2,0,.3,0,.2,0,.3,.2,.4s.3,.2,.5,.2,.4,0,.6-.2c.2-.1,.3-.2,.4-.4,0-.1,0-.3,0-.6v-.2Z"/><path d="M467.9,217.1v-5h.6v5h-.6Z"/><path d="M469.5,212.8v-.7h.6v.7h-.6Zm0,4.3v-3.6h.6v3.6h-.6Z"/><path d="M473.5,215.9h.6c-.1,.5-.3,.7-.6,.9-.3,.2-.6,.3-1,.3s-1-.2-1.3-.5c-.3-.3-.5-.8-.5-1.4s.2-1.1,.5-1.4,.7-.5,1.2-.5,.9,.2,1.2,.5,.5,.8,.5,1.4,0,0,0,.2h-2.7c0,.4,.1,.7,.3,.9s.5,.3,.8,.3,.4,0,.6-.2c.2-.1,.3-.3,.4-.6Zm-2-1h2c0-.3-.1-.5-.2-.7-.2-.2-.5-.4-.8-.4s-.5,0-.7,.3-.3,.4-.3,.8Z"/><path d="M474.9,217.1v-3.6h.6v.5c.3-.4,.7-.6,1.2-.6s.4,0,.6,.1,.3,.2,.4,.3,.2,.3,.2,.5c0,.1,0,.3,0,.6v2.2h-.6v-2.2c0-.3,0-.4,0-.6,0-.1-.1-.2-.3-.3-.1,0-.3-.1-.4-.1-.3,0-.5,0-.7,.2s-.3,.5-.3,.9v2h-.6Z"/></g><g><path d="M6.2,198.2c0-.6,0-1.1,.2-1.4,.1-.4,.3-.6,.5-.8,.2-.2,.5-.3,.9-.3s.5,0,.7,.2c.2,.1,.4,.3,.5,.5,.1,.2,.2,.5,.3,.7,0,.3,.1,.7,.1,1.2s0,1.1-.2,1.4c-.1,.4-.3,.6-.5,.8-.2,.2-.5,.3-.9,.3s-.9-.2-1.1-.5c-.3-.4-.5-1.1-.5-2Zm.6,0c0,.8,0,1.4,.3,1.6,.2,.3,.4,.4,.7,.4s.5-.1,.7-.4c.2-.3,.3-.8,.3-1.6s0-1.4-.3-1.6c-.2-.3-.4-.4-.7-.4s-.5,.1-.7,.4c-.2,.3-.3,.9-.3,1.7Z"/><path d="M10.5,200.7v-.7h.7v.7h-.7Z"/><path d="M12.1,198.2c0-.6,0-1.1,.2-1.4,.1-.4,.3-.6,.5-.8,.2-.2,.5-.3,.9-.3s.5,0,.7,.2c.2,.1,.4,.3,.5,.5,.1,.2,.2,.5,.3,.7,0,.3,.1,.7,.1,1.2s0,1.1-.2,1.4c-.1,.4-.3,.6-.5,.8-.2,.2-.5,.3-.9,.3s-.9-.2-1.1-.5c-.3-.4-.5-1.1-.5-2Zm.6,0c0,.8,0,1.4,.3,1.6,.2,.3,.4,.4,.7,.4s.5-.1,.7-.4c.2-.3,.3-.8,.3-1.6s0-1.4-.3-1.6c-.2-.3-.4-.4-.7-.4s-.5,.1-.7,.4c-.2,.3-.3,.9-.3,1.7Z"/></g><g><path d="M9.4,174.1v.6h-3.3c0-.1,0-.3,0-.4,0-.2,.2-.4,.4-.7,.2-.2,.5-.5,.8-.8,.5-.4,.9-.8,1.1-1.1,.2-.3,.3-.5,.3-.7s0-.4-.3-.6-.4-.3-.7-.3-.5,0-.7,.3-.3,.4-.3,.7h-.6c0-.5,.2-.9,.5-1.1,.3-.2,.7-.4,1.1-.4s.9,.1,1.1,.4,.4,.6,.4,1,0,.4-.1,.6-.2,.4-.4,.6c-.2,.2-.5,.5-.9,.9-.4,.3-.6,.5-.7,.6-.1,.1-.2,.2-.3,.3h2.5Z"/><path d="M10.5,174.7v-.7h.7v.7h-.7Z"/><path d="M12.1,172.2c0-.6,0-1.1,.2-1.4,.1-.4,.3-.6,.5-.8,.2-.2,.5-.3,.9-.3s.5,0,.7,.2c.2,.1,.4,.3,.5,.5,.1,.2,.2,.5,.3,.7,0,.3,.1,.7,.1,1.2s0,1.1-.2,1.4c-.1,.4-.3,.6-.5,.8-.2,.2-.5,.3-.9,.3s-.9-.2-1.1-.5c-.3-.4-.5-1.1-.5-2Zm.6,0c0,.8,0,1.4,.3,1.6,.2,.3,.4,.4,.7,.4s.5-.1,.7-.4c.2-.3,.3-.8,.3-1.6s0-1.4-.3-1.6c-.2-.3-.4-.4-.7-.4s-.5,.1-.7,.4c-.2,.3-.3,.9-.3,1.7Z"/></g><g><path d="M8.2,149.7v-1.2h-2.2v-.6l2.3-3.2h.5v3.2h.7v.6h-.7v1.2h-.6Zm0-1.8v-2.3l-1.6,2.3h1.6Z"/><path d="M10.5,149.7v-.7h.7v.7h-.7Z"/><path d="M12.1,147.2c0-.6,0-1.1,.2-1.4,.1-.4,.3-.6,.5-.8,.2-.2,.5-.3,.9-.3s.5,0,.7,.2c.2,.1,.4,.3,.5,.5,.1,.2,.2,.5,.3,.7,0,.3,.1,.7,.1,1.2s0,1.1-.2,1.4c-.1,.4-.3,.6-.5,.8-.2,.2-.5,.3-.9,.3s-.9-.2-1.1-.5c-.3-.4-.5-1.1-.5-2Zm.6,0c0,.8,0,1.4,.3,1.6,.2,.3,.4,.4,.7,.4s.5-.1,.7-.4c.2-.3,.3-.8,.3-1.6s0-1.4-.3-1.6c-.2-.3-.4-.4-.7-.4s-.5,.1-.7,.4c-.2,.3-.3,.9-.3,1.7Z"/></g><g><path d="M9.4,119.9h-.6c0-.2-.1-.4-.2-.5-.2-.2-.4-.3-.6-.3s-.4,0-.5,.2c-.2,.1-.3,.3-.5,.6s-.2,.7-.2,1.2c.1-.2,.3-.4,.5-.5s.4-.2,.7-.2c.4,0,.8,.2,1,.5,.3,.3,.4,.7,.4,1.2s0,.6-.2,.9c-.1,.3-.3,.5-.6,.6s-.5,.2-.8,.2c-.5,0-.9-.2-1.3-.6-.3-.4-.5-1-.5-1.9s.2-1.7,.5-2.1c.3-.4,.7-.6,1.3-.6s.7,.1,1,.3c.3,.2,.4,.5,.5,.9Zm-2.5,2.2c0,.2,0,.4,.1,.6,0,.2,.2,.3,.4,.4,.2,.1,.3,.2,.5,.2,.3,0,.5-.1,.7-.3s.3-.5,.3-.9,0-.6-.3-.8c-.2-.2-.4-.3-.7-.3s-.5,0-.7,.3c-.2,.2-.3,.5-.3,.8Z"/><path d="M10.5,123.7v-.7h.7v.7h-.7Z"/><path d="M12.1,121.2c0-.6,0-1.1,.2-1.4,.1-.4,.3-.6,.5-.8,.2-.2,.5-.3,.9-.3s.5,0,.7,.2c.2,.1,.4,.3,.5,.5,.1,.2,.2,.5,.3,.7,0,.3,.1,.7,.1,1.2s0,1.1-.2,1.4c-.1,.4-.3,.6-.5,.8-.2,.2-.5,.3-.9,.3s-.9-.2-1.1-.5c-.3-.4-.5-1.1-.5-2Zm.6,0c0,.8,0,1.4,.3,1.6,.2,.3,.4,.4,.7,.4s.5-.1,.7-.4c.2-.3,.3-.8,.3-1.6s0-1.4-.3-1.6c-.2-.3-.4-.4-.7-.4s-.5,.1-.7,.4c-.2,.3-.3,.9-.3,1.7Z"/></g><g><path d="M7.2,95c-.3,0-.4-.2-.6-.4s-.2-.4-.2-.6c0-.4,.1-.7,.4-.9s.6-.4,1-.4,.8,.1,1.1,.4c.3,.3,.4,.6,.4,.9s0,.4-.2,.6c-.1,.2-.3,.3-.6,.4,.3,.1,.5,.3,.7,.5s.2,.5,.2,.8-.2,.8-.5,1.1-.7,.4-1.2,.4-.9-.1-1.2-.4c-.3-.3-.5-.7-.5-1.1s0-.6,.2-.8c.2-.2,.4-.4,.7-.4Zm-.3,1.3c0,.2,0,.3,.1,.5,0,.2,.2,.3,.4,.4,.2,0,.3,.1,.5,.1,.3,0,.5,0,.7-.3s.3-.4,.3-.7,0-.5-.3-.7c-.2-.2-.4-.3-.7-.3s-.5,0-.7,.3c-.2,.2-.3,.4-.3,.7Zm.2-2.3c0,.2,0,.4,.2,.6s.4,.2,.6,.2,.4,0,.6-.2c.2-.1,.2-.3,.2-.5s0-.4-.2-.6c-.2-.2-.4-.2-.6-.2s-.4,0-.6,.2-.2,.3-.2,.5Z"/><path d="M10.5,97.7v-.7h.7v.7h-.7Z"/><path d="M12.1,95.2c0-.6,0-1.1,.2-1.4,.1-.4,.3-.6,.5-.8,.2-.2,.5-.3,.9-.3s.5,0,.7,.2c.2,.1,.4,.3,.5,.5,.1,.2,.2,.5,.3,.7,0,.3,.1,.7,.1,1.2s0,1.1-.2,1.4c-.1,.4-.3,.6-.5,.8-.2,.2-.5,.3-.9,.3s-.9-.2-1.1-.5c-.3-.4-.5-1.1-.5-2Zm.6,0c0,.8,0,1.4,.3,1.6,.2,.3,.4,.4,.7,.4s.5-.1,.7-.4c.2-.3,.3-.8,.3-1.6s0-1.4-.3-1.6c-.2-.3-.4-.4-.7-.4s-.5,.1-.7,.4c-.2,.3-.3,.9-.3,1.7Z"/></g><g><path d="M4.6,71.7h-.6v-3.9c-.1,.1-.3,.3-.6,.4-.2,.1-.5,.2-.6,.3v-.6c.3-.2,.6-.4,.9-.6s.4-.5,.5-.7h.4v5Z"/><path d="M6.2,69.2c0-.6,0-1.1,.2-1.4,.1-.4,.3-.6,.5-.8,.2-.2,.5-.3,.9-.3s.5,0,.7,.2c.2,.1,.4,.3,.5,.5,.1,.2,.2,.5,.3,.7,0,.3,.1,.7,.1,1.2s0,1.1-.2,1.4c-.1,.4-.3,.6-.5,.8-.2,.2-.5,.3-.9,.3s-.9-.2-1.1-.5c-.3-.4-.5-1.1-.5-2Zm.6,0c0,.8,0,1.4,.3,1.6,.2,.3,.4,.4,.7,.4s.5-.1,.7-.4c.2-.3,.3-.8,.3-1.6s0-1.4-.3-1.6c-.2-.3-.4-.4-.7-.4s-.5,.1-.7,.4c-.2,.3-.3,.9-.3,1.7Z"/><path d="M10.5,71.7v-.7h.7v.7h-.7Z"/><path d="M12.1,69.2c0-.6,0-1.1,.2-1.4,.1-.4,.3-.6,.5-.8,.2-.2,.5-.3,.9-.3s.5,0,.7,.2c.2,.1,.4,.3,.5,.5,.1,.2,.2,.5,.3,.7,0,.3,.1,.7,.1,1.2s0,1.1-.2,1.4c-.1,.4-.3,.6-.5,.8-.2,.2-.5,.3-.9,.3s-.9-.2-1.1-.5c-.3-.4-.5-1.1-.5-2Zm.6,0c0,.8,0,1.4,.3,1.6,.2,.3,.4,.4,.7,.4s.5-.1,.7-.4c.2-.3,.3-.8,.3-1.6s0-1.4-.3-1.6c-.2-.3-.4-.4-.7-.4s-.5,.1-.7,.4c-.2,.3-.3,.9-.3,1.7Z"/></g><g><path d="M4.6,46.7h-.6v-3.9c-.1,.1-.3,.3-.6,.4-.2,.1-.5,.2-.6,.3v-.6c.3-.2,.6-.4,.9-.6s.4-.5,.5-.7h.4v5Z"/><path d="M9.4,46.1v.6h-3.3c0-.1,0-.3,0-.4,0-.2,.2-.4,.4-.7,.2-.2,.5-.5,.8-.8,.5-.4,.9-.8,1.1-1.1,.2-.3,.3-.5,.3-.7s0-.4-.3-.6-.4-.3-.7-.3-.5,0-.7,.3-.3,.4-.3,.7h-.6c0-.5,.2-.9,.5-1.1,.3-.2,.7-.4,1.1-.4s.9,.1,1.1,.4,.4,.6,.4,1,0,.4-.1,.6-.2,.4-.4,.6c-.2,.2-.5,.5-.9,.9-.4,.3-.6,.5-.7,.6-.1,.1-.2,.2-.3,.3h2.5Z"/><path d="M10.5,46.7v-.7h.7v.7h-.7Z"/><path d="M12.1,44.2c0-.6,0-1.1,.2-1.4,.1-.4,.3-.6,.5-.8,.2-.2,.5-.3,.9-.3s.5,0,.7,.2c.2,.1,.4,.3,.5,.5,.1,.2,.2,.5,.3,.7,0,.3,.1,.7,.1,1.2s0,1.1-.2,1.4c-.1,.4-.3,.6-.5,.8-.2,.2-.5,.3-.9,.3s-.9-.2-1.1-.5c-.3-.4-.5-1.1-.5-2Zm.6,0c0,.8,0,1.4,.3,1.6,.2,.3,.4,.4,.7,.4s.5-.1,.7-.4c.2-.3,.3-.8,.3-1.6s0-1.4-.3-1.6c-.2-.3-.4-.4-.7-.4s-.5,.1-.7,.4c-.2,.3-.3,.9-.3,1.7Z"/></g><g><path d="M4.6,20.7h-.6v-3.9c-.1,.1-.3,.3-.6,.4-.2,.1-.5,.2-.6,.3v-.6c.3-.2,.6-.4,.9-.6s.4-.5,.5-.7h.4v5Z"/><path d="M8.2,20.7v-1.2h-2.2v-.6l2.3-3.2h.5v3.2h.7v.6h-.7v1.2h-.6Zm0-1.8v-2.3l-1.6,2.3h1.6Z"/><path d="M10.5,20.7v-.7h.7v.7h-.7Z"/><path d="M12.1,18.2c0-.6,0-1.1,.2-1.4,.1-.4,.3-.6,.5-.8,.2-.2,.5-.3,.9-.3s.5,0,.7,.2c.2,.1,.4,.3,.5,.5,.1,.2,.2,.5,.3,.7,0,.3,.1,.7,.1,1.2s0,1.1-.2,1.4c-.1,.4-.3,.6-.5,.8-.2,.2-.5,.3-.9,.3s-.9-.2-1.1-.5c-.3-.4-.5-1.1-.5-2Zm.6,0c0,.8,0,1.4,.3,1.6,.2,.3,.4,.4,.7,.4s.5-.1,.7-.4c.2-.3,.3-.8,.3-1.6s0-1.4-.3-1.6c-.2-.3-.4-.4-.7-.4s-.5,.1-.7,.4c-.2,.3-.3,.9-.3,1.7Z"/></g><g><path d="M186,237.5v-5h2.1c.5,0,.9,0,1.2,.1,.2,0,.4,.3,.6,.5s.2,.5,.2,.8-.1,.7-.3,.9c-.2,.2-.6,.4-1,.5,.2,.1,.4,.3,.5,.4,.1,.2,.3,.4,.6,.8l.6,1h-1.2l-.7-1.1c-.3-.4-.4-.6-.5-.7,0-.1-.2-.2-.3-.2-.1,0-.3,0-.5,0h-.2v2.1h-1Zm1-2.9h.7c.5,0,.8,0,.9,0s.2-.1,.3-.2,.1-.2,.1-.4,0-.3-.1-.4c0-.1-.2-.2-.4-.2,0,0-.3,0-.7,0h-.8v1.3Z"/><path d="M191.7,235l-.9-.2c0-.4,.3-.6,.5-.8s.6-.3,1.1-.3,.7,0,1,.2c.2,.1,.4,.2,.4,.4,0,.2,.1,.4,.1,.9v1.1c0,.3,0,.6,0,.7,0,.2,0,.3,.2,.5h-1c0,0,0-.2,0-.3,0,0,0,0,0-.1-.2,.2-.3,.3-.5,.4-.2,0-.4,.1-.6,.1-.4,0-.7-.1-.9-.3-.2-.2-.3-.5-.3-.8s0-.4,.1-.5c0-.2,.2-.3,.4-.4,.2,0,.4-.2,.8-.2,.4,0,.8-.2,.9-.2h0c0-.3,0-.4-.1-.5,0,0-.3-.1-.5-.1s-.3,0-.4,.1c0,0-.2,.2-.2,.4Zm1.3,.8c-.1,0-.3,0-.6,.1s-.4,.1-.5,.2c-.1,0-.2,.2-.2,.3s0,.2,.2,.3c.1,0,.2,.1,.4,.1s.3,0,.5-.2c.1,0,.2-.2,.2-.3,0,0,0-.2,0-.5v-.2Z"/><path d="M198.1,234.9l-.9,.2c0-.2-.1-.3-.2-.4-.1,0-.3-.1-.4-.1s-.4,0-.6,.2c-.1,.2-.2,.4-.2,.8s0,.7,.2,.9c.1,.2,.3,.3,.6,.3s.3,0,.4-.2c.1-.1,.2-.3,.2-.5l.9,.2c0,.4-.3,.8-.6,1-.3,.2-.7,.3-1.1,.3s-1-.2-1.3-.5c-.3-.3-.5-.8-.5-1.4s.2-1.1,.5-1.4c.3-.3,.7-.5,1.3-.5s.8,0,1.1,.3c.3,.2,.4,.5,.6,.9Z"/><path d="M200.9,236.3l1,.2c-.1,.4-.3,.6-.6,.8-.3,.2-.6,.3-1,.3-.6,0-1.1-.2-1.4-.6-.2-.3-.4-.7-.4-1.3s.2-1.1,.5-1.4c.3-.3,.7-.5,1.2-.5s1,.2,1.3,.5c.3,.4,.5,.9,.4,1.6h-2.4c0,.3,0,.5,.2,.7s.3,.2,.6,.2,.3,0,.4-.1,.2-.2,.2-.4Zm0-1c0-.3,0-.5-.2-.6-.1-.1-.3-.2-.5-.2s-.4,0-.5,.2-.2,.4-.2,.6h1.4Z"/><path d="M202.2,237.6l1.2-5.2h.7l-1.3,5.2h-.7Z"/><path d="M206.7,236.3l1,.2c-.1,.4-.3,.6-.6,.8-.3,.2-.6,.3-1,.3-.6,0-1.1-.2-1.4-.6-.2-.3-.4-.7-.4-1.3s.2-1.1,.5-1.4c.3-.3,.7-.5,1.2-.5s1,.2,1.3,.5c.3,.4,.5,.9,.4,1.6h-2.4c0,.3,0,.5,.2,.7s.3,.2,.6,.2,.3,0,.4-.1,.2-.2,.2-.4Zm0-1c0-.3,0-.5-.2-.6-.1-.1-.3-.2-.5-.2s-.4,0-.5,.2-.2,.4-.2,.6h1.4Z"/><path d="M210.2,233.9v.8h-.7v1.5c0,.3,0,.5,0,.5,0,0,0,0,0,.1,0,0,0,0,.2,0s.2,0,.4,0v.7c-.1,0-.4,.1-.7,.1s-.3,0-.5,0c-.1,0-.2-.1-.3-.2,0,0-.1-.2-.1-.4,0-.1,0-.3,0-.7v-1.6h-.4v-.8h.4v-.7l1-.6v1.3h.7Z"/><path d="M211.8,232.5v1.8c.3-.4,.7-.5,1.1-.5s.4,0,.6,.1,.3,.2,.4,.3c0,.1,.2,.3,.2,.4,0,.2,0,.4,0,.7v2.1h-1v-1.9c0-.4,0-.6,0-.7s-.1-.2-.2-.2c0,0-.2,0-.3,0s-.3,0-.4,.1-.2,.2-.3,.4c0,.2,0,.4,0,.7v1.8h-1v-5h1Z"/><path d="M218.4,237.5h-1v-1.9c0-.4,0-.6,0-.8,0-.1-.1-.2-.2-.3,0,0-.2,0-.3,0s-.3,0-.4,.1-.2,.2-.3,.4c0,.2,0,.4,0,.8v1.6h-1v-3.6h.9v.5c.3-.4,.7-.6,1.2-.6s.4,0,.6,.1c.2,0,.3,.2,.4,.3,0,.1,.2,.3,.2,.4,0,.2,0,.4,0,.6v2.3Z"/><path d="M219.4,233.4v-.9h1v.9h-1Zm0,4.1v-3.6h1v3.6h-1Z"/><path d="M224.5,234.9l-.9,.2c0-.2-.1-.3-.2-.4-.1,0-.3-.1-.4-.1s-.4,0-.6,.2c-.1,.2-.2,.4-.2,.8s0,.7,.2,.9c.1,.2,.3,.3,.6,.3s.3,0,.4-.2c.1-.1,.2-.3,.2-.5l.9,.2c0,.4-.3,.8-.6,1-.3,.2-.7,.3-1.1,.3s-1-.2-1.3-.5c-.3-.3-.5-.8-.5-1.4s.2-1.1,.5-1.4c.3-.3,.7-.5,1.3-.5s.8,0,1.1,.3c.3,.2,.4,.5,.6,.9Z"/><path d="M225.3,233.4v-.9h1v.9h-1Zm0,4.1v-3.6h1v3.6h-1Z"/><path d="M228.9,233.9v.8h-.7v1.5c0,.3,0,.5,0,.5,0,0,0,0,0,.1,0,0,0,0,.2,0s.2,0,.4,0v.7c-.1,0-.4,.1-.7,.1s-.3,0-.5,0c-.1,0-.2-.1-.3-.2,0,0-.1-.2-.1-.4,0-.1,0-.3,0-.7v-1.6h-.4v-.8h.4v-.7l1-.6v1.3h.7Z"/><path d="M229.1,233.9h1l.9,2.6,.8-2.6h1l-1.3,3.5-.2,.6c0,.2-.2,.4-.2,.5,0,.1-.2,.2-.3,.3,0,0-.2,.1-.4,.2-.1,0-.3,0-.5,0s-.4,0-.5,0v-.8c0,0,.2,0,.3,0,.2,0,.4,0,.5-.2,.1-.1,.2-.3,.2-.5l-1.4-3.6Z"/><path d="M236.1,235l-.9-.2c0-.4,.3-.6,.5-.8s.6-.3,1.1-.3,.7,0,1,.2c.2,.1,.4,.2,.4,.4,0,.2,.1,.4,.1,.9v1.1c0,.3,0,.6,0,.7,0,.2,0,.3,.2,.5h-1c0,0,0-.2,0-.3,0,0,0,0,0-.1-.2,.2-.3,.3-.5,.4-.2,0-.4,.1-.6,.1-.4,0-.7-.1-.9-.3-.2-.2-.3-.5-.3-.8s0-.4,.1-.5c0-.2,.2-.3,.4-.4,.2,0,.4-.2,.8-.2,.4,0,.8-.2,.9-.2h0c0-.3,0-.4-.1-.5,0,0-.3-.1-.5-.1s-.3,0-.4,.1c0,0-.2,.2-.2,.4Zm1.3,.8c-.1,0-.3,0-.6,.1s-.4,.1-.5,.2c-.1,0-.2,.2-.2,.3s0,.2,.2,.3c.1,0,.2,.1,.4,.1s.3,0,.5-.2c.1,0,.2-.2,.2-.3,0,0,0-.2,0-.5v-.2Z"/><path d="M242.6,237.5h-1v-1.9c0-.4,0-.6,0-.8,0-.1-.1-.2-.2-.3,0,0-.2,0-.3,0s-.3,0-.4,.1-.2,.2-.3,.4c0,.2,0,.4,0,.8v1.6h-1v-3.6h.9v.5c.3-.4,.7-.6,1.2-.6s.4,0,.6,.1c.2,0,.3,.2,.4,.3,0,.1,.2,.3,.2,.4,0,.2,0,.4,0,.6v2.3Z"/><path d="M246.9,237.5h-.9v-.5c-.1,.2-.3,.4-.5,.5-.2,.1-.4,.2-.6,.2-.4,0-.8-.2-1.1-.5-.3-.3-.4-.8-.4-1.4s.1-1.1,.4-1.4c.3-.3,.7-.5,1.1-.5s.8,.2,1.1,.5v-1.8h1v5Zm-2.6-1.9c0,.4,0,.7,.2,.8,.2,.3,.4,.4,.6,.4s.4,0,.6-.3c.2-.2,.2-.5,.2-.8s0-.7-.2-.9c-.2-.2-.3-.3-.6-.3s-.4,0-.6,.3c-.2,.2-.2,.5-.2,.8Z"/><path d="M253.1,237.5h-1v-1.9c0-.4,0-.6,0-.8,0-.1-.1-.2-.2-.3,0,0-.2,0-.3,0s-.3,0-.4,.1-.2,.2-.3,.4c0,.2,0,.4,0,.8v1.6h-1v-3.6h.9v.5c.3-.4,.7-.6,1.2-.6s.4,0,.6,.1c.2,0,.3,.2,.4,.3,0,.1,.2,.3,.2,.4,0,.2,0,.4,0,.6v2.3Z"/><path d="M253.8,235.6c0-.3,0-.6,.2-.9s.4-.5,.7-.7c.3-.2,.6-.2,1-.2,.5,0,1,.2,1.4,.5,.4,.4,.5,.8,.5,1.4s-.2,1-.5,1.4c-.4,.4-.8,.5-1.3,.5s-.6,0-1-.2c-.3-.2-.5-.4-.7-.7-.2-.3-.2-.6-.2-1.1Zm1,0c0,.4,0,.6,.3,.8s.4,.3,.6,.3,.5,0,.6-.3c.2-.2,.3-.5,.3-.8s0-.6-.3-.8c-.2-.2-.4-.3-.6-.3s-.5,0-.6,.3-.3,.5-.3,.8Z"/><path d="M261.6,237.5h-1v-1.9c0-.4,0-.6,0-.8,0-.1-.1-.2-.2-.3,0,0-.2,0-.3,0s-.3,0-.4,.1-.2,.2-.3,.4c0,.2,0,.4,0,.8v1.6h-1v-3.6h.9v.5c.3-.4,.7-.6,1.2-.6s.4,0,.6,.1c.2,0,.3,.2,.4,.3,0,.1,.2,.3,.2,.4,0,.2,0,.4,0,.6v2.3Z"/><path d="M263.5,237.5h-1v-3.6h.9v.5c.2-.2,.3-.4,.4-.5,.1,0,.3-.1,.4-.1s.4,0,.6,.2l-.3,.8c-.2-.1-.3-.2-.5-.2s-.2,0-.3,.1c0,0-.2,.2-.2,.4s0,.6,0,1.2v1.1Z"/><path d="M267.4,236.3l1,.2c-.1,.4-.3,.6-.6,.8-.3,.2-.6,.3-1,.3-.6,0-1.1-.2-1.4-.6-.2-.3-.4-.7-.4-1.3s.2-1.1,.5-1.4c.3-.3,.7-.5,1.2-.5s1,.2,1.3,.5c.3,.4,.5,.9,.4,1.6h-2.4c0,.3,0,.5,.2,.7,.1,.2,.3,.2,.6,.2s.3,0,.4-.1,.2-.2,.2-.4Zm0-1c0-.3,0-.5-.2-.6-.1-.1-.3-.2-.5-.2s-.4,0-.5,.2-.2,.4-.2,.6h1.4Z"/><path d="M268.9,236.5h1s.1,.2,.2,.3c.1,0,.3,.1,.5,.1s.4,0,.6-.1c0,0,.1-.1,.1-.3s0-.1,0-.2c0,0-.2,0-.3-.1-.8-.2-1.3-.3-1.5-.5-.3-.2-.4-.5-.4-.8s.1-.6,.4-.8c.2-.2,.6-.3,1.2-.3s.9,0,1.1,.2c.2,.2,.4,.4,.5,.7l-.9,.2c0-.1-.1-.2-.2-.3-.1,0-.3-.1-.5-.1s-.4,0-.5,.1c0,0-.1,.1-.1,.2s0,.1,0,.2c0,0,.4,.2,.9,.3,.5,.1,.9,.3,1.1,.4,.2,.2,.3,.4,.3,.7s-.1,.6-.4,.9c-.3,.2-.7,.4-1.2,.4s-.9,0-1.2-.3c-.3-.2-.5-.5-.6-.8Z"/><path d="M273.1,233.4v-.9h1v.9h-1Zm0,4.1v-3.6h1v3.6h-1Z"/><path d="M278.4,237.5h-.9v-.5c-.1,.2-.3,.4-.5,.5-.2,.1-.4,.2-.6,.2-.4,0-.8-.2-1.1-.5-.3-.3-.4-.8-.4-1.4s.1-1.1,.4-1.4c.3-.3,.7-.5,1.1-.5s.8,.2,1.1,.5v-1.8h1v5Zm-2.6-1.9c0,.4,0,.7,.2,.8,.2,.3,.4,.4,.6,.4s.4,0,.6-.3c.2-.2,.2-.5,.2-.8s0-.7-.2-.9c-.2-.2-.3-.3-.6-.3s-.4,0-.6,.3c-.2,.2-.2,.5-.2,.8Z"/><path d="M281.4,236.3l1,.2c-.1,.4-.3,.6-.6,.8-.3,.2-.6,.3-1,.3-.6,0-1.1-.2-1.4-.6-.2-.3-.4-.7-.4-1.3s.2-1.1,.5-1.4c.3-.3,.7-.5,1.2-.5s1,.2,1.3,.5c.3,.4,.5,.9,.4,1.6h-2.4c0,.3,0,.5,.2,.7,.1,.2,.3,.2,.6,.2s.3,0,.4-.1,.2-.2,.2-.4Zm0-1c0-.3,0-.5-.2-.6-.1-.1-.3-.2-.5-.2s-.4,0-.5,.2-.2,.4-.2,.6h1.4Z"/><path d="M286.5,237.5h-1v-1.9c0-.4,0-.6,0-.8,0-.1-.1-.2-.2-.3,0,0-.2,0-.3,0s-.3,0-.4,.1c-.1,0-.2,.2-.3,.4s0,.4,0,.8v1.6h-1v-3.6h.9v.5c.3-.4,.7-.6,1.2-.6s.4,0,.6,.1c.2,0,.3,.2,.4,.3,0,.1,.2,.3,.2,.4s0,.4,0,.6v2.3Z"/><path d="M289.1,233.9v.8h-.7v1.5c0,.3,0,.5,0,.5,0,0,0,0,0,.1,0,0,0,0,.2,0s.2,0,.4,0v.7c-.1,0-.4,.1-.7,.1s-.3,0-.5,0c-.1,0-.2-.1-.3-.2,0,0-.1-.2-.1-.4,0-.1,0-.3,0-.7v-1.6h-.4v-.8h.4v-.7l1-.6v1.3h.7Z"/><path d="M292.5,235l-.9-.2c0-.4,.3-.6,.5-.8s.6-.3,1.1-.3,.7,0,1,.2c.2,.1,.4,.2,.4,.4,0,.2,.1,.4,.1,.9v1.1c0,.3,0,.6,0,.7,0,.2,0,.3,.2,.5h-1c0,0,0-.2,0-.3,0,0,0,0,0-.1-.2,.2-.3,.3-.5,.4-.2,0-.4,.1-.6,.1-.4,0-.7-.1-.9-.3-.2-.2-.3-.5-.3-.8s0-.4,.1-.5c0-.2,.2-.3,.4-.4,.2,0,.4-.2,.8-.2,.4,0,.8-.2,.9-.2h0c0-.3,0-.4-.1-.5,0,0-.3-.1-.5-.1s-.3,0-.4,.1c0,0-.2,.2-.2,.4Zm1.3,.8c-.1,0-.3,0-.6,.1s-.4,.1-.5,.2c-.1,0-.2,.2-.2,.3s0,.2,.2,.3c0,0,.2,.1,.4,.1s.3,0,.5-.2c.1,0,.2-.2,.2-.3,0,0,0-.2,0-.5v-.2Z"/><path d="M295.7,237.5v-5h1v5h-1Z"/><path d="M297.6,233.4v-.9h1v.9h-1Zm0,4.1v-3.6h1v3.6h-1Z"/><path d="M301.6,236.3l1,.2c-.1,.4-.3,.6-.6,.8-.3,.2-.6,.3-1,.3-.6,0-1.1-.2-1.4-.6-.2-.3-.4-.7-.4-1.3s.2-1.1,.5-1.4c.3-.3,.7-.5,1.2-.5s1,.2,1.3,.5c.3,.4,.5,.9,.4,1.6h-2.4c0,.3,0,.5,.2,.7,.1,.2,.3,.2,.6,.2s.3,0,.4-.1,.2-.2,.2-.4Zm0-1c0-.3,0-.5-.2-.6-.1-.1-.3-.2-.5-.2s-.4,0-.5,.2-.2,.4-.2,.6h1.4Z"/><path d="M306.7,237.5h-1v-1.9c0-.4,0-.6,0-.8,0-.1-.1-.2-.2-.3,0,0-.2,0-.3,0s-.3,0-.4,.1c-.1,0-.2,.2-.3,.4s0,.4,0,.8v1.6h-1v-3.6h.9v.5c.3-.4,.7-.6,1.2-.6s.4,0,.6,.1c.2,0,.3,.2,.4,.3,0,.1,.2,.3,.2,.4s0,.4,0,.6v2.3Z"/><path d="M309.3,236.5h1s.1,.2,.2,.3c.1,0,.3,.1,.5,.1s.4,0,.6-.1c0,0,.1-.1,.1-.3s0-.1,0-.2c0,0-.2,0-.3-.1-.8-.2-1.3-.3-1.5-.5-.3-.2-.4-.5-.4-.8s.1-.6,.4-.8c.2-.2,.6-.3,1.2-.3s.9,0,1.1,.2c.2,.2,.4,.4,.5,.7l-.9,.2c0-.1-.1-.2-.2-.3-.1,0-.3-.1-.5-.1s-.4,0-.5,.1c0,0-.1,.1-.1,.2s0,.1,0,.2c0,0,.4,.2,.9,.3,.5,.1,.9,.3,1.1,.4,.2,.2,.3,.4,.3,.7s-.1,.6-.4,.9c-.3,.2-.7,.4-1.2,.4s-.9,0-1.2-.3c-.3-.2-.5-.5-.6-.8Z"/><path d="M315.2,233.9v.8h-.7v1.5c0,.3,0,.5,0,.5,0,0,0,0,0,.1,0,0,0,0,.2,0s.2,0,.4,0v.7c-.1,0-.4,.1-.7,.1s-.3,0-.5,0c-.1,0-.2-.1-.3-.2,0,0-.1-.2-.1-.4,0-.1,0-.3,0-.7v-1.6h-.4v-.8h.4v-.7l1-.6v1.3h.7Z"/><path d="M316.6,235l-.9-.2c0-.4,.3-.6,.5-.8s.6-.3,1.1-.3,.7,0,1,.2c.2,.1,.4,.2,.4,.4,0,.2,.1,.4,.1,.9v1.1c0,.3,0,.6,0,.7,0,.2,0,.3,.2,.5h-1c0,0,0-.2,0-.3,0,0,0,0,0-.1-.2,.2-.3,.3-.5,.4-.2,0-.4,.1-.6,.1-.4,0-.7-.1-.9-.3-.2-.2-.3-.5-.3-.8s0-.4,.1-.5c0-.2,.2-.3,.4-.4,.2,0,.4-.2,.8-.2,.4,0,.8-.2,.9-.2h0c0-.3,0-.4-.1-.5,0,0-.3-.1-.5-.1s-.3,0-.4,.1c0,0-.2,.2-.2,.4Zm1.3,.8c-.1,0-.3,0-.6,.1s-.4,.1-.5,.2c-.1,0-.2,.2-.2,.3s0,.2,.2,.3c.1,0,.2,.1,.4,.1s.3,0,.5-.2c.1,0,.2-.2,.2-.3,0,0,0-.2,0-.5v-.2Z"/><path d="M321.4,233.9v.8h-.7v1.5c0,.3,0,.5,0,.5,0,0,0,0,0,.1,0,0,0,0,.2,0s.2,0,.4,0v.7c-.1,0-.4,.1-.7,.1s-.3,0-.5,0c-.1,0-.2-.1-.3-.2,0,0-.1-.2-.1-.4,0-.1,0-.3,0-.7v-1.6h-.4v-.8h.4v-.7l1-.6v1.3h.7Z"/><path d="M324.5,237.5v-.5c-.1,.2-.3,.3-.5,.5-.2,.1-.4,.2-.7,.2s-.5,0-.7-.2c-.2-.1-.3-.3-.4-.5,0-.2-.1-.5-.1-.8v-2.3h1v1.7c0,.5,0,.8,0,.9s0,.2,.2,.3c0,0,.2,.1,.4,.1s.3,0,.4-.1,.2-.2,.3-.3c0-.1,0-.5,0-1v-1.5h1v3.6h-.9Z"/><path d="M326,236.5h1s.1,.2,.2,.3c.1,0,.3,.1,.5,.1s.4,0,.6-.1c0,0,.1-.1,.1-.3s0-.1,0-.2c0,0-.2,0-.3-.1-.8-.2-1.3-.3-1.5-.5-.3-.2-.4-.5-.4-.8s.1-.6,.4-.8c.2-.2,.6-.3,1.2-.3s.9,0,1.1,.2c.2,.2,.4,.4,.5,.7l-.9,.2c0-.1-.1-.2-.2-.3s-.3-.1-.5-.1-.4,0-.5,.1c0,0-.1,.1-.1,.2s0,.1,0,.2c0,0,.4,.2,.9,.3s.9,.3,1.1,.4c.2,.2,.3,.4,.3,.7s-.1,.6-.4,.9c-.3,.2-.7,.4-1.2,.4s-.9,0-1.2-.3c-.3-.2-.5-.5-.6-.8Z"/></g><g><path d="M2.5,7.6V2.6h3.7v.8H3.6v1.1h2.5v.8H3.6v1.4h2.8v.8H2.5Z"/><path d="M10.5,7.6h-1v-1.9c0-.4,0-.6,0-.8,0-.1-.1-.2-.2-.3,0,0-.2,0-.3,0s-.3,0-.4,.1-.2,.2-.3,.4c0,.2,0,.4,0,.8v1.6h-1V4h.9v.5c.3-.4,.7-.6,1.2-.6s.4,0,.6,.1c.2,0,.3,.2,.4,.3,0,.1,.2,.3,.2,.4,0,.2,0,.4,0,.6v2.3Z"/><path d="M12.4,7.6h-1V4h.9v.5c.2-.2,.3-.4,.4-.5,.1,0,.3-.1,.4-.1s.4,0,.6,.2l-.3,.8c-.2-.1-.3-.2-.5-.2s-.2,0-.3,.1c0,0-.2,.2-.2,.4,0,.2,0,.6,0,1.2v1.1Z"/><path d="M14,5.7c0-.3,0-.6,.2-.9s.4-.5,.7-.7c.3-.2,.6-.2,1-.2,.5,0,1,.2,1.4,.5,.4,.4,.5,.8,.5,1.4s-.2,1-.5,1.4c-.4,.4-.8,.5-1.3,.5s-.6,0-1-.2c-.3-.2-.5-.4-.7-.7-.2-.3-.2-.6-.2-1.1Zm1,0c0,.4,0,.6,.3,.8s.4,.3,.6,.3,.5,0,.6-.3c.2-.2,.3-.5,.3-.8s0-.6-.3-.8c-.2-.2-.4-.3-.6-.3s-.5,0-.6,.3-.3,.5-.3,.8Z"/><path d="M18.5,7.6V2.6h1V7.6h-1Z"/><path d="M20.4,7.6V2.6h1V7.6h-1Z"/><path d="M22.3,4h.9v.5c.3-.4,.7-.6,1.1-.6s.4,0,.6,.1,.3,.2,.4,.4c.2-.2,.3-.3,.5-.4s.4-.1,.6-.1,.5,0,.7,.2c.2,.1,.3,.3,.4,.5,0,.2,0,.4,0,.8v2.3h-1v-2.1c0-.4,0-.6,0-.7,0-.1-.2-.2-.4-.2s-.3,0-.4,.1-.2,.2-.3,.4c0,.2,0,.4,0,.8v1.7h-1v-2c0-.4,0-.6,0-.7s0-.2-.2-.2c0,0-.2,0-.3,0s-.3,0-.4,.1-.2,.2-.3,.3c0,.2,0,.4,0,.7v1.8h-1V4Z"/><path d="M30.7,6.5l1,.2c-.1,.4-.3,.6-.6,.8-.3,.2-.6,.3-1,.3-.6,0-1.1-.2-1.4-.6-.2-.3-.4-.7-.4-1.3s.2-1.1,.5-1.4c.3-.3,.7-.5,1.2-.5s1,.2,1.3,.5c.3,.4,.5,.9,.4,1.6h-2.4c0,.3,0,.5,.2,.7,.1,.2,.3,.2,.6,.2s.3,0,.4-.1,.2-.2,.2-.4Zm0-1c0-.3,0-.5-.2-.6-.1-.1-.3-.2-.5-.2s-.4,0-.5,.2-.2,.4-.2,.6h1.4Z"/><path d="M35.8,7.6h-1v-1.9c0-.4,0-.6,0-.8,0-.1-.1-.2-.2-.3,0,0-.2,0-.3,0s-.3,0-.4,.1-.2,.2-.3,.4c0,.2,0,.4,0,.8v1.6h-1V4h.9v.5c.3-.4,.7-.6,1.2-.6s.4,0,.6,.1c.2,0,.3,.2,.4,.3,0,.1,.2,.3,.2,.4,0,.2,0,.4,0,.6v2.3Z"/><path d="M38.4,4v.8h-.7v1.5c0,.3,0,.5,0,.5,0,0,0,0,0,.1,0,0,0,0,.2,0s.2,0,.4,0v.7c-.1,0-.4,.1-.7,.1s-.3,0-.5,0c-.1,0-.2-.1-.3-.2,0,0-.1-.2-.1-.4,0-.1,0-.3,0-.7v-1.6h-.4v-.8h.4v-.7l1-.6v1.3h.7Z"/><path d="M39.1,6.6h1v.7c0,.3,0,.5,0,.7,0,.2-.1,.3-.3,.4-.1,.1-.3,.2-.5,.3l-.2-.4c.2,0,.3-.2,.4-.3s.1-.3,.1-.5h-.5v-1Z"/><path d="M43,3.5v-.9h1v.9h-1Zm0,4.1V4h1v3.6h-1Z"/><path d="M48.2,7.6h-1v-1.9c0-.4,0-.6,0-.8,0-.1-.1-.2-.2-.3,0,0-.2,0-.3,0s-.3,0-.4,.1-.2,.2-.3,.4c0,.2,0,.4,0,.8v1.6h-1V4h.9v.5c.3-.4,.7-.6,1.2-.6s.4,0,.6,.1c.2,0,.3,.2,.4,.3,0,.1,.2,.3,.2,.4,0,.2,0,.4,0,.6v2.3Z"/><path d="M51.1,4h.9v.5c.3-.4,.7-.6,1.1-.6s.4,0,.6,.1,.3,.2,.4,.4c.2-.2,.3-.3,.5-.4s.4-.1,.6-.1,.5,0,.7,.2c.2,.1,.3,.3,.4,.5,0,.2,0,.4,0,.8v2.3h-1v-2.1c0-.4,0-.6,0-.7,0-.1-.2-.2-.4-.2s-.3,0-.4,.1-.2,.2-.3,.4c0,.2,0,.4,0,.8v1.7h-1v-2c0-.4,0-.6,0-.7s0-.2-.2-.2c0,0-.2,0-.3,0s-.3,0-.4,.1-.2,.2-.3,.3c0,.2,0,.4,0,.7v1.8h-1V4Z"/><path d="M57.4,3.5v-.9h1v.9h-1Zm0,4.1V4h1v3.6h-1Z"/><path d="M59.3,7.6V2.6h1V7.6h-1Z"/><path d="M61.3,7.6V2.6h1V7.6h-1Z"/><path d="M63.2,3.5v-.9h1v.9h-1Zm0,4.1V4h1v3.6h-1Z"/><path d="M64.9,5.7c0-.3,0-.6,.2-.9s.4-.5,.7-.7c.3-.2,.6-.2,1-.2,.5,0,1,.2,1.4,.5,.4,.4,.5,.8,.5,1.4s-.2,1-.5,1.4c-.4,.4-.8,.5-1.3,.5s-.6,0-1-.2c-.3-.2-.5-.4-.7-.7-.2-.3-.2-.6-.2-1.1Zm1,0c0,.4,0,.6,.3,.8s.4,.3,.6,.3,.5,0,.6-.3c.2-.2,.3-.5,.3-.8s0-.6-.3-.8c-.2-.2-.4-.3-.6-.3s-.5,0-.6,.3-.3,.5-.3,.8Z"/><path d="M72.7,7.6h-1v-1.9c0-.4,0-.6,0-.8,0-.1-.1-.2-.2-.3,0,0-.2,0-.3,0s-.3,0-.4,.1-.2,.2-.3,.4c0,.2,0,.4,0,.8v1.6h-1V4h.9v.5c.3-.4,.7-.6,1.2-.6s.4,0,.6,.1c.2,0,.3,.2,.4,.3,0,.1,.2,.3,.2,.4,0,.2,0,.4,0,.6v2.3Z"/><path d="M73.4,6.6h1s.1,.2,.2,.3c.1,0,.3,.1,.5,.1s.4,0,.6-.1c0,0,.1-.1,.1-.3s0-.1,0-.2c0,0-.2,0-.3-.1-.8-.2-1.3-.3-1.5-.5-.3-.2-.4-.5-.4-.8s.1-.6,.4-.8,.6-.3,1.2-.3,.9,0,1.1,.2,.4,.4,.5,.7l-.9,.2c0-.1-.1-.2-.2-.3-.1,0-.3-.1-.5-.1s-.4,0-.5,.1c0,0-.1,.1-.1,.2s0,.1,0,.2c0,0,.4,.2,.9,.3,.5,.1,.9,.3,1.1,.4,.2,.2,.3,.4,.3,.7s-.1,.6-.4,.9-.7,.4-1.2,.4-.9-.1-1.2-.3c-.3-.2-.5-.5-.6-.8Z"/></g><rect class="g" x="155.2" y="137.3" width="11.9" height="16.1"/><g><path d="M31.6,54.8h-.6v-3.9c-.1,.1-.3,.3-.6,.4-.2,.1-.5,.2-.6,.3v-.6c.3-.2,.6-.4,.9-.6s.4-.5,.5-.7h.4v5Z"/><path d="M33.2,52.3c0-.6,0-1.1,.2-1.4,.1-.4,.3-.6,.5-.8,.2-.2,.5-.3,.9-.3s.5,0,.7,.2c.2,.1,.4,.3,.5,.5,.1,.2,.2,.5,.3,.7,0,.3,.1,.7,.1,1.2s0,1.1-.2,1.4c-.1,.4-.3,.6-.5,.8-.2,.2-.5,.3-.9,.3s-.9-.2-1.1-.5c-.3-.4-.5-1.1-.5-2Zm.6,0c0,.8,0,1.4,.3,1.6,.2,.3,.4,.4,.7,.4s.5-.1,.7-.4c.2-.3,.3-.8,.3-1.6s0-1.4-.3-1.6c-.2-.3-.4-.4-.7-.4s-.5,.1-.7,.4c-.2,.3-.3,.9-.3,1.7Z"/><path d="M37.4,54.8v-.7h.7v.7h-.7Z"/><path d="M39.1,53.7h.6c0,.2,.1,.4,.3,.6s.3,.2,.5,.2,.4,0,.5-.1c.1,0,.3-.2,.4-.3,0-.1,.2-.3,.2-.6s0-.5,0-.8,0,0,0-.1c-.1,.2-.3,.4-.5,.5-.2,.1-.4,.2-.7,.2-.4,0-.8-.2-1.1-.5s-.4-.7-.4-1.2,.1-.9,.4-1.2c.3-.3,.7-.5,1.1-.5s.6,0,.9,.3,.5,.4,.6,.8,.2,.8,.2,1.4,0,1.2-.2,1.5-.3,.7-.6,.9c-.3,.2-.6,.3-1,.3s-.7-.1-1-.3c-.2-.2-.4-.5-.4-.9Zm2.5-2.2c0-.4,0-.6-.3-.8s-.4-.3-.7-.3-.5,.1-.7,.3-.3,.5-.3,.9,0,.6,.3,.8c.2,.2,.4,.3,.7,.3s.5,0,.7-.3c.2-.2,.3-.5,.3-.8Z"/></g><g><path d="M50.1,87.1c-.3,0-.4-.2-.6-.4s-.2-.4-.2-.6c0-.4,.1-.7,.4-.9s.6-.4,1-.4,.8,.1,1.1,.4c.3,.3,.4,.6,.4,.9s0,.4-.2,.6c-.1,.2-.3,.3-.6,.4,.3,.1,.5,.3,.7,.5s.2,.5,.2,.8-.2,.8-.5,1.1-.7,.4-1.2,.4-.9-.1-1.2-.4c-.3-.3-.5-.7-.5-1.1s0-.6,.2-.8c.2-.2,.4-.4,.7-.4Zm-.3,1.3c0,.2,0,.3,.1,.5,0,.2,.2,.3,.4,.4,.2,0,.3,.1,.5,.1,.3,0,.5,0,.7-.3s.3-.4,.3-.7,0-.5-.3-.7c-.2-.2-.4-.3-.7-.3s-.5,0-.7,.3c-.2,.2-.3,.4-.3,.7Zm.2-2.3c0,.2,0,.4,.2,.6s.4,.2,.6,.2,.4,0,.6-.2c.2-.1,.2-.3,.2-.5s0-.4-.2-.6c-.2-.2-.4-.2-.6-.2s-.4,0-.6,.2-.2,.3-.2,.5Z"/><path d="M53.4,89.8v-.7h.7v.7h-.7Z"/><path d="M57.3,89.8h-.6v-3.9c-.1,.1-.3,.3-.6,.4-.2,.1-.5,.2-.6,.3v-.6c.3-.2,.6-.4,.9-.6s.4-.5,.5-.7h.4v5Z"/></g><g><path d="M88.2,162.9v.6h-3.3c0-.1,0-.3,0-.4,0-.2,.2-.4,.4-.7,.2-.2,.5-.5,.8-.8,.5-.4,.9-.8,1.1-1.1,.2-.3,.3-.5,.3-.7s0-.4-.3-.6-.4-.3-.7-.3-.5,0-.7,.3-.3,.4-.3,.7h-.6c0-.5,.2-.9,.5-1.1,.3-.2,.7-.4,1.1-.4s.9,.1,1.1,.4,.4,.6,.4,1,0,.4-.1,.6-.2,.4-.4,.6c-.2,.2-.5,.5-.9,.9-.4,.3-.6,.5-.7,.6-.1,.1-.2,.2-.3,.3h2.5Z"/><path d="M89.3,163.5v-.7h.7v.7h-.7Z"/><path d="M90.9,162.2h.6c0,.3,.2,.5,.3,.7,.2,.2,.4,.2,.6,.2s.5-.1,.8-.3,.3-.5,.3-.9,0-.6-.3-.8c-.2-.2-.5-.3-.8-.3s-.4,0-.5,.1c-.2,0-.3,.2-.4,.4h-.6l.5-2.6h2.5v.6h-2l-.3,1.3c.3-.2,.6-.3,.9-.3s.8,.2,1.1,.5,.5,.7,.5,1.2-.1,.8-.4,1.2c-.3,.4-.8,.6-1.3,.6s-.8-.1-1.1-.4c-.3-.3-.5-.6-.5-1Z"/></g><g><path d="M106.2,168.9v.6h-3.3c0-.1,0-.3,0-.4,0-.2,.2-.4,.4-.7,.2-.2,.5-.5,.8-.8,.5-.4,.9-.8,1.1-1.1,.2-.3,.3-.5,.3-.7s0-.4-.3-.6-.4-.3-.7-.3-.5,0-.7,.3-.3,.4-.3,.7h-.6c0-.5,.2-.9,.5-1.1,.3-.2,.7-.4,1.1-.4s.9,.1,1.1,.4,.4,.6,.4,1,0,.4-.1,.6-.2,.4-.4,.6c-.2,.2-.5,.5-.9,.9-.4,.3-.6,.5-.7,.6-.1,.1-.2,.2-.3,.3h2.5Z"/><path d="M107.2,169.5v-.7h.7v.7h-.7Z"/><path d="M108.8,167c0-.6,0-1.1,.2-1.4,.1-.4,.3-.6,.5-.8,.2-.2,.5-.3,.9-.3s.5,0,.7,.2c.2,.1,.4,.3,.5,.5,.1,.2,.2,.5,.3,.7,0,.3,.1,.7,.1,1.2s0,1.1-.2,1.4c-.1,.4-.3,.6-.5,.8-.2,.2-.5,.3-.9,.3s-.9-.2-1.1-.5c-.3-.4-.5-1.1-.5-2Zm.6,0c0,.8,0,1.4,.3,1.6,.2,.3,.4,.4,.7,.4s.5-.1,.7-.4c.2-.3,.3-.8,.3-1.6s0-1.4-.3-1.6c-.2-.3-.4-.4-.7-.4s-.5,.1-.7,.4c-.2,.3-.3,.9-.3,1.7Z"/></g><g><path d="M141.1,164.7v.6h-3.3c0-.1,0-.3,0-.4,0-.2,.2-.4,.4-.7,.2-.2,.5-.5,.8-.8,.5-.4,.9-.8,1.1-1.1,.2-.3,.3-.5,.3-.7s0-.4-.3-.6-.4-.3-.7-.3-.5,0-.7,.3-.3,.4-.3,.7h-.6c0-.5,.2-.9,.5-1.1,.3-.2,.7-.4,1.1-.4s.9,.1,1.1,.4,.4,.6,.4,1,0,.4-.1,.6-.2,.4-.4,.6c-.2,.2-.5,.5-.9,.9-.4,.3-.6,.5-.7,.6-.1,.1-.2,.2-.3,.3h2.5Z"/><path d="M142.1,165.3v-.7h.7v.7h-.7Z"/><path d="M145.7,165.3v-1.2h-2.2v-.6l2.3-3.2h.5v3.2h.7v.6h-.7v1.2h-.6Zm0-1.8v-2.3l-1.6,2.3h1.6Z"/></g><g><path d="M156.8,149.9h.6c0,.3,.2,.5,.4,.7,.2,.2,.4,.2,.6,.2s.5-.1,.7-.3c.2-.2,.3-.4,.3-.7s0-.5-.3-.7c-.2-.2-.4-.3-.7-.3s-.3,0-.4,0v-.5c.1,0,.1,0,.2,0,.3,0,.5,0,.7-.2s.3-.3,.3-.6,0-.4-.2-.6-.3-.2-.6-.2-.4,0-.6,.2-.3,.4-.3,.7h-.6c0-.5,.2-.8,.5-1.1,.3-.2,.6-.3,1-.3s.5,0,.8,.2c.2,.1,.4,.3,.5,.5,.1,.2,.2,.4,.2,.6s0,.4-.2,.6-.3,.3-.5,.4c.3,0,.5,.2,.7,.4s.2,.5,.2,.8-.2,.8-.5,1.1-.7,.5-1.2,.5-.8-.1-1.1-.4-.5-.6-.5-1Z"/><path d="M161,151.3v-.7h.7v.7h-.7Z"/><path d="M162.6,149.9h.6c0,.3,.2,.5,.4,.7,.2,.2,.4,.2,.6,.2s.5-.1,.7-.3c.2-.2,.3-.4,.3-.7s0-.5-.3-.7c-.2-.2-.4-.3-.7-.3s-.3,0-.4,0v-.5c.1,0,.1,0,.2,0,.3,0,.5,0,.7-.2s.3-.3,.3-.6,0-.4-.2-.6-.3-.2-.6-.2-.4,0-.6,.2-.3,.4-.3,.7h-.6c0-.5,.2-.8,.5-1.1,.3-.2,.6-.3,1-.3s.5,0,.8,.2c.2,.1,.4,.3,.5,.5,.1,.2,.2,.4,.2,.6s0,.4-.2,.6-.3,.3-.5,.4c.3,0,.5,.2,.7,.4s.2,.5,.2,.8-.2,.8-.5,1.1-.7,.5-1.2,.5-.8-.1-1.1-.4-.5-.6-.5-1Z"/></g><path d="M188.3,195.5v-.5h7v.5h-7Z"/><path d="M241,195.7v-.5h7v.5h-7Z"/><path d="M402.3,196.5v-.5h7v.5h-7Z"/><g><path d="M211.5,180.8h-.6v-3.9c-.1,.1-.3,.3-.6,.4-.2,.1-.5,.2-.6,.3v-.6c.3-.2,.6-.4,.9-.6s.4-.5,.5-.7h.4v5Z"/><path d="M213.4,180.8v-.7h.7v.7h-.7Z"/><path d="M217.3,180.8h-.6v-3.9c-.1,.1-.3,.3-.6,.4-.2,.1-.5,.2-.6,.3v-.6c.3-.2,.6-.4,.9-.6s.4-.5,.5-.7h.4v5Z"/></g><path d="M266,193.2l.3-1.5h-.6v-.5h.7l.3-1.2h-.9v-.5h1l.3-1.5h.5l-.3,1.5h1.1l.3-1.5h.5l-.3,1.5h.6v.5h-.7l-.3,1.2h1v.5h-1.1l-.3,1.5h-.5l.3-1.5h-1.1l-.3,1.5h-.5Zm.9-2h1.1l.3-1.2h-1.1l-.3,1.2Z"/><g><path d="M299.9,181.4h-.6v-3.9c-.1,.1-.3,.3-.6,.4s-.5,.2-.6,.3v-.6c.3-.2,.6-.4,.9-.6,.3-.2,.4-.5,.5-.7h.4v5Z"/><path d="M301.8,181.4v-.7h.7v.7h-.7Z"/><path d="M305.7,181.4h-.6v-3.9c-.1,.1-.3,.3-.6,.4s-.5,.2-.6,.3v-.6c.3-.2,.6-.4,.9-.6,.3-.2,.4-.5,.5-.7h.4v5Z"/></g><g><path d="M317.8,182.4h-.6v-3.9c-.1,.1-.3,.3-.6,.4s-.5,.2-.6,.3v-.6c.3-.2,.6-.4,.9-.6,.3-.2,.4-.5,.5-.7h.4v5Z"/><path d="M319.8,182.4v-.7h.7v.7h-.7Z"/><path d="M323.7,182.4h-.6v-3.9c-.1,.1-.3,.3-.6,.4s-.5,.2-.6,.3v-.6c.3-.2,.6-.4,.9-.6,.3-.2,.4-.5,.5-.7h.4v5Z"/></g><g><path d="M422.2,183.3c0-.6,0-1.1,.2-1.4,.1-.4,.3-.6,.5-.8s.5-.3,.9-.3,.5,0,.7,.2c.2,.1,.4,.3,.5,.5,.1,.2,.2,.5,.3,.7,0,.3,.1,.7,.1,1.2s0,1.1-.2,1.4c-.1,.4-.3,.6-.5,.8-.2,.2-.5,.3-.9,.3s-.9-.2-1.1-.5c-.3-.4-.5-1.1-.5-2Zm.6,0c0,.8,0,1.4,.3,1.6,.2,.3,.4,.4,.7,.4s.5-.1,.7-.4,.3-.8,.3-1.6,0-1.4-.3-1.6-.4-.4-.7-.4-.5,.1-.7,.4c-.2,.3-.3,.9-.3,1.7Z"/><path d="M426.4,185.8v-.7h.7v.7h-.7Z"/><path d="M428.1,181.5v-.6h3.2v.5c-.3,.3-.6,.8-.9,1.4s-.6,1.1-.7,1.7c-.1,.4-.2,.9-.2,1.4h-.6c0-.4,0-.9,.2-1.4s.4-1.1,.6-1.6c.3-.5,.6-1,.9-1.3h-2.5Z"/></g><g><path d="M457.8,189.3c0-.6,0-1.1,.2-1.4,.1-.4,.3-.6,.5-.8s.5-.3,.9-.3,.5,0,.7,.2c.2,.1,.4,.3,.5,.5,.1,.2,.2,.5,.3,.7,0,.3,.1,.7,.1,1.2s0,1.1-.2,1.4c-.1,.4-.3,.6-.5,.8-.2,.2-.5,.3-.9,.3s-.9-.2-1.1-.5c-.3-.4-.5-1.1-.5-2Zm.6,0c0,.8,0,1.4,.3,1.6,.2,.3,.4,.4,.7,.4s.5-.1,.7-.4,.3-.8,.3-1.6,0-1.4-.3-1.6-.4-.4-.7-.4-.5,.1-.7,.4c-.2,.3-.3,.9-.3,1.7Z"/><path d="M462,191.7v-.7h.7v.7h-.7Z"/><path d="M465.6,191.7v-1.2h-2.2v-.6l2.3-3.2h.5v3.2h.7v.6h-.7v1.2h-.6Zm0-1.8v-2.3l-1.6,2.3h1.6Z"/></g><g><path d="M474.7,187.3c0-.6,0-1.1,.2-1.4,.1-.4,.3-.6,.5-.8s.5-.3,.9-.3,.5,0,.7,.2c.2,.1,.4,.3,.5,.5,.1,.2,.2,.5,.3,.7,0,.3,.1,.7,.1,1.2s0,1.1-.2,1.4c-.1,.4-.3,.6-.5,.8-.2,.2-.5,.3-.9,.3s-.9-.2-1.1-.5c-.3-.4-.5-1.1-.5-2Zm.6,0c0,.8,0,1.4,.3,1.6,.2,.3,.4,.4,.7,.4s.5-.1,.7-.4,.3-.8,.3-1.6,0-1.4-.3-1.6-.4-.4-.7-.4-.5,.1-.7,.4c-.2,.3-.3,.9-.3,1.7Z"/><path d="M478.9,189.7v-.7h.7v.7h-.7Z"/><path d="M480.5,188.4h.6c0,.3,.2,.5,.3,.7,.2,.2,.4,.2,.6,.2s.5-.1,.8-.3,.3-.5,.3-.9,0-.6-.3-.8-.5-.3-.8-.3-.4,0-.5,.1c-.2,0-.3,.2-.4,.4h-.6l.5-2.6h2.5v.6h-2l-.3,1.3c.3-.2,.6-.3,.9-.3s.8,.2,1.1,.5,.5,.7,.5,1.2-.1,.8-.4,1.2c-.3,.4-.8,.6-1.3,.6s-.8-.1-1.1-.4-.5-.6-.5-1Z"/></g><g><path d="M289.9,208.6l1.9-5h.7l2.1,5h-.8l-.6-1.5h-2.1l-.6,1.5h-.7Zm1.4-2.1h1.7l-.5-1.4c-.2-.4-.3-.8-.4-1,0,.3-.2,.6-.3,1l-.5,1.5Z"/><path d="M294.8,207.5h.6c0,.1,.1,.3,.3,.5,.2,.1,.4,.2,.7,.2s.5,0,.6-.2c.1-.1,.2-.3,.2-.4s0-.2-.2-.3c0,0-.3-.1-.6-.2-.5-.1-.8-.2-.9-.3-.2,0-.3-.2-.4-.3,0-.1-.1-.3-.1-.5s0-.3,.1-.4c0-.1,.2-.3,.3-.3,0,0,.2-.1,.4-.2,.2,0,.3,0,.5,0,.3,0,.5,0,.8,.1,.2,0,.4,.2,.5,.3s.2,.3,.2,.6h-.6c0-.1-.1-.3-.2-.4s-.3-.2-.6-.2-.5,0-.6,.1c-.1,0-.2,.2-.2,.3s0,.2,0,.2c0,0,.1,.1,.2,.2,0,0,.2,0,.5,.2,.4,.1,.7,.2,.9,.3,.2,0,.3,.2,.4,.3,0,.1,.1,.3,.1,.5s0,.4-.2,.6c-.1,.2-.3,.3-.5,.4-.2,0-.5,.1-.8,.1-.5,0-.8,0-1.1-.3s-.4-.5-.5-.9Z"/><path d="M298.6,204.3v-.7h.6v.7h-.6Zm0,4.3v-3.6h.6v3.6h-.6Z"/><path d="M302.5,208.1c-.2,.2-.4,.3-.7,.4-.2,0-.4,.1-.7,.1-.4,0-.7,0-.9-.3-.2-.2-.3-.4-.3-.7s0-.3,.1-.5c0-.1,.2-.3,.3-.4s.3-.2,.4-.2c.1,0,.3,0,.5,0,.5,0,.9-.1,1.1-.2,0,0,0-.1,0-.2,0-.3,0-.4-.2-.5-.2-.1-.4-.2-.7-.2s-.5,0-.6,.2c-.1,.1-.2,.3-.3,.5h-.6c0-.3,.1-.5,.3-.7,.1-.2,.3-.3,.5-.4,.2,0,.5-.1,.8-.1s.6,0,.8,.1c.2,0,.3,.2,.4,.3,0,.1,.2,.2,.2,.4,0,.1,0,.3,0,.6v.8c0,.6,0,.9,0,1.1,0,.2,0,.3,.2,.4h-.6c0-.1-.1-.3-.1-.4Zm0-1.4c-.2,0-.6,.2-1,.2-.3,0-.4,0-.5,.1-.1,0-.2,.1-.2,.2,0,0,0,.2,0,.3,0,.2,0,.3,.2,.4s.3,.2,.5,.2,.4,0,.6-.2c.2-.1,.3-.2,.4-.4,0-.1,0-.3,0-.6v-.2Z"/><path d="M304,208.6v-3.6h.6v.5c.3-.4,.7-.6,1.2-.6s.4,0,.6,.1,.3,.2,.4,.3c0,.1,.2,.3,.2,.5,0,.1,0,.3,0,.6v2.2h-.6v-2.2c0-.3,0-.4,0-.6,0-.1-.1-.2-.3-.3-.1,0-.3-.1-.4-.1-.3,0-.5,0-.7,.2-.2,.2-.3,.5-.3,.9v2h-.6Z"/><path d="M307.5,208.7l1.5-5.2h.5l-1.4,5.2h-.5Z"/><path d="M309.9,208.6v-5h1.9c.3,0,.6,0,.8,0,.2,0,.5,.1,.6,.2,.2,.1,.3,.3,.4,.5s.2,.4,.2,.7c0,.4-.1,.8-.4,1.1-.3,.3-.8,.4-1.5,.4h-1.3v2h-.7Zm.7-2.6h1.3c.4,0,.7,0,.9-.2,.2-.2,.3-.4,.3-.7s0-.4-.2-.5c-.1-.1-.2-.2-.4-.3-.1,0-.3,0-.6,0h-1.3v1.8Z"/><path d="M316.9,208.1c-.2,.2-.4,.3-.7,.4s-.4,.1-.7,.1c-.4,0-.7,0-.9-.3s-.3-.4-.3-.7,0-.3,.1-.5,.2-.3,.3-.4,.3-.2,.4-.2c.1,0,.3,0,.5,0,.5,0,.9-.1,1.1-.2,0,0,0-.1,0-.2,0-.3,0-.4-.2-.5-.2-.1-.4-.2-.7-.2s-.5,0-.6,.2c-.1,.1-.2,.3-.3,.5h-.6c0-.3,.1-.5,.3-.7,.1-.2,.3-.3,.5-.4,.2,0,.5-.1,.8-.1s.6,0,.8,.1c.2,0,.3,.2,.4,.3,0,.1,.2,.2,.2,.4,0,.1,0,.3,0,.6v.8c0,.6,0,.9,0,1.1,0,.2,0,.3,.2,.4h-.6c0-.1-.1-.3-.1-.4Zm0-1.4c-.2,0-.6,.2-1,.2-.3,0-.4,0-.5,.1s-.2,.1-.2,.2c0,0,0,.2,0,.3,0,.2,0,.3,.2,.4s.3,.2,.5,.2,.4,0,.6-.2c.2-.1,.3-.2,.4-.4,0-.1,0-.3,0-.6v-.2Z"/><path d="M320.8,207.2h.6c0,.5-.2,.8-.5,1.1s-.6,.4-1,.4-.9-.2-1.2-.5-.5-.8-.5-1.4,0-.7,.2-1,.3-.5,.6-.7,.6-.2,.9-.2,.7,0,1,.3c.3,.2,.4,.5,.5,.8h-.6c0-.2-.2-.3-.3-.5s-.3-.2-.5-.2c-.3,0-.6,.1-.8,.3s-.3,.6-.3,1.1,0,.8,.3,1.1c.2,.2,.4,.3,.7,.3s.4,0,.6-.2,.3-.4,.3-.7Z"/><path d="M321.9,204.3v-.7h.6v.7h-.6Zm0,4.3v-3.6h.6v3.6h-.6Z"/><path d="M323.6,208.6v-3.2h-.5v-.5h.5v-.4c0-.2,0-.4,0-.5,0-.2,.2-.3,.3-.4s.4-.1,.6-.1,.4,0,.6,0v.5c-.2,0-.3,0-.5,0-.2,0-.3,0-.4,.1,0,0-.1,.2-.1,.4v.3h.7v.5h-.7v3.2h-.6Z"/><path d="M325.4,204.3v-.7h.6v.7h-.6Zm0,4.3v-3.6h.6v3.6h-.6Z"/><path d="M329.3,207.2h.6c0,.5-.2,.8-.5,1.1s-.6,.4-1,.4-.9-.2-1.2-.5-.5-.8-.5-1.4,0-.7,.2-1,.3-.5,.6-.7,.6-.2,.9-.2,.7,0,1,.3c.3,.2,.4,.5,.5,.8h-.6c0-.2-.2-.3-.3-.5s-.3-.2-.5-.2c-.3,0-.6,.1-.8,.3s-.3,.6-.3,1.1,0,.8,.3,1.1c.2,.2,.4,.3,.7,.3s.4,0,.6-.2,.3-.4,.3-.7Z"/><path d="M299.2,217v-5h.7v5h-.7Z"/><path d="M300.7,215.9h.6c0,.1,.1,.3,.3,.5s.4,.2,.7,.2,.5,0,.6-.2c.1-.1,.2-.3,.2-.4s0-.2-.2-.3c0,0-.3-.1-.6-.2-.5-.1-.8-.2-.9-.3-.2,0-.3-.2-.4-.3s-.1-.3-.1-.5,0-.3,.1-.4c0-.1,.2-.3,.3-.3,0,0,.2-.1,.4-.2,.2,0,.3,0,.5,0,.3,0,.5,0,.8,.1,.2,0,.4,.2,.5,.3s.2,.3,.2,.6h-.6c0-.1-.1-.3-.2-.4-.1-.1-.3-.2-.6-.2s-.5,0-.6,.1c-.1,0-.2,.2-.2,.3s0,.2,0,.2c0,0,.1,.1,.2,.2,0,0,.2,0,.5,.2,.4,.1,.7,.2,.9,.3,.2,0,.3,.2,.4,.3,0,.1,.1,.3,.1,.5s0,.4-.2,.6c-.1,.2-.3,.3-.5,.4-.2,0-.5,.1-.8,.1-.5,0-.8,0-1.1-.3-.2-.2-.4-.5-.5-.9Z"/><path d="M304.4,217v-5h.6v5h-.6Z"/><path d="M308.3,216.5c-.2,.2-.4,.3-.7,.4s-.4,.1-.7,.1c-.4,0-.7,0-.9-.3-.2-.2-.3-.4-.3-.7s0-.3,.1-.5,.2-.3,.3-.4c.1,0,.3-.2,.4-.2,.1,0,.3,0,.5,0,.5,0,.9-.1,1.1-.2,0,0,0-.1,0-.2,0-.3,0-.4-.2-.5-.2-.1-.4-.2-.7-.2s-.5,0-.6,.2c-.1,.1-.2,.3-.3,.5h-.6c0-.3,.1-.5,.3-.7,.1-.2,.3-.3,.5-.4,.2,0,.5-.1,.8-.1s.6,0,.8,.1c.2,0,.3,.2,.4,.3,0,.1,.2,.2,.2,.4,0,.1,0,.3,0,.6v.8c0,.6,0,.9,0,1.1,0,.2,0,.3,.2,.4h-.6c0-.1-.1-.3-.1-.4Zm0-1.4c-.2,0-.6,.2-1,.2-.3,0-.4,0-.5,.1-.1,0-.2,.1-.2,.2,0,0,0,.2,0,.3,0,.2,0,.3,.2,.4,.1,.1,.3,.2,.5,.2s.4,0,.6-.2c.2-.1,.3-.2,.4-.4,0-.1,0-.3,0-.6v-.2Z"/><path d="M309.9,217v-3.6h.6v.5c.3-.4,.7-.6,1.2-.6s.4,0,.6,.1c.2,0,.3,.2,.4,.3,0,.1,.2,.3,.2,.5,0,.1,0,.3,0,.6v2.2h-.6v-2.2c0-.3,0-.4,0-.6,0-.1-.1-.2-.3-.3-.1,0-.3-.1-.4-.1-.3,0-.5,0-.7,.2s-.3,.5-.3,.9v2h-.6Z"/><path d="M316.1,217v-.5c-.2,.4-.6,.5-1,.5s-.6,0-.8-.2c-.2-.2-.4-.4-.6-.7-.1-.3-.2-.6-.2-1s0-.7,.2-1c.1-.3,.3-.5,.5-.7s.5-.2,.8-.2,.4,0,.6,.1,.3,.2,.4,.4v-1.8h.6v5h-.6Zm-1.9-1.8c0,.5,0,.8,.3,1,.2,.2,.4,.3,.7,.3s.5-.1,.7-.3c.2-.2,.3-.6,.3-1s0-.9-.3-1.1-.4-.3-.7-.3-.5,.1-.7,.3-.3,.6-.3,1.1Z"/><path d="M320.1,215.8h.6c-.1,.5-.3,.7-.6,.9-.3,.2-.6,.3-1,.3s-1-.2-1.3-.5c-.3-.3-.5-.8-.5-1.4s.2-1.1,.5-1.4,.7-.5,1.2-.5,.9,.2,1.2,.5,.5,.8,.5,1.4,0,0,0,.2h-2.7c0,.4,.1,.7,.3,.9s.5,.3,.8,.3,.4,0,.6-.2c.2-.1,.3-.3,.4-.6Zm-2-1h2c0-.3-.1-.5-.2-.7-.2-.2-.5-.4-.8-.4s-.5,0-.7,.3-.3,.4-.3,.8Z"/><path d="M321.5,217v-3.6h.6v.6c.1-.3,.3-.4,.4-.5,.1,0,.3-.1,.4-.1,.2,0,.4,0,.6,.2l-.2,.6c-.2,0-.3-.1-.5-.1s-.3,0-.4,.1c-.1,0-.2,.2-.2,.3,0,.2-.1,.5-.1,.7v1.9h-.6Z"/></g><g><path d="M351.2,189.2c0-.6,0-1.1,.2-1.4,.1-.4,.3-.6,.5-.8s.5-.3,.9-.3,.5,0,.7,.2c.2,.1,.4,.3,.5,.5,.1,.2,.2,.5,.3,.7,0,.3,.1,.7,.1,1.2s0,1.1-.2,1.4c-.1,.4-.3,.6-.5,.8-.2,.2-.5,.3-.9,.3s-.9-.2-1.1-.5c-.3-.4-.5-1.1-.5-2Zm.6,0c0,.8,0,1.4,.3,1.6,.2,.3,.4,.4,.7,.4s.5-.1,.7-.4,.3-.8,.3-1.6,0-1.4-.3-1.6-.4-.4-.7-.4-.5,.1-.7,.4c-.2,.3-.3,.9-.3,1.7Z"/><path d="M355.5,191.7v-.7h.7v.7h-.7Z"/><path d="M360.3,191.1v.6h-3.3c0-.1,0-.3,0-.4,0-.2,.2-.4,.4-.7s.5-.5,.8-.8c.5-.4,.9-.8,1.1-1.1,.2-.3,.3-.5,.3-.7s0-.4-.3-.6c-.2-.2-.4-.3-.7-.3s-.5,0-.7,.3-.3,.4-.3,.7h-.6c0-.5,.2-.9,.5-1.1,.3-.2,.7-.4,1.1-.4s.9,.1,1.1,.4,.4,.6,.4,1,0,.4-.1,.6-.2,.4-.4,.6-.5,.5-.9,.9c-.4,.3-.6,.5-.7,.6-.1,.1-.2,.2-.3,.3h2.5Z"/></g><g><path d="M369.2,190.2c0-.6,0-1.1,.2-1.4,.1-.4,.3-.6,.5-.8s.5-.3,.9-.3,.5,0,.7,.2c.2,.1,.4,.3,.5,.5,.1,.2,.2,.5,.3,.7,0,.3,.1,.7,.1,1.2s0,1.1-.2,1.4c-.1,.4-.3,.6-.5,.8-.2,.2-.5,.3-.9,.3s-.9-.2-1.1-.5c-.3-.4-.5-1.1-.5-2Zm.6,0c0,.8,0,1.4,.3,1.6,.2,.3,.4,.4,.7,.4s.5-.1,.7-.4,.3-.8,.3-1.6,0-1.4-.3-1.6-.4-.4-.7-.4-.5,.1-.7,.4c-.2,.3-.3,.9-.3,1.7Z"/><path d="M373.4,192.7v-.7h.7v.7h-.7Z"/><path d="M377.3,192.7h-.6v-3.9c-.1,.1-.3,.3-.6,.4s-.5,.2-.6,.3v-.6c.3-.2,.6-.4,.9-.6,.3-.2,.4-.5,.5-.7h.4v5Z"/></g><rect class="d" x="27.2" y="59.4" width="17.7" height="139.6"/><rect class="c" x="44.9" y="94.7" width="17.7" height="104.3"/><rect class="d" x="80.4" y="166.3" width="17.7" height="32.7"/><rect class="c" x="98.1" y="173.3" width="17.7" height="25.7"/><rect class="d" x="133.6" y="168.8" width="17.7" height="30.3"/><rect class="c" x="151.3" y="156" width="17.7" height="43.1"/><rect class="c" x="204.6" y="184.9" width="17.7" height="14.2"/><rect class="c" x="257.8" y="198.5" width="17.7" height=".6"/><rect class="d" x="293.2" y="184.4" width="17.7" height="14.7"/><rect class="c" x="311" y="184.3" width="17.7" height="14.7"/><rect class="d" x="346.5" y="196.6" width="17.7" height="2.4"/><rect class="c" x="364.2" y="197.7" width="17.7" height="1.4"/><rect class="c" x="417.4" y="190.4" width="17.7" height="8.6"/><rect class="d" x="452.9" y="194.2" width="17.7" height="4.8"/><rect class="c" x="470.6" y="193" width="17.7" height="6"/></svg>