<?xml version="1.0" encoding="UTF-8"?><svg id="a" xmlns="http://www.w3.org/2000/svg" viewBox="0 0 496.8 254.4"><defs><style>.b{fill:#fff;}.c{fill:#231f20;}.d{fill:#404040;}.e{stroke-miterlimit:2;}.e,.f{fill:#d8c0dd;}.e,.f,.g,.h,.i{stroke:#577180;}.e,.f,.h,.i{stroke-width:.5px;}.j{stroke:#404040;stroke-width:.8px;}.j,.f,.g,.h,.i{stroke-miterlimit:10;}.j,.g,.k,.i{fill:none;}.g{stroke-width:.8px;}.h{fill:#582c7c;}.k{stroke:#cccbc9;stroke-dasharray:0 0 8 4;stroke-linecap:round;stroke-linejoin:round;stroke-width:.2px;}</style></defs><path class="k" d="M30.2,180.2H494.1M30.2,165.2H494.1M30.2,150.2H494.1M30.2,135.2H494.1M30.2,120.2H494.1M30.2,105.2H494.1M30.2,90.2H494.1M30.2,75.2H494.1M30.2,60.2H494.1M30.2,45.2H494.1M30.2,30.2H494.1M30.2,15.2H494.1"/><line class="i" x1="30.2" y1="195.2" x2="30.2" y2="15.2"/><line class="i" x1="30.2" y1="195.2" x2="494.1" y2="195.2"/><g><line class="j" x1="55.5" y1="156.3" x2="55.5" y2="166.5"/><polygon class="d" points="53.3 164.8 55.5 165.8 57.7 164.8 55.5 170 53.3 164.8"/></g><g><line class="j" x1="81.2" y1="148.7" x2="81.2" y2="163.4"/><polygon class="d" points="79.1 161.8 81.2 162.7 83.4 161.8 81.2 166.9 79.1 161.8"/></g><g><line class="j" x1="132.7" y1="81.8" x2="132.7" y2="95.5"/><polygon class="d" points="130.6 93.8 132.7 94.7 134.9 93.8 132.7 99 130.6 93.8"/></g><g><line class="j" x1="158.5" y1="63.6" x2="158.5" y2="77.3"/><polygon class="d" points="156.3 75.6 158.5 76.5 160.7 75.6 158.5 80.8 156.3 75.6"/></g><g><line class="j" x1="210" y1="125.1" x2="210" y2="136.5"/><polygon class="d" points="207.8 134.9 210 135.8 212.2 134.9 210 140 207.8 134.9"/></g><g><line class="j" x1="235.7" y1="117.3" x2="235.7" y2="135"/><polygon class="d" points="233.6 133.3 235.7 134.2 237.9 133.3 235.7 138.5 233.6 133.3"/></g><g><line class="j" x1="287.3" y1="171.7" x2="287.3" y2="181.7"/><polygon class="d" points="285.1 180.1 287.3 181 289.4 180.1 287.3 185.2 285.1 180.1"/></g><g><line class="j" x1="313" y1="164.7" x2="313" y2="180.1"/><polygon class="d" points="310.8 178.5 313 179.4 315.2 178.5 313 183.6 310.8 178.5"/></g><g><line class="j" x1="364.5" y1="129" x2="364.5" y2="141.5"/><polygon class="d" points="362.3 139.8 364.5 140.7 366.7 139.8 364.5 145 362.3 139.8"/></g><g><line class="j" x1="390.3" y1="123" x2="390.3" y2="136.6"/><polygon class="d" points="388.1 135 390.3 135.9 392.4 135 390.3 140.1 388.1 135"/></g><g><line class="j" x1="441.8" y1="128.2" x2="441.8" y2="141.8"/><polygon class="d" points="439.6 140.2 441.8 141.1 443.9 140.2 441.8 145.4 439.6 140.2"/></g><g><line class="j" x1="467.5" y1="134.8" x2="467.5" y2="143.5"/><polygon class="d" points="465.3 141.8 467.5 142.7 469.7 141.8 467.5 147 465.3 141.8"/></g><line class="g" x1="44.3" y1="214.6" x2="251.1" y2="214.6"/><line class="g" x1="275.9" y1="214.6" x2="482.1" y2="214.6"/><g><path d="M58.4,204.7v-5h1.9c.3,0,.6,0,.8,0,.2,0,.5,.1,.6,.2,.2,.1,.3,.3,.4,.5,.1,.2,.2,.4,.2,.7,0,.4-.1,.8-.4,1.1-.3,.3-.8,.4-1.5,.4h-1.3v2h-.7Zm.7-2.6h1.3c.4,0,.7,0,.9-.2s.3-.4,.3-.7,0-.4-.2-.5c-.1-.1-.2-.2-.4-.3-.1,0-.3,0-.6,0h-1.3v1.8Z"/><path d="M65.4,204.7v-.5c-.3,.4-.7,.6-1.2,.6s-.4,0-.6-.1c-.2,0-.3-.2-.4-.3,0-.1-.2-.3-.2-.5,0-.1,0-.3,0-.6v-2.2h.6v2c0,.3,0,.5,0,.6,0,.2,.1,.3,.2,.4s.3,.1,.5,.1,.4,0,.5-.1c.2,0,.3-.2,.3-.4,0-.2,.1-.4,.1-.7v-1.9h.6v3.6h-.6Z"/><path d="M67.5,204.7h-.6v-5h.6v1.8c.3-.3,.6-.5,1-.5s.4,0,.6,.1c.2,0,.4,.2,.5,.4,.1,.2,.2,.4,.3,.6s.1,.5,.1,.7c0,.6-.2,1.1-.5,1.4s-.7,.5-1.1,.5-.8-.2-1-.5v.5Zm0-1.8c0,.4,0,.7,.2,.9,.2,.3,.5,.5,.8,.5s.5-.1,.7-.4c.2-.2,.3-.6,.3-1s0-.8-.3-1-.4-.3-.7-.3-.5,.1-.7,.4c-.2,.2-.3,.6-.3,1Z"/><path d="M70.8,204.7v-5h.6v5h-.6Z"/><path d="M72.3,200.4v-.7h.6v.7h-.6Zm0,4.3v-3.6h.6v3.6h-.6Z"/><path d="M76.3,203.4h.6c0,.5-.2,.8-.5,1.1-.3,.2-.6,.4-1,.4s-.9-.2-1.2-.5c-.3-.3-.5-.8-.5-1.4s0-.7,.2-1,.3-.5,.6-.7c.3-.1,.6-.2,.9-.2s.7,0,1,.3c.3,.2,.4,.5,.5,.8h-.6c0-.2-.2-.3-.3-.5-.1-.1-.3-.2-.5-.2-.3,0-.6,.1-.8,.3s-.3,.6-.3,1.1,0,.8,.3,1.1,.4,.3,.7,.3,.4,0,.6-.2,.3-.4,.3-.7Z"/></g><g><path d="M119.7,204.7v-5h1.9c.3,0,.6,0,.8,0,.2,0,.5,.1,.6,.2,.2,.1,.3,.3,.4,.5,.1,.2,.2,.4,.2,.7,0,.4-.1,.8-.4,1.1-.3,.3-.8,.4-1.5,.4h-1.3v2h-.7Zm.7-2.6h1.3c.4,0,.7,0,.9-.2s.3-.4,.3-.7,0-.4-.2-.5c-.1-.1-.2-.2-.4-.3-.1,0-.3,0-.6,0h-1.3v1.8Z"/><path d="M124.2,204.7v-3.6h.6v.6c.1-.3,.3-.4,.4-.5s.3-.1,.4-.1c.2,0,.4,0,.6,.2l-.2,.6c-.2,0-.3-.1-.5-.1s-.3,0-.4,.1c-.1,0-.2,.2-.2,.3,0,.2-.1,.5-.1,.7v1.9h-.6Z"/><path d="M126.6,200.4v-.7h.6v.7h-.6Zm0,4.3v-3.6h.6v3.6h-.6Z"/><path d="M129.1,204.7l-1.4-3.6h.6l.8,2.2c0,.2,.2,.5,.2,.7,0-.2,.1-.4,.2-.7l.8-2.2h.6l-1.4,3.6h-.6Z"/><path d="M134,204.2c-.2,.2-.4,.3-.7,.4-.2,0-.4,.1-.7,.1-.4,0-.7,0-.9-.3s-.3-.4-.3-.7,0-.3,.1-.5c0-.1,.2-.3,.3-.4,.1,0,.3-.2,.4-.2,.1,0,.3,0,.5,0,.5,0,.9-.1,1.1-.2,0,0,0-.1,0-.2,0-.3,0-.4-.2-.5-.2-.1-.4-.2-.7-.2s-.5,0-.6,.2c-.1,.1-.2,.3-.3,.5h-.6c0-.3,.1-.5,.3-.7,.1-.2,.3-.3,.5-.4s.5-.1,.8-.1,.6,0,.8,.1,.3,.2,.4,.3c0,.1,.2,.2,.2,.4,0,.1,0,.3,0,.6v.8c0,.6,0,.9,0,1.1,0,.2,0,.3,.2,.4h-.6c0-.1-.1-.3-.1-.4Zm0-1.4c-.2,0-.6,.2-1,.2-.3,0-.4,0-.5,.1s-.2,.1-.2,.2c0,0,0,.2,0,.3,0,.2,0,.3,.2,.4,.1,.1,.3,.2,.5,.2s.4,0,.6-.2c.2-.1,.3-.2,.4-.4,0-.1,0-.3,0-.6v-.2Z"/><path d="M136.9,204.1v.5c0,0-.2,0-.4,0-.2,0-.4,0-.5-.1s-.2-.2-.3-.3c0-.1,0-.4,0-.7v-2.1h-.5v-.5h.5v-.9l.6-.4v1.3h.6v.5h-.6v2.1c0,.2,0,.3,0,.3,0,0,0,0,.1,.1,0,0,.1,0,.2,0s.2,0,.3,0Z"/><path d="M140,203.5h.6c-.1,.5-.3,.7-.6,.9s-.6,.3-1,.3-1-.2-1.3-.5c-.3-.3-.5-.8-.5-1.4s.2-1.1,.5-1.4,.7-.5,1.2-.5,.9,.2,1.2,.5,.5,.8,.5,1.4,0,0,0,.2h-2.7c0,.4,.1,.7,.3,.9s.5,.3,.8,.3,.4,0,.6-.2,.3-.3,.4-.6Zm-2-1h2c0-.3-.1-.5-.2-.7-.2-.2-.5-.4-.8-.4s-.5,0-.7,.3c-.2,.2-.3,.4-.3,.8Z"/><path d="M143.3,204.7v-3.6h.6v.5c.3-.4,.7-.6,1.2-.6s.4,0,.6,.1c.2,0,.3,.2,.4,.3s.2,.3,.2,.5c0,.1,0,.3,0,.6v2.2h-.6v-2.2c0-.3,0-.4,0-.6,0-.1-.1-.2-.3-.3-.1,0-.3-.1-.4-.1-.3,0-.5,0-.7,.2-.2,.2-.3,.5-.3,.9v2h-.6Z"/><path d="M147,202.9c0-.7,.2-1.2,.6-1.5,.3-.3,.7-.4,1.1-.4s.9,.2,1.2,.5c.3,.3,.5,.8,.5,1.4s0,.8-.2,1.1c-.1,.3-.3,.5-.6,.6-.3,.1-.6,.2-.9,.2-.5,0-.9-.2-1.2-.5-.3-.3-.5-.8-.5-1.4Zm.6,0c0,.5,.1,.8,.3,1,.2,.2,.5,.3,.8,.3s.6-.1,.8-.3,.3-.6,.3-1.1-.1-.8-.3-1c-.2-.2-.5-.3-.8-.3s-.6,.1-.8,.3-.3,.6-.3,1Z"/><path d="M151.1,204.7v-3.6h.6v.5c.3-.4,.7-.6,1.2-.6s.4,0,.6,.1c.2,0,.3,.2,.4,.3s.2,.3,.2,.5c0,.1,0,.3,0,.6v2.2h-.6v-2.2c0-.3,0-.4,0-.6,0-.1-.1-.2-.3-.3-.1,0-.3-.1-.4-.1-.3,0-.5,0-.7,.2-.2,.2-.3,.5-.3,.9v2h-.6Z"/><path d="M155,206.1v-5h.6v.5c.1-.2,.3-.3,.4-.4s.4-.1,.6-.1,.6,0,.8,.2,.4,.4,.5,.7,.2,.6,.2,1,0,.7-.2,1-.3,.5-.6,.7c-.3,.2-.5,.2-.8,.2s-.4,0-.6-.1c-.2,0-.3-.2-.4-.3v1.8h-.6Zm.6-3.2c0,.5,0,.8,.3,1s.4,.3,.7,.3,.5-.1,.7-.3c.2-.2,.3-.6,.3-1.1s0-.8-.3-1c-.2-.2-.4-.3-.7-.3s-.5,.1-.7,.4c-.2,.2-.3,.6-.3,1.1Z"/><path d="M158.9,204.7v-3.6h.6v.6c.1-.3,.3-.4,.4-.5s.3-.1,.4-.1c.2,0,.4,0,.6,.2l-.2,.6c-.2,0-.3-.1-.5-.1s-.3,0-.4,.1c-.1,0-.2,.2-.2,.3,0,.2-.1,.5-.1,.7v1.9h-.6Z"/><path d="M161,202.9c0-.7,.2-1.2,.6-1.5,.3-.3,.7-.4,1.1-.4s.9,.2,1.2,.5c.3,.3,.5,.8,.5,1.4s0,.8-.2,1.1c-.1,.3-.3,.5-.6,.6-.3,.1-.6,.2-.9,.2-.5,0-.9-.2-1.2-.5-.3-.3-.5-.8-.5-1.4Zm.6,0c0,.5,.1,.8,.3,1,.2,.2,.5,.3,.8,.3s.6-.1,.8-.3,.3-.6,.3-1.1-.1-.8-.3-1c-.2-.2-.5-.3-.8-.3s-.6,.1-.8,.3-.3,.6-.3,1Z"/><path d="M165.2,204.7v-3.2h-.5v-.5h.5v-.4c0-.2,0-.4,0-.5,0-.2,.2-.3,.3-.4,.1,0,.4-.1,.6-.1s.4,0,.6,0v.5c-.2,0-.3,0-.5,0-.2,0-.3,0-.4,.1s-.1,.2-.1,.4v.3h.7v.5h-.7v3.2h-.6Z"/><path d="M167,200.4v-.7h.6v.7h-.6Zm0,4.3v-3.6h.6v3.6h-.6Z"/><path d="M169.9,204.1v.5c0,0-.2,0-.4,0-.2,0-.4,0-.5-.1s-.2-.2-.3-.3c0-.1,0-.4,0-.7v-2.1h-.5v-.5h.5v-.9l.6-.4v1.3h.6v.5h-.6v2.1c0,.2,0,.3,0,.3,0,0,0,0,.1,.1,0,0,.1,0,.2,0s.2,0,.3,0Z"/></g><g><path d="M197.4,204.7v-5h1.9c.3,0,.6,0,.8,0,.2,0,.5,.1,.6,.2,.2,.1,.3,.3,.4,.5,.1,.2,.2,.4,.2,.7,0,.4-.1,.8-.4,1.1-.3,.3-.8,.4-1.5,.4h-1.3v2h-.7Zm.7-2.6h1.3c.4,0,.7,0,.9-.2s.3-.4,.3-.7,0-.4-.2-.5c-.1-.1-.2-.2-.4-.3-.1,0-.3,0-.6,0h-1.3v1.8Z"/><path d="M202,204.7v-3.6h.6v.6c.1-.3,.3-.4,.4-.5s.3-.1,.4-.1c.2,0,.4,0,.6,.2l-.2,.6c-.2,0-.3-.1-.5-.1s-.3,0-.4,.1c-.1,0-.2,.2-.2,.3,0,.2-.1,.5-.1,.7v1.9h-.6Z"/><path d="M204.4,200.4v-.7h.6v.7h-.6Zm0,4.3v-3.6h.6v3.6h-.6Z"/><path d="M206.9,204.7l-1.4-3.6h.6l.8,2.2c0,.2,.2,.5,.2,.7,0-.2,.1-.4,.2-.7l.8-2.2h.6l-1.4,3.6h-.6Z"/><path d="M211.8,204.2c-.2,.2-.4,.3-.7,.4-.2,0-.4,.1-.7,.1-.4,0-.7,0-.9-.3s-.3-.4-.3-.7,0-.3,.1-.5c0-.1,.2-.3,.3-.4,.1,0,.3-.2,.4-.2,.1,0,.3,0,.5,0,.5,0,.9-.1,1.1-.2,0,0,0-.1,0-.2,0-.3,0-.4-.2-.5-.2-.1-.4-.2-.7-.2s-.5,0-.6,.2c-.1,.1-.2,.3-.3,.5h-.6c0-.3,.1-.5,.3-.7,.1-.2,.3-.3,.5-.4s.5-.1,.8-.1,.6,0,.8,.1,.3,.2,.4,.3c0,.1,.2,.2,.2,.4,0,.1,0,.3,0,.6v.8c0,.6,0,.9,0,1.1,0,.2,0,.3,.2,.4h-.6c0-.1-.1-.3-.1-.4Zm0-1.4c-.2,0-.6,.2-1,.2-.3,0-.4,0-.5,.1s-.2,.1-.2,.2c0,0,0,.2,0,.3,0,.2,0,.3,.2,.4,.1,.1,.3,.2,.5,.2s.4,0,.6-.2c.2-.1,.3-.2,.4-.4,0-.1,0-.3,0-.6v-.2Z"/><path d="M214.6,204.1v.5c0,0-.2,0-.4,0-.2,0-.4,0-.5-.1s-.2-.2-.3-.3c0-.1,0-.4,0-.7v-2.1h-.5v-.5h.5v-.9l.6-.4v1.3h.6v.5h-.6v2.1c0,.2,0,.3,0,.3,0,0,0,0,.1,.1,0,0,.1,0,.2,0s.2,0,.3,0Z"/><path d="M217.7,203.5h.6c-.1,.5-.3,.7-.6,.9s-.6,.3-1,.3-1-.2-1.3-.5c-.3-.3-.5-.8-.5-1.4s.2-1.1,.5-1.4,.7-.5,1.2-.5,.9,.2,1.2,.5,.5,.8,.5,1.4,0,0,0,.2h-2.7c0,.4,.1,.7,.3,.9s.5,.3,.8,.3,.4,0,.6-.2,.3-.3,.4-.6Zm-2-1h2c0-.3-.1-.5-.2-.7-.2-.2-.5-.4-.8-.4s-.5,0-.7,.3c-.2,.2-.3,.4-.3,.8Z"/><path d="M221.2,204.7v-3.2h-.5v-.5h.5v-.4c0-.2,0-.4,0-.5,0-.2,.2-.3,.3-.4,.1,0,.4-.1,.6-.1s.4,0,.6,0v.5c-.2,0-.3,0-.5,0-.2,0-.3,0-.4,.1s-.1,.2-.1,.4v.3h.7v.5h-.7v3.2h-.6Z"/><path d="M222.8,202.9c0-.7,.2-1.2,.6-1.5,.3-.3,.7-.4,1.1-.4s.9,.2,1.2,.5c.3,.3,.5,.8,.5,1.4s0,.8-.2,1.1c-.1,.3-.3,.5-.6,.6-.3,.1-.6,.2-.9,.2-.5,0-.9-.2-1.2-.5-.3-.3-.5-.8-.5-1.4Zm.6,0c0,.5,.1,.8,.3,1,.2,.2,.5,.3,.8,.3s.6-.1,.8-.3,.3-.6,.3-1.1-.1-.8-.3-1c-.2-.2-.5-.3-.8-.3s-.6,.1-.8,.3-.3,.6-.3,1Z"/><path d="M226.9,204.7v-3.6h.6v.6c.1-.3,.3-.4,.4-.5s.3-.1,.4-.1c.2,0,.4,0,.6,.2l-.2,.6c-.2,0-.3-.1-.5-.1s-.3,0-.4,.1c-.1,0-.2,.2-.2,.3,0,.2-.1,.5-.1,.7v1.9h-.6Z"/><path d="M229,203.2v-.6h1.9v.6h-1.9Z"/><path d="M231.6,206.1v-5h.6v.5c.1-.2,.3-.3,.4-.4s.4-.1,.6-.1,.6,0,.8,.2,.4,.4,.5,.7,.2,.6,.2,1,0,.7-.2,1-.3,.5-.6,.7c-.3,.2-.5,.2-.8,.2s-.4,0-.6-.1c-.2,0-.3-.2-.4-.3v1.8h-.6Zm.6-3.2c0,.5,0,.8,.3,1s.4,.3,.7,.3,.5-.1,.7-.3c.2-.2,.3-.6,.3-1.1s0-.8-.3-1c-.2-.2-.4-.3-.7-.3s-.5,.1-.7,.4c-.2,.2-.3,.6-.3,1.1Z"/><path d="M235.5,204.7v-3.6h.6v.6c.1-.3,.3-.4,.4-.5s.3-.1,.4-.1c.2,0,.4,0,.6,.2l-.2,.6c-.2,0-.3-.1-.5-.1s-.3,0-.4,.1c-.1,0-.2,.2-.2,.3,0,.2-.1,.5-.1,.7v1.9h-.6Z"/><path d="M237.6,202.9c0-.7,.2-1.2,.6-1.5,.3-.3,.7-.4,1.1-.4s.9,.2,1.2,.5c.3,.3,.5,.8,.5,1.4s0,.8-.2,1.1c-.1,.3-.3,.5-.6,.6-.3,.1-.6,.2-.9,.2-.5,0-.9-.2-1.2-.5-.3-.3-.5-.8-.5-1.4Zm.6,0c0,.5,.1,.8,.3,1,.2,.2,.5,.3,.8,.3s.6-.1,.8-.3,.3-.6,.3-1.1-.1-.8-.3-1c-.2-.2-.5-.3-.8-.3s-.6,.1-.8,.3-.3,.6-.3,1Z"/><path d="M241.9,204.7v-3.2h-.5v-.5h.5v-.4c0-.2,0-.4,0-.5,0-.2,.2-.3,.3-.4,.1,0,.4-.1,.6-.1s.4,0,.6,0v.5c-.2,0-.3,0-.5,0-.2,0-.3,0-.4,.1s-.1,.2-.1,.4v.3h.7v.5h-.7v3.2h-.6Z"/><path d="M243.7,200.4v-.7h.6v.7h-.6Zm0,4.3v-3.6h.6v3.6h-.6Z"/><path d="M246.5,204.1v.5c0,0-.2,0-.4,0-.2,0-.4,0-.5-.1s-.2-.2-.3-.3c0-.1,0-.4,0-.7v-2.1h-.5v-.5h.5v-.9l.6-.4v1.3h.6v.5h-.6v2.1c0,.2,0,.3,0,.3,0,0,0,0,.1,.1,0,0,.1,0,.2,0s.2,0,.3,0Z"/></g><g><path d="M290.6,204.7v-5h1.9c.3,0,.6,0,.8,0,.2,0,.5,.1,.6,.2,.2,.1,.3,.3,.4,.5s.2,.4,.2,.7c0,.4-.1,.8-.4,1.1-.3,.3-.8,.4-1.5,.4h-1.3v2h-.7Zm.7-2.6h1.3c.4,0,.7,0,.9-.2s.3-.4,.3-.7,0-.4-.2-.5c-.1-.1-.2-.2-.4-.3-.1,0-.3,0-.6,0h-1.3v1.8Z"/><path d="M297.6,204.7v-.5c-.3,.4-.7,.6-1.2,.6s-.4,0-.6-.1-.3-.2-.4-.3c0-.1-.2-.3-.2-.5,0-.1,0-.3,0-.6v-2.2h.6v2c0,.3,0,.5,0,.6,0,.2,.1,.3,.2,.4s.3,.1,.5,.1,.4,0,.5-.1c.2,0,.3-.2,.3-.4,0-.2,.1-.4,.1-.7v-1.9h.6v3.6h-.6Z"/><path d="M299.7,204.7h-.6v-5h.6v1.8c.3-.3,.6-.5,1-.5s.4,0,.6,.1c.2,0,.4,.2,.5,.4,.1,.2,.2,.4,.3,.6,0,.2,.1,.5,.1,.7,0,.6-.2,1.1-.5,1.4s-.7,.5-1.1,.5-.8-.2-1-.5v.5Zm0-1.8c0,.4,0,.7,.2,.9,.2,.3,.5,.5,.8,.5s.5-.1,.7-.4c.2-.2,.3-.6,.3-1s0-.8-.3-1c-.2-.2-.4-.3-.7-.3s-.5,.1-.7,.4c-.2,.2-.3,.6-.3,1Z"/><path d="M303,204.7v-5h.6v5h-.6Z"/><path d="M304.5,200.4v-.7h.6v.7h-.6Zm0,4.3v-3.6h.6v3.6h-.6Z"/><path d="M308.5,203.4h.6c0,.5-.2,.8-.5,1.1s-.6,.4-1,.4-.9-.2-1.2-.5-.5-.8-.5-1.4,0-.7,.2-1,.3-.5,.6-.7,.6-.2,.9-.2,.7,0,1,.3c.3,.2,.4,.5,.5,.8h-.6c0-.2-.2-.3-.3-.5s-.3-.2-.5-.2c-.3,0-.6,.1-.8,.3s-.3,.6-.3,1.1,0,.8,.3,1.1c.2,.2,.4,.3,.7,.3s.4,0,.6-.2,.3-.4,.3-.7Z"/></g><g><path d="M352.4,204.7v-5h1.9c.3,0,.6,0,.8,0,.2,0,.5,.1,.6,.2,.2,.1,.3,.3,.4,.5s.2,.4,.2,.7c0,.4-.1,.8-.4,1.1-.3,.3-.8,.4-1.5,.4h-1.3v2h-.7Zm.7-2.6h1.3c.4,0,.7,0,.9-.2s.3-.4,.3-.7,0-.4-.2-.5c-.1-.1-.2-.2-.4-.3-.1,0-.3,0-.6,0h-1.3v1.8Z"/><path d="M356.9,204.7v-3.6h.6v.6c.1-.3,.3-.4,.4-.5,.1,0,.3-.1,.4-.1,.2,0,.4,0,.6,.2l-.2,.6c-.2,0-.3-.1-.5-.1s-.3,0-.4,.1c-.1,0-.2,.2-.2,.3,0,.2-.1,.5-.1,.7v1.9h-.6Z"/><path d="M359.3,200.4v-.7h.6v.7h-.6Zm0,4.3v-3.6h.6v3.6h-.6Z"/><path d="M361.8,204.7l-1.4-3.6h.6l.8,2.2c0,.2,.2,.5,.2,.7,0-.2,.1-.4,.2-.7l.8-2.2h.6l-1.4,3.6h-.6Z"/><path d="M366.7,204.2c-.2,.2-.4,.3-.7,.4s-.4,.1-.7,.1c-.4,0-.7,0-.9-.3s-.3-.4-.3-.7,0-.3,.1-.5,.2-.3,.3-.4,.3-.2,.4-.2c.1,0,.3,0,.5,0,.5,0,.9-.1,1.1-.2,0,0,0-.1,0-.2,0-.3,0-.4-.2-.5-.2-.1-.4-.2-.7-.2s-.5,0-.6,.2c-.1,.1-.2,.3-.3,.5h-.6c0-.3,.1-.5,.3-.7,.1-.2,.3-.3,.5-.4,.2,0,.5-.1,.8-.1s.6,0,.8,.1c.2,0,.3,.2,.4,.3,0,.1,.2,.2,.2,.4,0,.1,0,.3,0,.6v.8c0,.6,0,.9,0,1.1,0,.2,0,.3,.2,.4h-.6c0-.1-.1-.3-.1-.4Zm0-1.4c-.2,0-.6,.2-1,.2-.3,0-.4,0-.5,.1s-.2,.1-.2,.2c0,0,0,.2,0,.3,0,.2,0,.3,.2,.4s.3,.2,.5,.2,.4,0,.6-.2c.2-.1,.3-.2,.4-.4,0-.1,0-.3,0-.6v-.2Z"/><path d="M369.6,204.1v.5c0,0-.2,0-.4,0-.2,0-.4,0-.5-.1s-.2-.2-.3-.3c0-.1,0-.4,0-.7v-2.1h-.5v-.5h.5v-.9l.6-.4v1.3h.6v.5h-.6v2.1c0,.2,0,.3,0,.3s0,0,.1,.1,.1,0,.2,0,.2,0,.3,0Z"/><path d="M372.6,203.5h.6c-.1,.5-.3,.7-.6,.9-.3,.2-.6,.3-1,.3s-1-.2-1.3-.5c-.3-.3-.5-.8-.5-1.4s.2-1.1,.5-1.4,.7-.5,1.2-.5,.9,.2,1.2,.5,.5,.8,.5,1.4,0,0,0,.2h-2.7c0,.4,.1,.7,.3,.9s.5,.3,.8,.3,.4,0,.6-.2c.2-.1,.3-.3,.4-.6Zm-2-1h2c0-.3-.1-.5-.2-.7-.2-.2-.5-.4-.8-.4s-.5,0-.7,.3-.3,.4-.3,.8Z"/><path d="M376,204.7v-3.6h.6v.5c.3-.4,.7-.6,1.2-.6s.4,0,.6,.1,.3,.2,.4,.3,.2,.3,.2,.5c0,.1,0,.3,0,.6v2.2h-.6v-2.2c0-.3,0-.4,0-.6,0-.1-.1-.2-.3-.3-.1,0-.3-.1-.4-.1-.3,0-.5,0-.7,.2s-.3,.5-.3,.9v2h-.6Z"/><path d="M379.7,202.9c0-.7,.2-1.2,.6-1.5,.3-.3,.7-.4,1.1-.4s.9,.2,1.2,.5c.3,.3,.5,.8,.5,1.4s0,.8-.2,1.1c-.1,.3-.3,.5-.6,.6s-.6,.2-.9,.2c-.5,0-.9-.2-1.2-.5s-.5-.8-.5-1.4Zm.6,0c0,.5,.1,.8,.3,1,.2,.2,.5,.3,.8,.3s.6-.1,.8-.3c.2-.2,.3-.6,.3-1.1s-.1-.8-.3-1c-.2-.2-.5-.3-.8-.3s-.6,.1-.8,.3-.3,.6-.3,1Z"/><path d="M383.8,204.7v-3.6h.6v.5c.3-.4,.7-.6,1.2-.6s.4,0,.6,.1,.3,.2,.4,.3,.2,.3,.2,.5c0,.1,0,.3,0,.6v2.2h-.6v-2.2c0-.3,0-.4,0-.6,0-.1-.1-.2-.3-.3-.1,0-.3-.1-.4-.1-.3,0-.5,0-.7,.2s-.3,.5-.3,.9v2h-.6Z"/><path d="M387.7,206.1v-5h.6v.5c.1-.2,.3-.3,.4-.4s.4-.1,.6-.1,.6,0,.8,.2c.2,.2,.4,.4,.5,.7s.2,.6,.2,1,0,.7-.2,1c-.1,.3-.3,.5-.6,.7-.3,.2-.5,.2-.8,.2s-.4,0-.6-.1-.3-.2-.4-.3v1.8h-.6Zm.6-3.2c0,.5,0,.8,.3,1,.2,.2,.4,.3,.7,.3s.5-.1,.7-.3c.2-.2,.3-.6,.3-1.1s0-.8-.3-1-.4-.3-.7-.3-.5,.1-.7,.4c-.2,.2-.3,.6-.3,1.1Z"/><path d="M391.6,204.7v-3.6h.6v.6c.1-.3,.3-.4,.4-.5,.1,0,.3-.1,.4-.1,.2,0,.4,0,.6,.2l-.2,.6c-.2,0-.3-.1-.5-.1s-.3,0-.4,.1c-.1,0-.2,.2-.2,.3,0,.2-.1,.5-.1,.7v1.9h-.6Z"/><path d="M393.7,202.9c0-.7,.2-1.2,.6-1.5,.3-.3,.7-.4,1.1-.4s.9,.2,1.2,.5c.3,.3,.5,.8,.5,1.4s0,.8-.2,1.1c-.1,.3-.3,.5-.6,.6s-.6,.2-.9,.2c-.5,0-.9-.2-1.2-.5s-.5-.8-.5-1.4Zm.6,0c0,.5,.1,.8,.3,1,.2,.2,.5,.3,.8,.3s.6-.1,.8-.3c.2-.2,.3-.6,.3-1.1s-.1-.8-.3-1c-.2-.2-.5-.3-.8-.3s-.6,.1-.8,.3-.3,.6-.3,1Z"/><path d="M397.9,204.7v-3.2h-.5v-.5h.5v-.4c0-.2,0-.4,0-.5,0-.2,.2-.3,.3-.4s.4-.1,.6-.1,.4,0,.6,0v.5c-.2,0-.3,0-.5,0-.2,0-.3,0-.4,.1,0,0-.1,.2-.1,.4v.3h.7v.5h-.7v3.2h-.6Z"/><path d="M399.7,200.4v-.7h.6v.7h-.6Zm0,4.3v-3.6h.6v3.6h-.6Z"/><path d="M402.6,204.1v.5c0,0-.2,0-.4,0-.2,0-.4,0-.5-.1s-.2-.2-.3-.3c0-.1,0-.4,0-.7v-2.1h-.5v-.5h.5v-.9l.6-.4v1.3h.6v.5h-.6v2.1c0,.2,0,.3,0,.3s0,0,.1,.1,.1,0,.2,0,.2,0,.3,0Z"/></g><g><path d="M429.4,204.7v-5h1.9c.3,0,.6,0,.8,0,.2,0,.5,.1,.6,.2,.2,.1,.3,.3,.4,.5s.2,.4,.2,.7c0,.4-.1,.8-.4,1.1-.3,.3-.8,.4-1.5,.4h-1.3v2h-.7Zm.7-2.6h1.3c.4,0,.7,0,.9-.2s.3-.4,.3-.7,0-.4-.2-.5c-.1-.1-.2-.2-.4-.3-.1,0-.3,0-.6,0h-1.3v1.8Z"/><path d="M434,204.7v-3.6h.6v.6c.1-.3,.3-.4,.4-.5,.1,0,.3-.1,.4-.1,.2,0,.4,0,.6,.2l-.2,.6c-.2,0-.3-.1-.5-.1s-.3,0-.4,.1c-.1,0-.2,.2-.2,.3,0,.2-.1,.5-.1,.7v1.9h-.6Z"/><path d="M436.3,200.4v-.7h.6v.7h-.6Zm0,4.3v-3.6h.6v3.6h-.6Z"/><path d="M438.9,204.7l-1.4-3.6h.6l.8,2.2c0,.2,.2,.5,.2,.7,0-.2,.1-.4,.2-.7l.8-2.2h.6l-1.4,3.6h-.6Z"/><path d="M443.7,204.2c-.2,.2-.4,.3-.7,.4s-.4,.1-.7,.1c-.4,0-.7,0-.9-.3s-.3-.4-.3-.7,0-.3,.1-.5,.2-.3,.3-.4,.3-.2,.4-.2c.1,0,.3,0,.5,0,.5,0,.9-.1,1.1-.2,0,0,0-.1,0-.2,0-.3,0-.4-.2-.5-.2-.1-.4-.2-.7-.2s-.5,0-.6,.2c-.1,.1-.2,.3-.3,.5h-.6c0-.3,.1-.5,.3-.7,.1-.2,.3-.3,.5-.4,.2,0,.5-.1,.8-.1s.6,0,.8,.1c.2,0,.3,.2,.4,.3,0,.1,.2,.2,.2,.4,0,.1,0,.3,0,.6v.8c0,.6,0,.9,0,1.1,0,.2,0,.3,.2,.4h-.6c0-.1-.1-.3-.1-.4Zm0-1.4c-.2,0-.6,.2-1,.2-.3,0-.4,0-.5,.1s-.2,.1-.2,.2c0,0,0,.2,0,.3,0,.2,0,.3,.2,.4s.3,.2,.5,.2,.4,0,.6-.2c.2-.1,.3-.2,.4-.4,0-.1,0-.3,0-.6v-.2Z"/><path d="M446.6,204.1v.5c0,0-.2,0-.4,0-.2,0-.4,0-.5-.1s-.2-.2-.3-.3c0-.1,0-.4,0-.7v-2.1h-.5v-.5h.5v-.9l.6-.4v1.3h.6v.5h-.6v2.1c0,.2,0,.3,0,.3s0,0,.1,.1,.1,0,.2,0,.2,0,.3,0Z"/><path d="M449.7,203.5h.6c-.1,.5-.3,.7-.6,.9-.3,.2-.6,.3-1,.3s-1-.2-1.3-.5c-.3-.3-.5-.8-.5-1.4s.2-1.1,.5-1.4,.7-.5,1.2-.5,.9,.2,1.2,.5,.5,.8,.5,1.4,0,0,0,.2h-2.7c0,.4,.1,.7,.3,.9s.5,.3,.8,.3,.4,0,.6-.2c.2-.1,.3-.3,.4-.6Zm-2-1h2c0-.3-.1-.5-.2-.7-.2-.2-.5-.4-.8-.4s-.5,0-.7,.3-.3,.4-.3,.8Z"/><path d="M453.2,204.7v-3.2h-.5v-.5h.5v-.4c0-.2,0-.4,0-.5,0-.2,.2-.3,.3-.4s.4-.1,.6-.1,.4,0,.6,0v.5c-.2,0-.3,0-.5,0-.2,0-.3,0-.4,.1,0,0-.1,.2-.1,.4v.3h.7v.5h-.7v3.2h-.6Z"/><path d="M454.7,202.9c0-.7,.2-1.2,.6-1.5,.3-.3,.7-.4,1.1-.4s.9,.2,1.2,.5c.3,.3,.5,.8,.5,1.4s0,.8-.2,1.1c-.1,.3-.3,.5-.6,.6s-.6,.2-.9,.2c-.5,0-.9-.2-1.2-.5s-.5-.8-.5-1.4Zm.6,0c0,.5,.1,.8,.3,1,.2,.2,.5,.3,.8,.3s.6-.1,.8-.3c.2-.2,.3-.6,.3-1.1s-.1-.8-.3-1c-.2-.2-.5-.3-.8-.3s-.6,.1-.8,.3-.3,.6-.3,1Z"/><path d="M458.9,204.7v-3.6h.6v.6c.1-.3,.3-.4,.4-.5,.1,0,.3-.1,.4-.1,.2,0,.4,0,.6,.2l-.2,.6c-.2,0-.3-.1-.5-.1s-.3,0-.4,.1c-.1,0-.2,.2-.2,.3,0,.2-.1,.5-.1,.7v1.9h-.6Z"/><path d="M461,203.2v-.6h1.9v.6h-1.9Z"/><path d="M463.5,206.1v-5h.6v.5c.1-.2,.3-.3,.4-.4s.4-.1,.6-.1,.6,0,.8,.2c.2,.2,.4,.4,.5,.7s.2,.6,.2,1,0,.7-.2,1c-.1,.3-.3,.5-.6,.7-.3,.2-.5,.2-.8,.2s-.4,0-.6-.1-.3-.2-.4-.3v1.8h-.6Zm.6-3.2c0,.5,0,.8,.3,1,.2,.2,.4,.3,.7,.3s.5-.1,.7-.3c.2-.2,.3-.6,.3-1.1s0-.8-.3-1-.4-.3-.7-.3-.5,.1-.7,.4c-.2,.2-.3,.6-.3,1.1Z"/><path d="M467.4,204.7v-3.6h.6v.6c.1-.3,.3-.4,.4-.5,.1,0,.3-.1,.4-.1,.2,0,.4,0,.6,.2l-.2,.6c-.2,0-.3-.1-.5-.1s-.3,0-.4,.1c-.1,0-.2,.2-.2,.3,0,.2-.1,.5-.1,.7v1.9h-.6Z"/><path d="M469.5,202.9c0-.7,.2-1.2,.6-1.5,.3-.3,.7-.4,1.1-.4s.9,.2,1.2,.5c.3,.3,.5,.8,.5,1.4s0,.8-.2,1.1c-.1,.3-.3,.5-.6,.6s-.6,.2-.9,.2c-.5,0-.9-.2-1.2-.5s-.5-.8-.5-1.4Zm.6,0c0,.5,.1,.8,.3,1,.2,.2,.5,.3,.8,.3s.6-.1,.8-.3c.2-.2,.3-.6,.3-1.1s-.1-.8-.3-1c-.2-.2-.5-.3-.8-.3s-.6,.1-.8,.3-.3,.6-.3,1Z"/><path d="M473.8,204.7v-3.2h-.5v-.5h.5v-.4c0-.2,0-.4,0-.5,0-.2,.2-.3,.3-.4s.4-.1,.6-.1,.4,0,.6,0v.5c-.2,0-.3,0-.5,0-.2,0-.3,0-.4,.1,0,0-.1,.2-.1,.4v.3h.7v.5h-.7v3.2h-.6Z"/><path d="M475.6,200.4v-.7h.6v.7h-.6Zm0,4.3v-3.6h.6v3.6h-.6Z"/><path d="M478.5,204.1v.5c0,0-.2,0-.4,0-.2,0-.4,0-.5-.1s-.2-.2-.3-.3c0-.1,0-.4,0-.7v-2.1h-.5v-.5h.5v-.9l.6-.4v1.3h.6v.5h-.6v2.1c0,.2,0,.3,0,.3s0,0,.1,.1,.1,0,.2,0,.2,0,.3,0Z"/></g><path d="M23.1,194.7c0-.6,0-1.1,.2-1.4,.1-.4,.3-.6,.5-.8,.2-.2,.5-.3,.9-.3s.5,0,.7,.2c.2,.1,.4,.3,.5,.5,.1,.2,.2,.5,.3,.7,0,.3,.1,.7,.1,1.2s0,1.1-.2,1.4c-.1,.4-.3,.6-.5,.8-.2,.2-.5,.3-.9,.3s-.9-.2-1.1-.5c-.3-.4-.5-1.1-.5-2Zm.6,0c0,.8,0,1.4,.3,1.6,.2,.3,.4,.4,.7,.4s.5-.1,.7-.4c.2-.3,.3-.8,.3-1.6s0-1.4-.3-1.6c-.2-.3-.4-.4-.7-.4s-.5,.1-.7,.4c-.2,.3-.3,.9-.3,1.7Z"/><g><path d="M9.5,180.9h.6c0,.3,.2,.5,.3,.7,.2,.2,.4,.2,.6,.2s.5-.1,.8-.3,.3-.5,.3-.9,0-.6-.3-.8c-.2-.2-.5-.3-.8-.3s-.4,0-.5,.1c-.2,0-.3,.2-.4,.4h-.6l.5-2.6h2.5v.6h-2l-.3,1.3c.3-.2,.6-.3,.9-.3s.8,.2,1.1,.5,.5,.7,.5,1.2-.1,.8-.4,1.2c-.3,.4-.8,.6-1.3,.6s-.8-.1-1.1-.4c-.3-.3-.5-.6-.5-1Z"/><path d="M13.7,182.2v-.7h.7v.7c0,.3,0,.5-.1,.6,0,.2-.2,.3-.4,.4l-.2-.3c.1,0,.2-.1,.3-.3,0-.1,0-.3,.1-.5h-.3Z"/><path d="M15.4,179.7c0-.6,0-1.1,.2-1.4,.1-.4,.3-.6,.5-.8,.2-.2,.5-.3,.9-.3s.5,0,.7,.2c.2,.1,.4,.3,.5,.5,.1,.2,.2,.5,.3,.7,0,.3,.1,.7,.1,1.2s0,1.1-.2,1.4c-.1,.4-.3,.6-.5,.8-.2,.2-.5,.3-.9,.3s-.9-.2-1.1-.5c-.3-.4-.5-1.1-.5-2Zm.6,0c0,.8,0,1.4,.3,1.6,.2,.3,.4,.4,.7,.4s.5-.1,.7-.4c.2-.3,.3-.8,.3-1.6s0-1.4-.3-1.6c-.2-.3-.4-.4-.7-.4s-.5,.1-.7,.4c-.2,.3-.3,.9-.3,1.7Z"/><path d="M19.2,179.7c0-.6,0-1.1,.2-1.4,.1-.4,.3-.6,.5-.8,.2-.2,.5-.3,.9-.3s.5,0,.7,.2c.2,.1,.4,.3,.5,.5,.1,.2,.2,.5,.3,.7,0,.3,.1,.7,.1,1.2s0,1.1-.2,1.4c-.1,.4-.3,.6-.5,.8-.2,.2-.5,.3-.9,.3s-.9-.2-1.1-.5c-.3-.4-.5-1.1-.5-2Zm.6,0c0,.8,0,1.4,.3,1.6,.2,.3,.4,.4,.7,.4s.5-.1,.7-.4c.2-.3,.3-.8,.3-1.6s0-1.4-.3-1.6c-.2-.3-.4-.4-.7-.4s-.5,.1-.7,.4c-.2,.3-.3,.9-.3,1.7Z"/><path d="M23.1,179.7c0-.6,0-1.1,.2-1.4,.1-.4,.3-.6,.5-.8,.2-.2,.5-.3,.9-.3s.5,0,.7,.2c.2,.1,.4,.3,.5,.5,.1,.2,.2,.5,.3,.7,0,.3,.1,.7,.1,1.2s0,1.1-.2,1.4c-.1,.4-.3,.6-.5,.8-.2,.2-.5,.3-.9,.3s-.9-.2-1.1-.5c-.3-.4-.5-1.1-.5-2Zm.6,0c0,.8,0,1.4,.3,1.6,.2,.3,.4,.4,.7,.4s.5-.1,.7-.4c.2-.3,.3-.8,.3-1.6s0-1.4-.3-1.6c-.2-.3-.4-.4-.7-.4s-.5,.1-.7,.4c-.2,.3-.3,.9-.3,1.7Z"/></g><g><path d="M7.9,167.2h-.6v-3.9c-.1,.1-.3,.3-.6,.4-.2,.1-.5,.2-.6,.3v-.6c.3-.2,.6-.4,.9-.6s.4-.5,.5-.7h.4v5Z"/><path d="M9.5,164.7c0-.6,0-1.1,.2-1.4,.1-.4,.3-.6,.5-.8,.2-.2,.5-.3,.9-.3s.5,0,.7,.2c.2,.1,.4,.3,.5,.5,.1,.2,.2,.5,.3,.7,0,.3,.1,.7,.1,1.2s0,1.1-.2,1.4c-.1,.4-.3,.6-.5,.8-.2,.2-.5,.3-.9,.3s-.9-.2-1.1-.5c-.3-.4-.5-1.1-.5-2Zm.6,0c0,.8,0,1.4,.3,1.6,.2,.3,.4,.4,.7,.4s.5-.1,.7-.4c.2-.3,.3-.8,.3-1.6s0-1.4-.3-1.6c-.2-.3-.4-.4-.7-.4s-.5,.1-.7,.4c-.2,.3-.3,.9-.3,1.7Z"/><path d="M13.7,167.2v-.7h.7v.7c0,.3,0,.5-.1,.6,0,.2-.2,.3-.4,.4l-.2-.3c.1,0,.2-.1,.3-.3,0-.1,0-.3,.1-.5h-.3Z"/><path d="M15.4,164.7c0-.6,0-1.1,.2-1.4,.1-.4,.3-.6,.5-.8,.2-.2,.5-.3,.9-.3s.5,0,.7,.2c.2,.1,.4,.3,.5,.5,.1,.2,.2,.5,.3,.7,0,.3,.1,.7,.1,1.2s0,1.1-.2,1.4c-.1,.4-.3,.6-.5,.8-.2,.2-.5,.3-.9,.3s-.9-.2-1.1-.5c-.3-.4-.5-1.1-.5-2Zm.6,0c0,.8,0,1.4,.3,1.6,.2,.3,.4,.4,.7,.4s.5-.1,.7-.4c.2-.3,.3-.8,.3-1.6s0-1.4-.3-1.6c-.2-.3-.4-.4-.7-.4s-.5,.1-.7,.4c-.2,.3-.3,.9-.3,1.7Z"/><path d="M19.2,164.7c0-.6,0-1.1,.2-1.4,.1-.4,.3-.6,.5-.8,.2-.2,.5-.3,.9-.3s.5,0,.7,.2c.2,.1,.4,.3,.5,.5,.1,.2,.2,.5,.3,.7,0,.3,.1,.7,.1,1.2s0,1.1-.2,1.4c-.1,.4-.3,.6-.5,.8-.2,.2-.5,.3-.9,.3s-.9-.2-1.1-.5c-.3-.4-.5-1.1-.5-2Zm.6,0c0,.8,0,1.4,.3,1.6,.2,.3,.4,.4,.7,.4s.5-.1,.7-.4c.2-.3,.3-.8,.3-1.6s0-1.4-.3-1.6c-.2-.3-.4-.4-.7-.4s-.5,.1-.7,.4c-.2,.3-.3,.9-.3,1.7Z"/><path d="M23.1,164.7c0-.6,0-1.1,.2-1.4,.1-.4,.3-.6,.5-.8,.2-.2,.5-.3,.9-.3s.5,0,.7,.2c.2,.1,.4,.3,.5,.5,.1,.2,.2,.5,.3,.7,0,.3,.1,.7,.1,1.2s0,1.1-.2,1.4c-.1,.4-.3,.6-.5,.8-.2,.2-.5,.3-.9,.3s-.9-.2-1.1-.5c-.3-.4-.5-1.1-.5-2Zm.6,0c0,.8,0,1.4,.3,1.6,.2,.3,.4,.4,.7,.4s.5-.1,.7-.4c.2-.3,.3-.8,.3-1.6s0-1.4-.3-1.6c-.2-.3-.4-.4-.7-.4s-.5,.1-.7,.4c-.2,.3-.3,.9-.3,1.7Z"/></g><g><path d="M7.9,152.2h-.6v-3.9c-.1,.1-.3,.3-.6,.4-.2,.1-.5,.2-.6,.3v-.6c.3-.2,.6-.4,.9-.6s.4-.5,.5-.7h.4v5Z"/><path d="M9.5,150.9h.6c0,.3,.2,.5,.3,.7,.2,.2,.4,.2,.6,.2s.5-.1,.8-.3,.3-.5,.3-.9,0-.6-.3-.8c-.2-.2-.5-.3-.8-.3s-.4,0-.5,.1c-.2,0-.3,.2-.4,.4h-.6l.5-2.6h2.5v.6h-2l-.3,1.3c.3-.2,.6-.3,.9-.3s.8,.2,1.1,.5,.5,.7,.5,1.2-.1,.8-.4,1.2c-.3,.4-.8,.6-1.3,.6s-.8-.1-1.1-.4c-.3-.3-.5-.6-.5-1Z"/><path d="M13.7,152.2v-.7h.7v.7c0,.3,0,.5-.1,.6,0,.2-.2,.3-.4,.4l-.2-.3c.1,0,.2-.1,.3-.3,0-.1,0-.3,.1-.5h-.3Z"/><path d="M15.4,149.7c0-.6,0-1.1,.2-1.4,.1-.4,.3-.6,.5-.8,.2-.2,.5-.3,.9-.3s.5,0,.7,.2c.2,.1,.4,.3,.5,.5,.1,.2,.2,.5,.3,.7,0,.3,.1,.7,.1,1.2s0,1.1-.2,1.4c-.1,.4-.3,.6-.5,.8-.2,.2-.5,.3-.9,.3s-.9-.2-1.1-.5c-.3-.4-.5-1.1-.5-2Zm.6,0c0,.8,0,1.4,.3,1.6,.2,.3,.4,.4,.7,.4s.5-.1,.7-.4c.2-.3,.3-.8,.3-1.6s0-1.4-.3-1.6c-.2-.3-.4-.4-.7-.4s-.5,.1-.7,.4c-.2,.3-.3,.9-.3,1.7Z"/><path d="M19.2,149.7c0-.6,0-1.1,.2-1.4,.1-.4,.3-.6,.5-.8,.2-.2,.5-.3,.9-.3s.5,0,.7,.2c.2,.1,.4,.3,.5,.5,.1,.2,.2,.5,.3,.7,0,.3,.1,.7,.1,1.2s0,1.1-.2,1.4c-.1,.4-.3,.6-.5,.8-.2,.2-.5,.3-.9,.3s-.9-.2-1.1-.5c-.3-.4-.5-1.1-.5-2Zm.6,0c0,.8,0,1.4,.3,1.6,.2,.3,.4,.4,.7,.4s.5-.1,.7-.4c.2-.3,.3-.8,.3-1.6s0-1.4-.3-1.6c-.2-.3-.4-.4-.7-.4s-.5,.1-.7,.4c-.2,.3-.3,.9-.3,1.7Z"/><path d="M23.1,149.7c0-.6,0-1.1,.2-1.4,.1-.4,.3-.6,.5-.8,.2-.2,.5-.3,.9-.3s.5,0,.7,.2c.2,.1,.4,.3,.5,.5,.1,.2,.2,.5,.3,.7,0,.3,.1,.7,.1,1.2s0,1.1-.2,1.4c-.1,.4-.3,.6-.5,.8-.2,.2-.5,.3-.9,.3s-.9-.2-1.1-.5c-.3-.4-.5-1.1-.5-2Zm.6,0c0,.8,0,1.4,.3,1.6,.2,.3,.4,.4,.7,.4s.5-.1,.7-.4c.2-.3,.3-.8,.3-1.6s0-1.4-.3-1.6c-.2-.3-.4-.4-.7-.4s-.5,.1-.7,.4c-.2,.3-.3,.9-.3,1.7Z"/></g><g><path d="M8.9,136.6v.6h-3.3c0-.1,0-.3,0-.4,0-.2,.2-.4,.4-.7,.2-.2,.5-.5,.8-.8,.5-.4,.9-.8,1.1-1.1,.2-.3,.3-.5,.3-.7s0-.4-.3-.6-.4-.3-.7-.3-.5,0-.7,.3-.3,.4-.3,.7h-.6c0-.5,.2-.9,.5-1.1,.3-.2,.7-.4,1.1-.4s.9,.1,1.1,.4,.4,.6,.4,1,0,.4-.1,.6-.2,.4-.4,.6c-.2,.2-.5,.5-.9,.9-.4,.3-.6,.5-.7,.6-.1,.1-.2,.2-.3,.3h2.5Z"/><path d="M9.5,134.7c0-.6,0-1.1,.2-1.4,.1-.4,.3-.6,.5-.8,.2-.2,.5-.3,.9-.3s.5,0,.7,.2c.2,.1,.4,.3,.5,.5,.1,.2,.2,.5,.3,.7,0,.3,.1,.7,.1,1.2s0,1.1-.2,1.4c-.1,.4-.3,.6-.5,.8-.2,.2-.5,.3-.9,.3s-.9-.2-1.1-.5c-.3-.4-.5-1.1-.5-2Zm.6,0c0,.8,0,1.4,.3,1.6,.2,.3,.4,.4,.7,.4s.5-.1,.7-.4c.2-.3,.3-.8,.3-1.6s0-1.4-.3-1.6c-.2-.3-.4-.4-.7-.4s-.5,.1-.7,.4c-.2,.3-.3,.9-.3,1.7Z"/><path d="M13.7,137.2v-.7h.7v.7c0,.3,0,.5-.1,.6,0,.2-.2,.3-.4,.4l-.2-.3c.1,0,.2-.1,.3-.3,0-.1,0-.3,.1-.5h-.3Z"/><path d="M15.4,134.7c0-.6,0-1.1,.2-1.4,.1-.4,.3-.6,.5-.8,.2-.2,.5-.3,.9-.3s.5,0,.7,.2c.2,.1,.4,.3,.5,.5,.1,.2,.2,.5,.3,.7,0,.3,.1,.7,.1,1.2s0,1.1-.2,1.4c-.1,.4-.3,.6-.5,.8-.2,.2-.5,.3-.9,.3s-.9-.2-1.1-.5c-.3-.4-.5-1.1-.5-2Zm.6,0c0,.8,0,1.4,.3,1.6,.2,.3,.4,.4,.7,.4s.5-.1,.7-.4c.2-.3,.3-.8,.3-1.6s0-1.4-.3-1.6c-.2-.3-.4-.4-.7-.4s-.5,.1-.7,.4c-.2,.3-.3,.9-.3,1.7Z"/><path d="M19.2,134.7c0-.6,0-1.1,.2-1.4,.1-.4,.3-.6,.5-.8,.2-.2,.5-.3,.9-.3s.5,0,.7,.2c.2,.1,.4,.3,.5,.5,.1,.2,.2,.5,.3,.7,0,.3,.1,.7,.1,1.2s0,1.1-.2,1.4c-.1,.4-.3,.6-.5,.8-.2,.2-.5,.3-.9,.3s-.9-.2-1.1-.5c-.3-.4-.5-1.1-.5-2Zm.6,0c0,.8,0,1.4,.3,1.6,.2,.3,.4,.4,.7,.4s.5-.1,.7-.4c.2-.3,.3-.8,.3-1.6s0-1.4-.3-1.6c-.2-.3-.4-.4-.7-.4s-.5,.1-.7,.4c-.2,.3-.3,.9-.3,1.7Z"/><path d="M23.1,134.7c0-.6,0-1.1,.2-1.4,.1-.4,.3-.6,.5-.8,.2-.2,.5-.3,.9-.3s.5,0,.7,.2c.2,.1,.4,.3,.5,.5,.1,.2,.2,.5,.3,.7,0,.3,.1,.7,.1,1.2s0,1.1-.2,1.4c-.1,.4-.3,.6-.5,.8-.2,.2-.5,.3-.9,.3s-.9-.2-1.1-.5c-.3-.4-.5-1.1-.5-2Zm.6,0c0,.8,0,1.4,.3,1.6,.2,.3,.4,.4,.7,.4s.5-.1,.7-.4c.2-.3,.3-.8,.3-1.6s0-1.4-.3-1.6c-.2-.3-.4-.4-.7-.4s-.5,.1-.7,.4c-.2,.3-.3,.9-.3,1.7Z"/></g><g><path d="M8.9,121.6v.6h-3.3c0-.1,0-.3,0-.4,0-.2,.2-.4,.4-.7,.2-.2,.5-.5,.8-.8,.5-.4,.9-.8,1.1-1.1,.2-.3,.3-.5,.3-.7s0-.4-.3-.6-.4-.3-.7-.3-.5,0-.7,.3-.3,.4-.3,.7h-.6c0-.5,.2-.9,.5-1.1,.3-.2,.7-.4,1.1-.4s.9,.1,1.1,.4,.4,.6,.4,1,0,.4-.1,.6-.2,.4-.4,.6c-.2,.2-.5,.5-.9,.9-.4,.3-.6,.5-.7,.6-.1,.1-.2,.2-.3,.3h2.5Z"/><path d="M9.5,120.9h.6c0,.3,.2,.5,.3,.7,.2,.2,.4,.2,.6,.2s.5-.1,.8-.3,.3-.5,.3-.9,0-.6-.3-.8c-.2-.2-.5-.3-.8-.3s-.4,0-.5,.1c-.2,0-.3,.2-.4,.4h-.6l.5-2.6h2.5v.6h-2l-.3,1.3c.3-.2,.6-.3,.9-.3s.8,.2,1.1,.5,.5,.7,.5,1.2-.1,.8-.4,1.2c-.3,.4-.8,.6-1.3,.6s-.8-.1-1.1-.4c-.3-.3-.5-.6-.5-1Z"/><path d="M13.7,122.2v-.7h.7v.7c0,.3,0,.5-.1,.6,0,.2-.2,.3-.4,.4l-.2-.3c.1,0,.2-.1,.3-.3,0-.1,0-.3,.1-.5h-.3Z"/><path d="M15.4,119.7c0-.6,0-1.1,.2-1.4,.1-.4,.3-.6,.5-.8,.2-.2,.5-.3,.9-.3s.5,0,.7,.2c.2,.1,.4,.3,.5,.5,.1,.2,.2,.5,.3,.7,0,.3,.1,.7,.1,1.2s0,1.1-.2,1.4c-.1,.4-.3,.6-.5,.8-.2,.2-.5,.3-.9,.3s-.9-.2-1.1-.5c-.3-.4-.5-1.1-.5-2Zm.6,0c0,.8,0,1.4,.3,1.6,.2,.3,.4,.4,.7,.4s.5-.1,.7-.4c.2-.3,.3-.8,.3-1.6s0-1.4-.3-1.6c-.2-.3-.4-.4-.7-.4s-.5,.1-.7,.4c-.2,.3-.3,.9-.3,1.7Z"/><path d="M19.2,119.7c0-.6,0-1.1,.2-1.4,.1-.4,.3-.6,.5-.8,.2-.2,.5-.3,.9-.3s.5,0,.7,.2c.2,.1,.4,.3,.5,.5,.1,.2,.2,.5,.3,.7,0,.3,.1,.7,.1,1.2s0,1.1-.2,1.4c-.1,.4-.3,.6-.5,.8-.2,.2-.5,.3-.9,.3s-.9-.2-1.1-.5c-.3-.4-.5-1.1-.5-2Zm.6,0c0,.8,0,1.4,.3,1.6,.2,.3,.4,.4,.7,.4s.5-.1,.7-.4c.2-.3,.3-.8,.3-1.6s0-1.4-.3-1.6c-.2-.3-.4-.4-.7-.4s-.5,.1-.7,.4c-.2,.3-.3,.9-.3,1.7Z"/><path d="M23.1,119.7c0-.6,0-1.1,.2-1.4,.1-.4,.3-.6,.5-.8,.2-.2,.5-.3,.9-.3s.5,0,.7,.2c.2,.1,.4,.3,.5,.5,.1,.2,.2,.5,.3,.7,0,.3,.1,.7,.1,1.2s0,1.1-.2,1.4c-.1,.4-.3,.6-.5,.8-.2,.2-.5,.3-.9,.3s-.9-.2-1.1-.5c-.3-.4-.5-1.1-.5-2Zm.6,0c0,.8,0,1.4,.3,1.6,.2,.3,.4,.4,.7,.4s.5-.1,.7-.4c.2-.3,.3-.8,.3-1.6s0-1.4-.3-1.6c-.2-.3-.4-.4-.7-.4s-.5,.1-.7,.4c-.2,.3-.3,.9-.3,1.7Z"/></g><g><path d="M5.6,105.9h.6c0,.3,.2,.5,.4,.7,.2,.2,.4,.2,.6,.2s.5-.1,.7-.3c.2-.2,.3-.4,.3-.7s0-.5-.3-.7c-.2-.2-.4-.3-.7-.3s-.3,0-.4,0v-.5c.1,0,.1,0,.2,0,.3,0,.5,0,.7-.2s.3-.3,.3-.6,0-.4-.2-.6-.3-.2-.6-.2-.4,0-.6,.2-.3,.4-.3,.7h-.6c0-.5,.2-.8,.5-1.1,.3-.2,.6-.3,1-.3s.5,0,.8,.2c.2,.1,.4,.3,.5,.5,.1,.2,.2,.4,.2,.6s0,.4-.2,.6-.3,.3-.5,.4c.3,0,.5,.2,.7,.4s.2,.5,.2,.8-.2,.8-.5,1.1-.7,.5-1.2,.5-.8-.1-1.1-.4-.5-.6-.5-1Z"/><path d="M9.5,104.7c0-.6,0-1.1,.2-1.4,.1-.4,.3-.6,.5-.8,.2-.2,.5-.3,.9-.3s.5,0,.7,.2c.2,.1,.4,.3,.5,.5,.1,.2,.2,.5,.3,.7,0,.3,.1,.7,.1,1.2s0,1.1-.2,1.4c-.1,.4-.3,.6-.5,.8-.2,.2-.5,.3-.9,.3s-.9-.2-1.1-.5c-.3-.4-.5-1.1-.5-2Zm.6,0c0,.8,0,1.4,.3,1.6,.2,.3,.4,.4,.7,.4s.5-.1,.7-.4c.2-.3,.3-.8,.3-1.6s0-1.4-.3-1.6c-.2-.3-.4-.4-.7-.4s-.5,.1-.7,.4c-.2,.3-.3,.9-.3,1.7Z"/><path d="M13.7,107.2v-.7h.7v.7c0,.3,0,.5-.1,.6,0,.2-.2,.3-.4,.4l-.2-.3c.1,0,.2-.1,.3-.3,0-.1,0-.3,.1-.5h-.3Z"/><path d="M15.4,104.7c0-.6,0-1.1,.2-1.4,.1-.4,.3-.6,.5-.8,.2-.2,.5-.3,.9-.3s.5,0,.7,.2c.2,.1,.4,.3,.5,.5,.1,.2,.2,.5,.3,.7,0,.3,.1,.7,.1,1.2s0,1.1-.2,1.4c-.1,.4-.3,.6-.5,.8-.2,.2-.5,.3-.9,.3s-.9-.2-1.1-.5c-.3-.4-.5-1.1-.5-2Zm.6,0c0,.8,0,1.4,.3,1.6,.2,.3,.4,.4,.7,.4s.5-.1,.7-.4c.2-.3,.3-.8,.3-1.6s0-1.4-.3-1.6c-.2-.3-.4-.4-.7-.4s-.5,.1-.7,.4c-.2,.3-.3,.9-.3,1.7Z"/><path d="M19.2,104.7c0-.6,0-1.1,.2-1.4,.1-.4,.3-.6,.5-.8,.2-.2,.5-.3,.9-.3s.5,0,.7,.2c.2,.1,.4,.3,.5,.5,.1,.2,.2,.5,.3,.7,0,.3,.1,.7,.1,1.2s0,1.1-.2,1.4c-.1,.4-.3,.6-.5,.8-.2,.2-.5,.3-.9,.3s-.9-.2-1.1-.5c-.3-.4-.5-1.1-.5-2Zm.6,0c0,.8,0,1.4,.3,1.6,.2,.3,.4,.4,.7,.4s.5-.1,.7-.4c.2-.3,.3-.8,.3-1.6s0-1.4-.3-1.6c-.2-.3-.4-.4-.7-.4s-.5,.1-.7,.4c-.2,.3-.3,.9-.3,1.7Z"/><path d="M23.1,104.7c0-.6,0-1.1,.2-1.4,.1-.4,.3-.6,.5-.8,.2-.2,.5-.3,.9-.3s.5,0,.7,.2c.2,.1,.4,.3,.5,.5,.1,.2,.2,.5,.3,.7,0,.3,.1,.7,.1,1.2s0,1.1-.2,1.4c-.1,.4-.3,.6-.5,.8-.2,.2-.5,.3-.9,.3s-.9-.2-1.1-.5c-.3-.4-.5-1.1-.5-2Zm.6,0c0,.8,0,1.4,.3,1.6,.2,.3,.4,.4,.7,.4s.5-.1,.7-.4c.2-.3,.3-.8,.3-1.6s0-1.4-.3-1.6c-.2-.3-.4-.4-.7-.4s-.5,.1-.7,.4c-.2,.3-.3,.9-.3,1.7Z"/></g><g><path d="M5.6,90.9h.6c0,.3,.2,.5,.4,.7,.2,.2,.4,.2,.6,.2s.5-.1,.7-.3c.2-.2,.3-.4,.3-.7s0-.5-.3-.7c-.2-.2-.4-.3-.7-.3s-.3,0-.4,0v-.5c.1,0,.1,0,.2,0,.3,0,.5,0,.7-.2s.3-.3,.3-.6,0-.4-.2-.6-.3-.2-.6-.2-.4,0-.6,.2-.3,.4-.3,.7h-.6c0-.5,.2-.8,.5-1.1,.3-.2,.6-.3,1-.3s.5,0,.8,.2c.2,.1,.4,.3,.5,.5,.1,.2,.2,.4,.2,.6s0,.4-.2,.6-.3,.3-.5,.4c.3,0,.5,.2,.7,.4s.2,.5,.2,.8-.2,.8-.5,1.1-.7,.5-1.2,.5-.8-.1-1.1-.4-.5-.6-.5-1Z"/><path d="M9.5,90.9h.6c0,.3,.2,.5,.3,.7,.2,.2,.4,.2,.6,.2s.5-.1,.8-.3,.3-.5,.3-.9,0-.6-.3-.8c-.2-.2-.5-.3-.8-.3s-.4,0-.5,.1c-.2,0-.3,.2-.4,.4h-.6l.5-2.6h2.5v.6h-2l-.3,1.3c.3-.2,.6-.3,.9-.3s.8,.2,1.1,.5,.5,.7,.5,1.2-.1,.8-.4,1.2c-.3,.4-.8,.6-1.3,.6s-.8-.1-1.1-.4c-.3-.3-.5-.6-.5-1Z"/><path d="M13.7,92.2v-.7h.7v.7c0,.3,0,.5-.1,.6,0,.2-.2,.3-.4,.4l-.2-.3c.1,0,.2-.1,.3-.3,0-.1,0-.3,.1-.5h-.3Z"/><path d="M15.4,89.7c0-.6,0-1.1,.2-1.4,.1-.4,.3-.6,.5-.8,.2-.2,.5-.3,.9-.3s.5,0,.7,.2c.2,.1,.4,.3,.5,.5,.1,.2,.2,.5,.3,.7,0,.3,.1,.7,.1,1.2s0,1.1-.2,1.4c-.1,.4-.3,.6-.5,.8-.2,.2-.5,.3-.9,.3s-.9-.2-1.1-.5c-.3-.4-.5-1.1-.5-2Zm.6,0c0,.8,0,1.4,.3,1.6,.2,.3,.4,.4,.7,.4s.5-.1,.7-.4c.2-.3,.3-.8,.3-1.6s0-1.4-.3-1.6c-.2-.3-.4-.4-.7-.4s-.5,.1-.7,.4c-.2,.3-.3,.9-.3,1.7Z"/><path d="M19.2,89.7c0-.6,0-1.1,.2-1.4,.1-.4,.3-.6,.5-.8,.2-.2,.5-.3,.9-.3s.5,0,.7,.2c.2,.1,.4,.3,.5,.5,.1,.2,.2,.5,.3,.7,0,.3,.1,.7,.1,1.2s0,1.1-.2,1.4c-.1,.4-.3,.6-.5,.8-.2,.2-.5,.3-.9,.3s-.9-.2-1.1-.5c-.3-.4-.5-1.1-.5-2Zm.6,0c0,.8,0,1.4,.3,1.6,.2,.3,.4,.4,.7,.4s.5-.1,.7-.4c.2-.3,.3-.8,.3-1.6s0-1.4-.3-1.6c-.2-.3-.4-.4-.7-.4s-.5,.1-.7,.4c-.2,.3-.3,.9-.3,1.7Z"/><path d="M23.1,89.7c0-.6,0-1.1,.2-1.4,.1-.4,.3-.6,.5-.8,.2-.2,.5-.3,.9-.3s.5,0,.7,.2c.2,.1,.4,.3,.5,.5,.1,.2,.2,.5,.3,.7,0,.3,.1,.7,.1,1.2s0,1.1-.2,1.4c-.1,.4-.3,.6-.5,.8-.2,.2-.5,.3-.9,.3s-.9-.2-1.1-.5c-.3-.4-.5-1.1-.5-2Zm.6,0c0,.8,0,1.4,.3,1.6,.2,.3,.4,.4,.7,.4s.5-.1,.7-.4c.2-.3,.3-.8,.3-1.6s0-1.4-.3-1.6c-.2-.3-.4-.4-.7-.4s-.5,.1-.7,.4c-.2,.3-.3,.9-.3,1.7Z"/></g><g><path d="M7.6,77.2v-1.2h-2.2v-.6l2.3-3.2h.5v3.2h.7v.6h-.7v1.2h-.6Zm0-1.8v-2.3l-1.6,2.3h1.6Z"/><path d="M9.5,74.7c0-.6,0-1.1,.2-1.4,.1-.4,.3-.6,.5-.8,.2-.2,.5-.3,.9-.3s.5,0,.7,.2c.2,.1,.4,.3,.5,.5,.1,.2,.2,.5,.3,.7,0,.3,.1,.7,.1,1.2s0,1.1-.2,1.4c-.1,.4-.3,.6-.5,.8-.2,.2-.5,.3-.9,.3s-.9-.2-1.1-.5c-.3-.4-.5-1.1-.5-2Zm.6,0c0,.8,0,1.4,.3,1.6,.2,.3,.4,.4,.7,.4s.5-.1,.7-.4c.2-.3,.3-.8,.3-1.6s0-1.4-.3-1.6c-.2-.3-.4-.4-.7-.4s-.5,.1-.7,.4c-.2,.3-.3,.9-.3,1.7Z"/><path d="M13.7,77.2v-.7h.7v.7c0,.3,0,.5-.1,.6,0,.2-.2,.3-.4,.4l-.2-.3c.1,0,.2-.1,.3-.3,0-.1,0-.3,.1-.5h-.3Z"/><path d="M15.4,74.7c0-.6,0-1.1,.2-1.4,.1-.4,.3-.6,.5-.8,.2-.2,.5-.3,.9-.3s.5,0,.7,.2c.2,.1,.4,.3,.5,.5,.1,.2,.2,.5,.3,.7,0,.3,.1,.7,.1,1.2s0,1.1-.2,1.4c-.1,.4-.3,.6-.5,.8-.2,.2-.5,.3-.9,.3s-.9-.2-1.1-.5c-.3-.4-.5-1.1-.5-2Zm.6,0c0,.8,0,1.4,.3,1.6,.2,.3,.4,.4,.7,.4s.5-.1,.7-.4c.2-.3,.3-.8,.3-1.6s0-1.4-.3-1.6c-.2-.3-.4-.4-.7-.4s-.5,.1-.7,.4c-.2,.3-.3,.9-.3,1.7Z"/><path d="M19.2,74.7c0-.6,0-1.1,.2-1.4,.1-.4,.3-.6,.5-.8,.2-.2,.5-.3,.9-.3s.5,0,.7,.2c.2,.1,.4,.3,.5,.5,.1,.2,.2,.5,.3,.7,0,.3,.1,.7,.1,1.2s0,1.1-.2,1.4c-.1,.4-.3,.6-.5,.8-.2,.2-.5,.3-.9,.3s-.9-.2-1.1-.5c-.3-.4-.5-1.1-.5-2Zm.6,0c0,.8,0,1.4,.3,1.6,.2,.3,.4,.4,.7,.4s.5-.1,.7-.4c.2-.3,.3-.8,.3-1.6s0-1.4-.3-1.6c-.2-.3-.4-.4-.7-.4s-.5,.1-.7,.4c-.2,.3-.3,.9-.3,1.7Z"/><path d="M23.1,74.7c0-.6,0-1.1,.2-1.4,.1-.4,.3-.6,.5-.8,.2-.2,.5-.3,.9-.3s.5,0,.7,.2c.2,.1,.4,.3,.5,.5,.1,.2,.2,.5,.3,.7,0,.3,.1,.7,.1,1.2s0,1.1-.2,1.4c-.1,.4-.3,.6-.5,.8-.2,.2-.5,.3-.9,.3s-.9-.2-1.1-.5c-.3-.4-.5-1.1-.5-2Zm.6,0c0,.8,0,1.4,.3,1.6,.2,.3,.4,.4,.7,.4s.5-.1,.7-.4c.2-.3,.3-.8,.3-1.6s0-1.4-.3-1.6c-.2-.3-.4-.4-.7-.4s-.5,.1-.7,.4c-.2,.3-.3,.9-.3,1.7Z"/></g><g><path d="M7.6,62.2v-1.2h-2.2v-.6l2.3-3.2h.5v3.2h.7v.6h-.7v1.2h-.6Zm0-1.8v-2.3l-1.6,2.3h1.6Z"/><path d="M9.5,60.9h.6c0,.3,.2,.5,.3,.7,.2,.2,.4,.2,.6,.2s.5-.1,.8-.3,.3-.5,.3-.9,0-.6-.3-.8c-.2-.2-.5-.3-.8-.3s-.4,0-.5,.1c-.2,0-.3,.2-.4,.4h-.6l.5-2.6h2.5v.6h-2l-.3,1.3c.3-.2,.6-.3,.9-.3s.8,.2,1.1,.5,.5,.7,.5,1.2-.1,.8-.4,1.2c-.3,.4-.8,.6-1.3,.6s-.8-.1-1.1-.4c-.3-.3-.5-.6-.5-1Z"/><path d="M13.7,62.2v-.7h.7v.7c0,.3,0,.5-.1,.6,0,.2-.2,.3-.4,.4l-.2-.3c.1,0,.2-.1,.3-.3,0-.1,0-.3,.1-.5h-.3Z"/><path d="M15.4,59.7c0-.6,0-1.1,.2-1.4,.1-.4,.3-.6,.5-.8,.2-.2,.5-.3,.9-.3s.5,0,.7,.2c.2,.1,.4,.3,.5,.5,.1,.2,.2,.5,.3,.7,0,.3,.1,.7,.1,1.2s0,1.1-.2,1.4c-.1,.4-.3,.6-.5,.8-.2,.2-.5,.3-.9,.3s-.9-.2-1.1-.5c-.3-.4-.5-1.1-.5-2Zm.6,0c0,.8,0,1.4,.3,1.6,.2,.3,.4,.4,.7,.4s.5-.1,.7-.4c.2-.3,.3-.8,.3-1.6s0-1.4-.3-1.6c-.2-.3-.4-.4-.7-.4s-.5,.1-.7,.4c-.2,.3-.3,.9-.3,1.7Z"/><path d="M19.2,59.7c0-.6,0-1.1,.2-1.4,.1-.4,.3-.6,.5-.8,.2-.2,.5-.3,.9-.3s.5,0,.7,.2c.2,.1,.4,.3,.5,.5,.1,.2,.2,.5,.3,.7,0,.3,.1,.7,.1,1.2s0,1.1-.2,1.4c-.1,.4-.3,.6-.5,.8-.2,.2-.5,.3-.9,.3s-.9-.2-1.1-.5c-.3-.4-.5-1.1-.5-2Zm.6,0c0,.8,0,1.4,.3,1.6,.2,.3,.4,.4,.7,.4s.5-.1,.7-.4c.2-.3,.3-.8,.3-1.6s0-1.4-.3-1.6c-.2-.3-.4-.4-.7-.4s-.5,.1-.7,.4c-.2,.3-.3,.9-.3,1.7Z"/><path d="M23.1,59.7c0-.6,0-1.1,.2-1.4,.1-.4,.3-.6,.5-.8,.2-.2,.5-.3,.9-.3s.5,0,.7,.2c.2,.1,.4,.3,.5,.5,.1,.2,.2,.5,.3,.7,0,.3,.1,.7,.1,1.2s0,1.1-.2,1.4c-.1,.4-.3,.6-.5,.8-.2,.2-.5,.3-.9,.3s-.9-.2-1.1-.5c-.3-.4-.5-1.1-.5-2Zm.6,0c0,.8,0,1.4,.3,1.6,.2,.3,.4,.4,.7,.4s.5-.1,.7-.4c.2-.3,.3-.8,.3-1.6s0-1.4-.3-1.6c-.2-.3-.4-.4-.7-.4s-.5,.1-.7,.4c-.2,.3-.3,.9-.3,1.7Z"/></g><g><path d="M5.6,45.9h.6c0,.3,.2,.5,.3,.7,.2,.2,.4,.2,.6,.2s.5-.1,.8-.3,.3-.5,.3-.9,0-.6-.3-.8c-.2-.2-.5-.3-.8-.3s-.4,0-.5,.1c-.2,0-.3,.2-.4,.4h-.6l.5-2.6h2.5v.6h-2l-.3,1.3c.3-.2,.6-.3,.9-.3s.8,.2,1.1,.5,.5,.7,.5,1.2-.1,.8-.4,1.2c-.3,.4-.8,.6-1.3,.6s-.8-.1-1.1-.4c-.3-.3-.5-.6-.5-1Z"/><path d="M9.5,44.7c0-.6,0-1.1,.2-1.4,.1-.4,.3-.6,.5-.8,.2-.2,.5-.3,.9-.3s.5,0,.7,.2c.2,.1,.4,.3,.5,.5,.1,.2,.2,.5,.3,.7,0,.3,.1,.7,.1,1.2s0,1.1-.2,1.4c-.1,.4-.3,.6-.5,.8-.2,.2-.5,.3-.9,.3s-.9-.2-1.1-.5c-.3-.4-.5-1.1-.5-2Zm.6,0c0,.8,0,1.4,.3,1.6,.2,.3,.4,.4,.7,.4s.5-.1,.7-.4c.2-.3,.3-.8,.3-1.6s0-1.4-.3-1.6c-.2-.3-.4-.4-.7-.4s-.5,.1-.7,.4c-.2,.3-.3,.9-.3,1.7Z"/><path d="M13.7,47.2v-.7h.7v.7c0,.3,0,.5-.1,.6,0,.2-.2,.3-.4,.4l-.2-.3c.1,0,.2-.1,.3-.3,0-.1,0-.3,.1-.5h-.3Z"/><path d="M15.4,44.7c0-.6,0-1.1,.2-1.4,.1-.4,.3-.6,.5-.8,.2-.2,.5-.3,.9-.3s.5,0,.7,.2c.2,.1,.4,.3,.5,.5,.1,.2,.2,.5,.3,.7,0,.3,.1,.7,.1,1.2s0,1.1-.2,1.4c-.1,.4-.3,.6-.5,.8-.2,.2-.5,.3-.9,.3s-.9-.2-1.1-.5c-.3-.4-.5-1.1-.5-2Zm.6,0c0,.8,0,1.4,.3,1.6,.2,.3,.4,.4,.7,.4s.5-.1,.7-.4c.2-.3,.3-.8,.3-1.6s0-1.4-.3-1.6c-.2-.3-.4-.4-.7-.4s-.5,.1-.7,.4c-.2,.3-.3,.9-.3,1.7Z"/><path d="M19.2,44.7c0-.6,0-1.1,.2-1.4,.1-.4,.3-.6,.5-.8,.2-.2,.5-.3,.9-.3s.5,0,.7,.2c.2,.1,.4,.3,.5,.5,.1,.2,.2,.5,.3,.7,0,.3,.1,.7,.1,1.2s0,1.1-.2,1.4c-.1,.4-.3,.6-.5,.8-.2,.2-.5,.3-.9,.3s-.9-.2-1.1-.5c-.3-.4-.5-1.1-.5-2Zm.6,0c0,.8,0,1.4,.3,1.6,.2,.3,.4,.4,.7,.4s.5-.1,.7-.4c.2-.3,.3-.8,.3-1.6s0-1.4-.3-1.6c-.2-.3-.4-.4-.7-.4s-.5,.1-.7,.4c-.2,.3-.3,.9-.3,1.7Z"/><path d="M23.1,44.7c0-.6,0-1.1,.2-1.4,.1-.4,.3-.6,.5-.8,.2-.2,.5-.3,.9-.3s.5,0,.7,.2c.2,.1,.4,.3,.5,.5,.1,.2,.2,.5,.3,.7,0,.3,.1,.7,.1,1.2s0,1.1-.2,1.4c-.1,.4-.3,.6-.5,.8-.2,.2-.5,.3-.9,.3s-.9-.2-1.1-.5c-.3-.4-.5-1.1-.5-2Zm.6,0c0,.8,0,1.4,.3,1.6,.2,.3,.4,.4,.7,.4s.5-.1,.7-.4c.2-.3,.3-.8,.3-1.6s0-1.4-.3-1.6c-.2-.3-.4-.4-.7-.4s-.5,.1-.7,.4c-.2,.3-.3,.9-.3,1.7Z"/></g><g><path d="M5.6,30.9h.6c0,.3,.2,.5,.3,.7,.2,.2,.4,.2,.6,.2s.5-.1,.8-.3,.3-.5,.3-.9,0-.6-.3-.8c-.2-.2-.5-.3-.8-.3s-.4,0-.5,.1c-.2,0-.3,.2-.4,.4h-.6l.5-2.6h2.5v.6h-2l-.3,1.3c.3-.2,.6-.3,.9-.3s.8,.2,1.1,.5,.5,.7,.5,1.2-.1,.8-.4,1.2c-.3,.4-.8,.6-1.3,.6s-.8-.1-1.1-.4c-.3-.3-.5-.6-.5-1Z"/><path d="M9.5,30.9h.6c0,.3,.2,.5,.3,.7,.2,.2,.4,.2,.6,.2s.5-.1,.8-.3,.3-.5,.3-.9,0-.6-.3-.8c-.2-.2-.5-.3-.8-.3s-.4,0-.5,.1c-.2,0-.3,.2-.4,.4h-.6l.5-2.6h2.5v.6h-2l-.3,1.3c.3-.2,.6-.3,.9-.3s.8,.2,1.1,.5,.5,.7,.5,1.2-.1,.8-.4,1.2c-.3,.4-.8,.6-1.3,.6s-.8-.1-1.1-.4c-.3-.3-.5-.6-.5-1Z"/><path d="M13.7,32.2v-.7h.7v.7c0,.3,0,.5-.1,.6,0,.2-.2,.3-.4,.4l-.2-.3c.1,0,.2-.1,.3-.3,0-.1,0-.3,.1-.5h-.3Z"/><path d="M15.4,29.7c0-.6,0-1.1,.2-1.4,.1-.4,.3-.6,.5-.8,.2-.2,.5-.3,.9-.3s.5,0,.7,.2c.2,.1,.4,.3,.5,.5,.1,.2,.2,.5,.3,.7,0,.3,.1,.7,.1,1.2s0,1.1-.2,1.4c-.1,.4-.3,.6-.5,.8-.2,.2-.5,.3-.9,.3s-.9-.2-1.1-.5c-.3-.4-.5-1.1-.5-2Zm.6,0c0,.8,0,1.4,.3,1.6,.2,.3,.4,.4,.7,.4s.5-.1,.7-.4c.2-.3,.3-.8,.3-1.6s0-1.4-.3-1.6c-.2-.3-.4-.4-.7-.4s-.5,.1-.7,.4c-.2,.3-.3,.9-.3,1.7Z"/><path d="M19.2,29.7c0-.6,0-1.1,.2-1.4,.1-.4,.3-.6,.5-.8,.2-.2,.5-.3,.9-.3s.5,0,.7,.2c.2,.1,.4,.3,.5,.5,.1,.2,.2,.5,.3,.7,0,.3,.1,.7,.1,1.2s0,1.1-.2,1.4c-.1,.4-.3,.6-.5,.8-.2,.2-.5,.3-.9,.3s-.9-.2-1.1-.5c-.3-.4-.5-1.1-.5-2Zm.6,0c0,.8,0,1.4,.3,1.6,.2,.3,.4,.4,.7,.4s.5-.1,.7-.4c.2-.3,.3-.8,.3-1.6s0-1.4-.3-1.6c-.2-.3-.4-.4-.7-.4s-.5,.1-.7,.4c-.2,.3-.3,.9-.3,1.7Z"/><path d="M23.1,29.7c0-.6,0-1.1,.2-1.4,.1-.4,.3-.6,.5-.8,.2-.2,.5-.3,.9-.3s.5,0,.7,.2c.2,.1,.4,.3,.5,.5,.1,.2,.2,.5,.3,.7,0,.3,.1,.7,.1,1.2s0,1.1-.2,1.4c-.1,.4-.3,.6-.5,.8-.2,.2-.5,.3-.9,.3s-.9-.2-1.1-.5c-.3-.4-.5-1.1-.5-2Zm.6,0c0,.8,0,1.4,.3,1.6,.2,.3,.4,.4,.7,.4s.5-.1,.7-.4c.2-.3,.3-.8,.3-1.6s0-1.4-.3-1.6c-.2-.3-.4-.4-.7-.4s-.5,.1-.7,.4c-.2,.3-.3,.9-.3,1.7Z"/></g><g><path d="M3.2,17.9v-.6c-.3,0-.6-.1-.8-.2-.2,0-.4-.3-.5-.5s-.2-.5-.2-.8h.6c0,.2,.1,.5,.3,.6,.2,.2,.4,.3,.6,.4v-2c-.3,0-.5-.1-.8-.3-.2-.1-.3-.3-.5-.5s-.2-.4-.2-.7c0-.4,.2-.8,.5-1.1,.2-.2,.5-.3,.9-.3v-.3h.4v.3c.4,0,.6,.1,.9,.3,.3,.2,.4,.5,.5,.9h-.6c0-.1-.1-.3-.2-.5-.1-.1-.3-.2-.5-.3v1.8c.3,0,.5,.1,.6,.2,.2,0,.3,.2,.5,.3s.2,.3,.3,.4,0,.3,0,.5c0,.4-.1,.8-.4,1.1s-.6,.4-1.1,.5v.6h-.4Zm0-5.4c-.2,0-.4,.1-.6,.3-.1,.2-.2,.3-.2,.6s0,.4,.2,.5c.1,.1,.3,.3,.6,.3v-1.7Zm.4,4.3c.2,0,.4-.1,.6-.3,.2-.2,.2-.4,.2-.7s0-.4-.2-.5c-.1-.1-.3-.3-.7-.4v1.9Z"/><path d="M8.8,13.4h-.6c0-.2-.1-.4-.2-.5-.2-.2-.4-.3-.6-.3s-.4,0-.5,.2c-.2,.1-.3,.3-.5,.6s-.2,.7-.2,1.2c.1-.2,.3-.4,.5-.5s.4-.2,.7-.2c.4,0,.8,.2,1,.5,.3,.3,.4,.7,.4,1.2s0,.6-.2,.9c-.1,.3-.3,.5-.6,.6s-.5,.2-.8,.2c-.5,0-.9-.2-1.3-.6-.3-.4-.5-1-.5-1.9s.2-1.7,.5-2.1c.3-.4,.7-.6,1.3-.6s.7,.1,1,.3c.3,.2,.4,.5,.5,.9Zm-2.5,2.2c0,.2,0,.4,.1,.6,0,.2,.2,.3,.4,.4,.2,.1,.3,.2,.5,.2,.3,0,.5-.1,.7-.3s.3-.5,.3-.9,0-.6-.3-.8c-.2-.2-.4-.3-.7-.3s-.5,0-.7,.3c-.2,.2-.3,.5-.3,.8Z"/><path d="M9.5,14.7c0-.6,0-1.1,.2-1.4,.1-.4,.3-.6,.5-.8,.2-.2,.5-.3,.9-.3s.5,0,.7,.2c.2,.1,.4,.3,.5,.5,.1,.2,.2,.5,.3,.7,0,.3,.1,.7,.1,1.2s0,1.1-.2,1.4c-.1,.4-.3,.6-.5,.8-.2,.2-.5,.3-.9,.3s-.9-.2-1.1-.5c-.3-.4-.5-1.1-.5-2Zm.6,0c0,.8,0,1.4,.3,1.6,.2,.3,.4,.4,.7,.4s.5-.1,.7-.4c.2-.3,.3-.8,.3-1.6s0-1.4-.3-1.6c-.2-.3-.4-.4-.7-.4s-.5,.1-.7,.4c-.2,.3-.3,.9-.3,1.7Z"/><path d="M13.7,17.2v-.7h.7v.7c0,.3,0,.5-.1,.6,0,.2-.2,.3-.4,.4l-.2-.3c.1,0,.2-.1,.3-.3,0-.1,0-.3,.1-.5h-.3Z"/><path d="M15.4,14.7c0-.6,0-1.1,.2-1.4,.1-.4,.3-.6,.5-.8,.2-.2,.5-.3,.9-.3s.5,0,.7,.2c.2,.1,.4,.3,.5,.5,.1,.2,.2,.5,.3,.7,0,.3,.1,.7,.1,1.2s0,1.1-.2,1.4c-.1,.4-.3,.6-.5,.8-.2,.2-.5,.3-.9,.3s-.9-.2-1.1-.5c-.3-.4-.5-1.1-.5-2Zm.6,0c0,.8,0,1.4,.3,1.6,.2,.3,.4,.4,.7,.4s.5-.1,.7-.4c.2-.3,.3-.8,.3-1.6s0-1.4-.3-1.6c-.2-.3-.4-.4-.7-.4s-.5,.1-.7,.4c-.2,.3-.3,.9-.3,1.7Z"/><path d="M19.2,14.7c0-.6,0-1.1,.2-1.4,.1-.4,.3-.6,.5-.8,.2-.2,.5-.3,.9-.3s.5,0,.7,.2c.2,.1,.4,.3,.5,.5,.1,.2,.2,.5,.3,.7,0,.3,.1,.7,.1,1.2s0,1.1-.2,1.4c-.1,.4-.3,.6-.5,.8-.2,.2-.5,.3-.9,.3s-.9-.2-1.1-.5c-.3-.4-.5-1.1-.5-2Zm.6,0c0,.8,0,1.4,.3,1.6,.2,.3,.4,.4,.7,.4s.5-.1,.7-.4c.2-.3,.3-.8,.3-1.6s0-1.4-.3-1.6c-.2-.3-.4-.4-.7-.4s-.5,.1-.7,.4c-.2,.3-.3,.9-.3,1.7Z"/><path d="M23.1,14.7c0-.6,0-1.1,.2-1.4,.1-.4,.3-.6,.5-.8,.2-.2,.5-.3,.9-.3s.5,0,.7,.2c.2,.1,.4,.3,.5,.5,.1,.2,.2,.5,.3,.7,0,.3,.1,.7,.1,1.2s0,1.1-.2,1.4c-.1,.4-.3,.6-.5,.8-.2,.2-.5,.3-.9,.3s-.9-.2-1.1-.5c-.3-.4-.5-1.1-.5-2Zm.6,0c0,.8,0,1.4,.3,1.6,.2,.3,.4,.4,.7,.4s.5-.1,.7-.4c.2-.3,.3-.8,.3-1.6s0-1.4-.3-1.6c-.2-.3-.4-.4-.7-.4s-.5,.1-.7,.4c-.2,.3-.3,.9-.3,1.7Z"/></g><g><path d="M119.7,225.4v-1h-2.1v-.8l2.2-3.2h.8v3.2h.6v.8h-.6v1h-.9Zm0-1.9v-1.7l-1.2,1.7h1.2Z"/><path d="M121.8,224.1v-1h1.9v1h-1.9Z"/><path d="M123.8,221.8h1l.9,2.6,.8-2.6h1l-1.3,3.5-.2,.6c0,.2-.2,.4-.2,.5,0,.1-.2,.2-.3,.3,0,0-.2,.1-.4,.2-.1,0-.3,0-.5,0s-.4,0-.5,0v-.8c0,0,.2,0,.3,0,.2,0,.4,0,.5-.2,.1-.1,.2-.3,.2-.5l-1.4-3.6Z"/><path d="M130.3,224.3l1,.2c-.1,.4-.3,.6-.6,.8-.3,.2-.6,.3-1,.3-.6,0-1.1-.2-1.4-.6-.2-.3-.4-.7-.4-1.3s.2-1.1,.5-1.4c.3-.3,.7-.5,1.2-.5s1,.2,1.3,.5c.3,.4,.5,.9,.4,1.6h-2.4c0,.3,0,.5,.2,.7,.1,.2,.3,.2,.6,.2s.3,0,.4-.1,.2-.2,.2-.4Zm0-1c0-.3,0-.5-.2-.6-.1-.1-.3-.2-.5-.2s-.4,0-.5,.2-.2,.4-.2,.6h1.4Z"/><path d="M132.8,222.9l-.9-.2c0-.4,.3-.6,.5-.8s.6-.3,1.1-.3,.7,0,1,.2c.2,.1,.4,.2,.4,.4,0,.2,.1,.4,.1,.9v1.1c0,.3,0,.6,0,.7,0,.2,0,.3,.2,.5h-1c0,0,0-.2,0-.3,0,0,0,0,0-.1-.2,.2-.3,.3-.5,.4s-.4,.1-.6,.1c-.4,0-.7-.1-.9-.3-.2-.2-.3-.5-.3-.8s0-.4,.1-.5c0-.2,.2-.3,.4-.4,.2,0,.4-.2,.8-.2,.4,0,.8-.2,.9-.2h0c0-.3,0-.4-.1-.5,0,0-.3-.1-.5-.1s-.3,0-.4,.1c0,0-.2,.2-.2,.4Zm1.3,.8c-.1,0-.3,0-.6,.1s-.4,.1-.5,.2c-.1,0-.2,.2-.2,.3s0,.3,.2,.3,.2,.1,.4,.1,.3,0,.5-.2c.1,0,.2-.2,.2-.3,0,0,0-.2,0-.5v-.2Z"/><path d="M136.9,225.4h-1v-3.6h.9v.5c.2-.2,.3-.4,.4-.5,.1,0,.3-.1,.4-.1s.4,0,.6,.2l-.3,.8c-.2-.1-.3-.2-.5-.2s-.2,0-.3,.1c0,0-.2,.2-.2,.4,0,.2,0,.6,0,1.2v1.1Z"/><path d="M140.6,221.3v-.9h1v.9h-1Zm0,4.1v-3.6h1v3.6h-1Z"/><path d="M145.9,225.4h-1v-1.9c0-.4,0-.6,0-.8,0-.1-.1-.2-.2-.3,0,0-.2,0-.3,0s-.3,0-.4,.1-.2,.2-.3,.4c0,.2,0,.4,0,.8v1.6h-1v-3.6h.9v.5c.3-.4,.7-.6,1.2-.6s.4,0,.6,.1c.2,0,.3,.2,.4,.3,0,.1,.2,.3,.2,.4,0,.2,0,.4,0,.6v2.3Z"/><path d="M146.5,224.4h1s.1,.2,.2,.3c.1,0,.3,.1,.5,.1s.4,0,.6-.1c0,0,.1-.1,.1-.3s0-.1,0-.2c0,0-.2,0-.3-.1-.8-.2-1.3-.3-1.5-.5-.3-.2-.4-.5-.4-.8s.1-.6,.4-.8,.6-.3,1.2-.3,.9,0,1.1,.2,.4,.4,.5,.7l-.9,.2c0-.1-.1-.2-.2-.3-.1,0-.3-.1-.5-.1s-.4,0-.5,.1c0,0-.1,.1-.1,.2s0,.1,0,.2c0,0,.4,.2,.9,.3,.5,.1,.9,.3,1.1,.4,.2,.2,.3,.4,.3,.7s-.1,.6-.4,.9-.7,.4-1.2,.4-.9-.1-1.2-.3c-.3-.2-.5-.5-.6-.8Z"/><path d="M152.4,221.8v.8h-.7v1.5c0,.3,0,.5,0,.5,0,0,0,0,0,.1,0,0,0,0,.2,0s.2,0,.4,0v.7c-.1,0-.4,.1-.7,.1s-.3,0-.5,0c-.1,0-.2-.1-.3-.2,0,0-.1-.2-.1-.4,0-.1,0-.3,0-.7v-1.6h-.4v-.8h.4v-.7l1-.6v1.3h.7Z"/><path d="M153.1,221.3v-.9h1v.9h-1Zm0,4.1v-3.6h1v3.6h-1Z"/><path d="M156.7,221.8v.8h-.7v1.5c0,.3,0,.5,0,.5,0,0,0,0,0,.1,0,0,0,0,.2,0s.2,0,.4,0v.7c-.1,0-.4,.1-.7,.1s-.3,0-.5,0c-.1,0-.2-.1-.3-.2,0,0-.1-.2-.1-.4,0-.1,0-.3,0-.7v-1.6h-.4v-.8h.4v-.7l1-.6v1.3h.7Z"/><path d="M159.7,225.4v-.5c-.1,.2-.3,.3-.5,.5-.2,.1-.4,.2-.7,.2s-.5,0-.7-.2-.3-.3-.4-.5-.1-.5-.1-.8v-2.3h1v1.7c0,.5,0,.8,0,.9,0,.1,.1,.2,.2,.3,0,0,.2,.1,.4,.1s.3,0,.4-.1c.1,0,.2-.2,.3-.3,0-.1,0-.5,0-1v-1.5h1v3.6h-.9Z"/><path d="M163.3,221.8v.8h-.7v1.5c0,.3,0,.5,0,.5,0,0,0,0,0,.1,0,0,0,0,.2,0s.2,0,.4,0v.7c-.1,0-.4,.1-.7,.1s-.3,0-.5,0c-.1,0-.2-.1-.3-.2,0,0-.1-.2-.1-.4,0-.1,0-.3,0-.7v-1.6h-.4v-.8h.4v-.7l1-.6v1.3h.7Z"/><path d="M163.9,221.3v-.9h1v.9h-1Zm0,4.1v-3.6h1v3.6h-1Z"/><path d="M165.7,223.6c0-.3,0-.6,.2-.9s.4-.5,.7-.7c.3-.2,.6-.2,1-.2,.5,0,1,.2,1.4,.5,.4,.4,.5,.8,.5,1.4s-.2,1-.5,1.4c-.4,.4-.8,.5-1.3,.5s-.6,0-1-.2c-.3-.2-.5-.4-.7-.7-.2-.3-.2-.6-.2-1.1Zm1,0c0,.4,0,.6,.3,.8s.4,.3,.6,.3,.5,0,.6-.3c.2-.2,.3-.5,.3-.8s0-.6-.3-.8c-.2-.2-.4-.3-.6-.3s-.5,0-.6,.3-.3,.5-.3,.8Z"/><path d="M173.5,225.4h-1v-1.9c0-.4,0-.6,0-.8,0-.1-.1-.2-.2-.3,0,0-.2,0-.3,0s-.3,0-.4,.1-.2,.2-.3,.4c0,.2,0,.4,0,.8v1.6h-1v-3.6h.9v.5c.3-.4,.7-.6,1.2-.6s.4,0,.6,.1c.2,0,.3,.2,.4,.3,0,.1,.2,.3,.2,.4,0,.2,0,.4,0,.6v2.3Z"/><path d="M174.1,224.4h1s.1,.2,.2,.3c.1,0,.3,.1,.5,.1s.4,0,.6-.1c0,0,.1-.1,.1-.3s0-.1,0-.2c0,0-.2,0-.3-.1-.8-.2-1.3-.3-1.5-.5-.3-.2-.4-.5-.4-.8s.1-.6,.4-.8,.6-.3,1.2-.3,.9,0,1.1,.2,.4,.4,.5,.7l-.9,.2c0-.1-.1-.2-.2-.3-.1,0-.3-.1-.5-.1s-.4,0-.5,.1c0,0-.1,.1-.1,.2s0,.1,0,.2c0,0,.4,.2,.9,.3,.5,.1,.9,.3,1.1,.4,.2,.2,.3,.4,.3,.7s-.1,.6-.4,.9-.7,.4-1.2,.4-.9-.1-1.2-.3c-.3-.2-.5-.5-.6-.8Z"/></g><g><path d="M211.6,237.2v-5h1v4.1h2.5v.8h-3.5Z"/><path d="M217.9,236.1l1,.2c-.1,.4-.3,.6-.6,.8-.3,.2-.6,.3-1,.3-.6,0-1.1-.2-1.4-.6-.2-.3-.4-.7-.4-1.3s.2-1.1,.5-1.4c.3-.3,.7-.5,1.2-.5s1,.2,1.3,.5c.3,.4,.5,.9,.4,1.6h-2.4c0,.3,0,.5,.2,.7,.1,.2,.3,.2,.6,.2s.3,0,.4-.1,.2-.2,.2-.4Zm0-1c0-.3,0-.5-.2-.6-.1-.1-.3-.2-.5-.2s-.4,0-.5,.2-.2,.4-.2,.6h1.4Z"/><path d="M220.7,237.2l-1.5-3.6h1l.7,1.9,.2,.6c0-.2,0-.3,0-.3,0-.1,0-.2,.1-.3l.7-1.9h1l-1.4,3.6h-.9Z"/><path d="M225.7,236.1l1,.2c-.1,.4-.3,.6-.6,.8-.3,.2-.6,.3-1,.3-.6,0-1.1-.2-1.4-.6-.2-.3-.4-.7-.4-1.3s.2-1.1,.5-1.4c.3-.3,.7-.5,1.2-.5s1,.2,1.3,.5c.3,.4,.5,.9,.4,1.6h-2.4c0,.3,0,.5,.2,.7,.1,.2,.3,.2,.6,.2s.3,0,.4-.1,.2-.2,.2-.4Zm0-1c0-.3,0-.5-.2-.6-.1-.1-.3-.2-.5-.2s-.4,0-.5,.2-.2,.4-.2,.6h1.4Z"/><path d="M227.5,237.2v-5h1v5h-1Z"/><path d="M232.1,234.7l-.9-.2c0-.4,.3-.6,.5-.8s.6-.3,1.1-.3,.7,0,1,.2c.2,.1,.4,.2,.4,.4,0,.2,.1,.4,.1,.9v1.1c0,.3,0,.6,0,.7,0,.2,0,.3,.2,.5h-1c0,0,0-.2,0-.3,0,0,0,0,0-.1-.2,.2-.3,.3-.5,.4s-.4,.1-.6,.1c-.4,0-.7-.1-.9-.3-.2-.2-.3-.5-.3-.8s0-.4,.1-.5c0-.2,.2-.3,.4-.4,.2,0,.4-.2,.8-.2,.4,0,.8-.2,.9-.2h0c0-.3,0-.4-.1-.5,0,0-.3-.1-.5-.1s-.3,0-.4,.1c0,0-.2,.2-.2,.4Zm1.3,.8c-.1,0-.3,0-.6,.1s-.4,.1-.5,.2c-.1,0-.2,.2-.2,.3s0,.3,.2,.3,.2,.1,.4,.1,.3,0,.5-.2c.1,0,.2-.2,.2-.3,0,0,0-.2,0-.5v-.2Z"/><path d="M238.6,237.2h-1v-1.9c0-.4,0-.6,0-.8,0-.1-.1-.2-.2-.3,0,0-.2,0-.3,0s-.3,0-.4,.1-.2,.2-.3,.4c0,.2,0,.4,0,.8v1.6h-1v-3.6h.9v.5c.3-.4,.7-.6,1.2-.6s.4,0,.6,.1c.2,0,.3,.2,.4,.3,0,.1,.2,.3,.2,.4,0,.2,0,.4,0,.6v2.3Z"/><path d="M242.9,237.2h-.9v-.5c-.1,.2-.3,.4-.5,.5-.2,.1-.4,.2-.6,.2-.4,0-.8-.2-1.1-.5-.3-.3-.4-.8-.4-1.4s.1-1.1,.4-1.4c.3-.3,.7-.5,1.1-.5s.8,.2,1.1,.5v-1.8h1v5Zm-2.6-1.9c0,.4,0,.7,.2,.8,.2,.3,.4,.4,.6,.4s.4,0,.6-.3c.2-.2,.2-.5,.2-.8s0-.7-.2-.9c-.2-.2-.3-.3-.6-.3s-.4,0-.6,.3c-.2,.2-.2,.5-.2,.8Z"/><path d="M248.9,234.7l-.9,.2c0-.2-.1-.3-.2-.4-.1,0-.3-.1-.4-.1s-.4,0-.6,.2c-.1,.2-.2,.4-.2,.8s0,.7,.2,.9c.1,.2,.3,.3,.6,.3s.3,0,.4-.2c.1-.1,.2-.3,.2-.5l.9,.2c0,.4-.3,.8-.6,1s-.7,.3-1.1,.3-1-.2-1.3-.5c-.3-.3-.5-.8-.5-1.4s.2-1.1,.5-1.4c.3-.3,.7-.5,1.3-.5s.8,0,1.1,.3c.3,.2,.4,.5,.6,.9Z"/><path d="M249.4,235.4c0-.3,0-.6,.2-.9s.4-.5,.7-.7c.3-.2,.6-.2,1-.2,.5,0,1,.2,1.4,.5,.4,.4,.5,.8,.5,1.4s-.2,1-.5,1.4c-.4,.4-.8,.5-1.3,.5s-.6,0-1-.2c-.3-.2-.5-.4-.7-.7-.2-.3-.2-.6-.2-1.1Zm1,0c0,.4,0,.6,.3,.8s.4,.3,.6,.3,.5,0,.6-.3c.2-.2,.3-.5,.3-.8s0-.6-.3-.8c-.2-.2-.4-.3-.6-.3s-.5,0-.6,.3-.3,.5-.3,.8Z"/><path d="M257.2,237.2h-1v-1.9c0-.4,0-.6,0-.8,0-.1-.1-.2-.2-.3,0,0-.2,0-.3,0s-.3,0-.4,.1-.2,.2-.3,.4c0,.2,0,.4,0,.8v1.6h-1v-3.6h.9v.5c.3-.4,.7-.6,1.2-.6s.4,0,.6,.1c.2,0,.3,.2,.4,.3,0,.1,.2,.3,.2,.4,0,.2,0,.4,0,.6v2.3Z"/><path d="M259.9,233.6v.8h-.7v1.5c0,.3,0,.5,0,.5,0,0,0,0,0,.1,0,0,0,0,.2,0s.2,0,.4,0v.7c-.1,0-.4,.1-.7,.1s-.3,0-.5,0c-.1,0-.2-.1-.3-.2,0,0-.1-.2-.1-.4,0-.1,0-.3,0-.7v-1.6h-.4v-.8h.4v-.7l1-.6v1.3h.7Z"/><path d="M261.5,237.2h-1v-3.6h.9v.5c.2-.2,.3-.4,.4-.5,.1,0,.3-.1,.4-.1,.2,0,.4,0,.6,.2l-.3,.8c-.2-.1-.3-.2-.5-.2s-.2,0-.3,.1c0,0-.2,.2-.2,.4,0,.2,0,.6,0,1.2v1.1Z"/><path d="M263,235.4c0-.3,0-.6,.2-.9,.2-.3,.4-.5,.7-.7s.6-.2,1-.2c.5,0,1,.2,1.3,.5,.4,.4,.5,.8,.5,1.4s-.2,1-.5,1.4c-.4,.4-.8,.5-1.3,.5s-.6,0-1-.2-.5-.4-.7-.7c-.2-.3-.2-.6-.2-1.1Zm1,0c0,.4,0,.6,.3,.8,.2,.2,.4,.3,.6,.3s.5,0,.6-.3,.3-.5,.3-.8,0-.6-.3-.8-.4-.3-.6-.3-.5,0-.6,.3c-.2,.2-.3,.5-.3,.8Z"/><path d="M267.5,237.2v-5h1v5h-1Z"/><path d="M271.2,235.4c0-.3,0-.6,.2-.9,.2-.3,.4-.5,.7-.7s.6-.2,1-.2c.5,0,1,.2,1.3,.5,.4,.4,.5,.8,.5,1.4s-.2,1-.5,1.4c-.4,.4-.8,.5-1.3,.5s-.6,0-1-.2-.5-.4-.7-.7c-.2-.3-.2-.6-.2-1.1Zm1,0c0,.4,0,.6,.3,.8,.2,.2,.4,.3,.6,.3s.5,0,.6-.3,.3-.5,.3-.8,0-.6-.3-.8-.4-.3-.6-.3-.5,0-.6,.3c-.2,.2-.3,.5-.3,.8Z"/><path d="M275.3,233.6h.5v-.3c0-.3,0-.5,0-.7,0-.2,.2-.3,.4-.4,.2,0,.4-.1,.7-.1s.5,0,.8,.1v.7c-.3,0-.4,0-.6,0s-.2,0-.3,0c0,0,0,.2,0,.4v.3h.7v.8h-.7v2.9h-1v-2.9h-.5v-.8Z"/><path d="M280,233.1v-.9h1v.9h-1Zm0,4.1v-3.6h1v3.6h-1Z"/><path d="M285.2,237.2h-1v-1.9c0-.4,0-.6,0-.8,0-.1-.1-.2-.2-.3,0,0-.2,0-.3,0s-.3,0-.4,.1c-.1,0-.2,.2-.3,.4s0,.4,0,.8v1.6h-1v-3.6h.9v.5c.3-.4,.7-.6,1.2-.6s.4,0,.6,.1c.2,0,.3,.2,.4,.3s.2,.3,.2,.4,0,.4,0,.6v2.3Z"/><path d="M285.9,236.2h1s.1,.2,.2,.3c.1,0,.3,.1,.5,.1s.4,0,.6-.1c0,0,.1-.1,.1-.3s0-.1,0-.2c0,0-.2,0-.3-.1-.8-.2-1.3-.3-1.5-.5-.3-.2-.4-.5-.4-.8s.1-.6,.4-.8,.6-.3,1.2-.3,.9,0,1.1,.2,.4,.4,.5,.7l-.9,.2c0-.1-.1-.2-.2-.3s-.3-.1-.5-.1-.4,0-.5,.1c0,0-.1,.1-.1,.2s0,.1,0,.2c0,0,.4,.2,.9,.3s.9,.3,1.1,.4c.2,.2,.3,.4,.3,.7s-.1,.6-.4,.9-.7,.4-1.2,.4-.9-.1-1.2-.3-.5-.5-.6-.8Z"/><path d="M291.8,233.6v.8h-.7v1.5c0,.3,0,.5,0,.5,0,0,0,0,0,.1,0,0,0,0,.2,0s.2,0,.4,0v.7c-.1,0-.4,.1-.7,.1s-.3,0-.5,0c-.1,0-.2-.1-.3-.2,0,0-.1-.2-.1-.4,0-.1,0-.3,0-.7v-1.6h-.4v-.8h.4v-.7l1-.6v1.3h.7Z"/><path d="M292.4,233.1v-.9h1v.9h-1Zm0,4.1v-3.6h1v3.6h-1Z"/><path d="M296,233.6v.8h-.7v1.5c0,.3,0,.5,0,.5,0,0,0,0,0,.1,0,0,0,0,.2,0s.2,0,.4,0v.7c-.1,0-.4,.1-.7,.1s-.3,0-.5,0c-.1,0-.2-.1-.3-.2,0,0-.1-.2-.1-.4,0-.1,0-.3,0-.7v-1.6h-.4v-.8h.4v-.7l1-.6v1.3h.7Z"/><path d="M299.1,237.2v-.5c-.1,.2-.3,.3-.5,.5-.2,.1-.4,.2-.7,.2s-.5,0-.7-.2-.3-.3-.4-.5c0-.2-.1-.5-.1-.8v-2.3h1v1.7c0,.5,0,.8,0,.9,0,.1,0,.2,.2,.3,0,0,.2,.1,.4,.1s.3,0,.4-.1c.1,0,.2-.2,.3-.3,0-.1,0-.5,0-1v-1.5h1v3.6h-.9Z"/><path d="M302.6,233.6v.8h-.7v1.5c0,.3,0,.5,0,.5,0,0,0,0,0,.1,0,0,0,0,.2,0s.2,0,.4,0v.7c-.1,0-.4,.1-.7,.1s-.3,0-.5,0c-.1,0-.2-.1-.3-.2,0,0-.1-.2-.1-.4,0-.1,0-.3,0-.7v-1.6h-.4v-.8h.4v-.7l1-.6v1.3h.7Z"/><path d="M303.3,233.1v-.9h1v.9h-1Zm0,4.1v-3.6h1v3.6h-1Z"/><path d="M305,235.4c0-.3,0-.6,.2-.9,.2-.3,.4-.5,.7-.7s.6-.2,1-.2c.5,0,1,.2,1.3,.5,.4,.4,.5,.8,.5,1.4s-.2,1-.5,1.4c-.4,.4-.8,.5-1.3,.5s-.6,0-1-.2-.5-.4-.7-.7c-.2-.3-.2-.6-.2-1.1Zm1,0c0,.4,0,.6,.3,.8,.2,.2,.4,.3,.6,.3s.5,0,.6-.3,.3-.5,.3-.8,0-.6-.3-.8-.4-.3-.6-.3-.5,0-.6,.3c-.2,.2-.3,.5-.3,.8Z"/><path d="M312.8,237.2h-1v-1.9c0-.4,0-.6,0-.8,0-.1-.1-.2-.2-.3,0,0-.2,0-.3,0s-.3,0-.4,.1c-.1,0-.2,.2-.3,.4s0,.4,0,.8v1.6h-1v-3.6h.9v.5c.3-.4,.7-.6,1.2-.6s.4,0,.6,.1c.2,0,.3,.2,.4,.3s.2,.3,.2,.4,0,.4,0,.6v2.3Z"/></g><g><path d="M352.4,224.5v.9h-3.4c0-.3,.1-.7,.3-1,.2-.3,.5-.7,1.1-1.2,.4-.4,.7-.7,.8-.8,.1-.2,.2-.4,.2-.6s0-.4-.2-.5c-.1-.1-.3-.2-.5-.2s-.4,0-.5,.2-.2,.3-.2,.6h-1c0-.6,.2-1,.5-1.2s.7-.3,1.1-.3,.9,.1,1.2,.4,.4,.6,.4,1,0,.4-.1,.6c0,.2-.2,.4-.4,.6-.1,.1-.3,.4-.6,.6s-.5,.5-.6,.6-.1,.2-.2,.3h1.9Z"/><path d="M353.1,224.1v-1h1.9v1h-1.9Z"/><path d="M355.1,221.8h1l.9,2.6,.8-2.6h1l-1.3,3.5-.2,.6c0,.2-.2,.4-.2,.5s-.2,.2-.3,.3c0,0-.2,.1-.4,.2s-.3,0-.5,0-.4,0-.5,0v-.8c0,0,.2,0,.3,0,.2,0,.4,0,.5-.2,.1-.1,.2-.3,.2-.5l-1.4-3.6Z"/><path d="M361.6,224.3l1,.2c-.1,.4-.3,.6-.6,.8-.3,.2-.6,.3-1,.3-.6,0-1.1-.2-1.4-.6-.2-.3-.4-.7-.4-1.3s.2-1.1,.5-1.4c.3-.3,.7-.5,1.2-.5s1,.2,1.3,.5c.3,.4,.5,.9,.4,1.6h-2.4c0,.3,0,.5,.2,.7,.1,.2,.3,.2,.6,.2s.3,0,.4-.1,.2-.2,.2-.4Zm0-1c0-.3,0-.5-.2-.6-.1-.1-.3-.2-.5-.2s-.4,0-.5,.2-.2,.4-.2,.6h1.4Z"/><path d="M364.1,222.9l-.9-.2c0-.4,.3-.6,.5-.8s.6-.3,1.1-.3,.7,0,1,.2c.2,.1,.4,.2,.4,.4,0,.2,.1,.4,.1,.9v1.1c0,.3,0,.6,0,.7,0,.2,0,.3,.2,.5h-1c0,0,0-.2,0-.3,0,0,0,0,0-.1-.2,.2-.3,.3-.5,.4-.2,0-.4,.1-.6,.1-.4,0-.7-.1-.9-.3-.2-.2-.3-.5-.3-.8s0-.4,.1-.5c0-.2,.2-.3,.4-.4,.2,0,.4-.2,.8-.2,.4,0,.8-.2,.9-.2h0c0-.3,0-.4-.1-.5,0,0-.3-.1-.5-.1s-.3,0-.4,.1c0,0-.2,.2-.2,.4Zm1.3,.8c-.1,0-.3,0-.6,.1s-.4,.1-.5,.2c-.1,0-.2,.2-.2,.3s0,.3,.2,.3,.2,.1,.4,.1,.3,0,.5-.2c.1,0,.2-.2,.2-.3,0,0,0-.2,0-.5v-.2Z"/><path d="M368.2,225.4h-1v-3.6h.9v.5c.2-.2,.3-.4,.4-.5s.3-.1,.4-.1,.4,0,.6,.2l-.3,.8c-.2-.1-.3-.2-.5-.2s-.2,0-.3,.1c0,0-.2,.2-.2,.4s0,.6,0,1.2v1.1Z"/><path d="M371.9,221.3v-.9h1v.9h-1Zm0,4.1v-3.6h1v3.6h-1Z"/><path d="M377.2,225.4h-1v-1.9c0-.4,0-.6,0-.8,0-.1-.1-.2-.2-.3,0,0-.2,0-.3,0s-.3,0-.4,.1c-.1,0-.2,.2-.3,.4s0,.4,0,.8v1.6h-1v-3.6h.9v.5c.3-.4,.7-.6,1.2-.6s.4,0,.6,.1c.2,0,.3,.2,.4,.3s.2,.3,.2,.4,0,.4,0,.6v2.3Z"/><path d="M377.8,224.4h1s.1,.2,.2,.3c.1,0,.3,.1,.5,.1s.4,0,.6-.1c0,0,.1-.1,.1-.3s0-.1,0-.2c0,0-.2,0-.3-.1-.8-.2-1.3-.3-1.5-.5-.3-.2-.4-.5-.4-.8s.1-.6,.4-.8,.6-.3,1.2-.3,.9,0,1.1,.2,.4,.4,.5,.7l-.9,.2c0-.1-.1-.2-.2-.3s-.3-.1-.5-.1-.4,0-.5,.1c0,0-.1,.1-.1,.2s0,.1,0,.2c0,0,.4,.2,.9,.3s.9,.3,1.1,.4c.2,.2,.3,.4,.3,.7s-.1,.6-.4,.9-.7,.4-1.2,.4-.9-.1-1.2-.3-.5-.5-.6-.8Z"/><path d="M383.7,221.8v.8h-.7v1.5c0,.3,0,.5,0,.5,0,0,0,0,0,.1,0,0,0,0,.2,0s.2,0,.4,0v.7c-.1,0-.4,.1-.7,.1s-.3,0-.5,0c-.1,0-.2-.1-.3-.2,0,0-.1-.2-.1-.4,0-.1,0-.3,0-.7v-1.6h-.4v-.8h.4v-.7l1-.6v1.3h.7Z"/><path d="M384.4,221.3v-.9h1v.9h-1Zm0,4.1v-3.6h1v3.6h-1Z"/><path d="M388,221.8v.8h-.7v1.5c0,.3,0,.5,0,.5,0,0,0,0,0,.1,0,0,0,0,.2,0s.2,0,.4,0v.7c-.1,0-.4,.1-.7,.1s-.3,0-.5,0c-.1,0-.2-.1-.3-.2,0,0-.1-.2-.1-.4,0-.1,0-.3,0-.7v-1.6h-.4v-.8h.4v-.7l1-.6v1.3h.7Z"/><path d="M391,225.4v-.5c-.1,.2-.3,.3-.5,.5-.2,.1-.4,.2-.7,.2s-.5,0-.7-.2-.3-.3-.4-.5c0-.2-.1-.5-.1-.8v-2.3h1v1.7c0,.5,0,.8,0,.9,0,.1,0,.2,.2,.3,0,0,.2,.1,.4,.1s.3,0,.4-.1c.1,0,.2-.2,.3-.3,0-.1,0-.5,0-1v-1.5h1v3.6h-.9Z"/><path d="M394.6,221.8v.8h-.7v1.5c0,.3,0,.5,0,.5,0,0,0,0,0,.1,0,0,0,0,.2,0s.2,0,.4,0v.7c-.1,0-.4,.1-.7,.1s-.3,0-.5,0c-.1,0-.2-.1-.3-.2,0,0-.1-.2-.1-.4,0-.1,0-.3,0-.7v-1.6h-.4v-.8h.4v-.7l1-.6v1.3h.7Z"/><path d="M395.3,221.3v-.9h1v.9h-1Zm0,4.1v-3.6h1v3.6h-1Z"/><path d="M397,223.6c0-.3,0-.6,.2-.9,.2-.3,.4-.5,.7-.7s.6-.2,1-.2c.5,0,1,.2,1.3,.5,.4,.4,.5,.8,.5,1.4s-.2,1-.5,1.4c-.4,.4-.8,.5-1.3,.5s-.6,0-1-.2-.5-.4-.7-.7c-.2-.3-.2-.6-.2-1.1Zm1,0c0,.4,0,.6,.3,.8,.2,.2,.4,.3,.6,.3s.5,0,.6-.3,.3-.5,.3-.8,0-.6-.3-.8-.4-.3-.6-.3-.5,0-.6,.3c-.2,.2-.3,.5-.3,.8Z"/><path d="M404.8,225.4h-1v-1.9c0-.4,0-.6,0-.8,0-.1-.1-.2-.2-.3,0,0-.2,0-.3,0s-.3,0-.4,.1c-.1,0-.2,.2-.3,.4s0,.4,0,.8v1.6h-1v-3.6h.9v.5c.3-.4,.7-.6,1.2-.6s.4,0,.6,.1c.2,0,.3,.2,.4,.3s.2,.3,.2,.4,0,.4,0,.6v2.3Z"/><path d="M405.4,224.4h1s.1,.2,.2,.3c.1,0,.3,.1,.5,.1s.4,0,.6-.1c0,0,.1-.1,.1-.3s0-.1,0-.2c0,0-.2,0-.3-.1-.8-.2-1.3-.3-1.5-.5-.3-.2-.4-.5-.4-.8s.1-.6,.4-.8,.6-.3,1.2-.3,.9,0,1.1,.2,.4,.4,.5,.7l-.9,.2c0-.1-.1-.2-.2-.3s-.3-.1-.5-.1-.4,0-.5,.1c0,0-.1,.1-.1,.2s0,.1,0,.2c0,0,.4,.2,.9,.3s.9,.3,1.1,.4c.2,.2,.3,.4,.3,.7s-.1,.6-.4,.9-.7,.4-1.2,.4-.9-.1-1.2-.3-.5-.5-.6-.8Z"/></g><g><rect class="h" x="215.8" y="244.1" width="8.7" height="7.9"/><rect class="e" x="268.6" y="244.1" width="8.7" height="7.9"/><g><path d="M231.8,249.6v.6h-3.3c0-.1,0-.3,0-.4,0-.2,.2-.4,.4-.7,.2-.2,.5-.5,.8-.8,.5-.4,.9-.8,1.1-1.1,.2-.3,.3-.5,.3-.7s0-.4-.3-.6c-.2-.2-.4-.3-.7-.3s-.5,0-.7,.3-.3,.4-.3,.7h-.6c0-.5,.2-.9,.5-1.1,.3-.2,.7-.4,1.1-.4s.9,.1,1.1,.4,.4,.6,.4,1,0,.4-.1,.6-.2,.4-.4,.6c-.2,.2-.5,.5-.9,.9-.4,.3-.6,.5-.7,.6-.1,.1-.2,.2-.3,.3h2.5Z"/><path d="M232.5,247.7c0-.6,0-1.1,.2-1.4,.1-.4,.3-.6,.5-.8,.2-.2,.5-.3,.9-.3s.5,0,.7,.2c.2,.1,.4,.3,.5,.5,.1,.2,.2,.5,.3,.7,0,.3,.1,.7,.1,1.2s0,1.1-.2,1.4c-.1,.4-.3,.6-.5,.8-.2,.2-.5,.3-.9,.3s-.9-.2-1.1-.5c-.3-.4-.5-1.1-.5-2Zm.6,0c0,.8,0,1.4,.3,1.6,.2,.3,.4,.4,.7,.4s.5-.1,.7-.4c.2-.3,.3-.8,.3-1.6s0-1.4-.3-1.6c-.2-.3-.4-.4-.7-.4s-.5,.1-.7,.4c-.2,.3-.3,.9-.3,1.7Z"/><path d="M238.7,250.1h-.6v-3.9c-.1,.1-.3,.3-.6,.4-.2,.1-.5,.2-.6,.3v-.6c.3-.2,.6-.4,.9-.6s.4-.5,.5-.7h.4v5Z"/><path d="M240.3,247.7c0-.6,0-1.1,.2-1.4,.1-.4,.3-.6,.5-.8,.2-.2,.5-.3,.9-.3s.5,0,.7,.2c.2,.1,.4,.3,.5,.5,.1,.2,.2,.5,.3,.7,0,.3,.1,.7,.1,1.2s0,1.1-.2,1.4c-.1,.4-.3,.6-.5,.8-.2,.2-.5,.3-.9,.3s-.9-.2-1.1-.5c-.3-.4-.5-1.1-.5-2Zm.6,0c0,.8,0,1.4,.3,1.6,.2,.3,.4,.4,.7,.4s.5-.1,.7-.4c.2-.3,.3-.8,.3-1.6s0-1.4-.3-1.6c-.2-.3-.4-.4-.7-.4s-.5,.1-.7,.4c-.2,.3-.3,.9-.3,1.7Z"/><path d="M243.8,248.6v-.5h3.9v.5h-3.9Z"/><path d="M250.4,250.1h-.6v-3.9c-.1,.1-.3,.3-.6,.4-.2,.1-.5,.2-.6,.3v-.6c.3-.2,.6-.4,.9-.6s.4-.5,.5-.7h.4v5Z"/><path d="M253.7,250.1h-.6v-3.9c-.1,.1-.3,.3-.6,.4-.2,.1-.5,.2-.6,.3v-.6c.3-.2,.6-.4,.9-.6s.4-.5,.5-.7h.4v5Z"/></g><g><path d="M284.7,249.6v.6h-3.3c0-.1,0-.3,0-.4,0-.2,.2-.4,.4-.7s.5-.5,.8-.8c.5-.4,.9-.8,1.1-1.1,.2-.3,.3-.5,.3-.7s0-.4-.3-.6c-.2-.2-.4-.3-.7-.3s-.5,0-.7,.3-.3,.4-.3,.7h-.6c0-.5,.2-.9,.5-1.1,.3-.2,.7-.4,1.1-.4s.9,.1,1.1,.4,.4,.6,.4,1,0,.4-.1,.6-.2,.4-.4,.6-.5,.5-.9,.9c-.4,.3-.6,.5-.7,.6-.1,.1-.2,.2-.3,.3h2.5Z"/><path d="M285.3,247.7c0-.6,0-1.1,.2-1.4,.1-.4,.3-.6,.5-.8s.5-.3,.9-.3,.5,0,.7,.2c.2,.1,.4,.3,.5,.5,.1,.2,.2,.5,.3,.7,0,.3,.1,.7,.1,1.2s0,1.1-.2,1.4c-.1,.4-.3,.6-.5,.8-.2,.2-.5,.3-.9,.3s-.9-.2-1.1-.5c-.3-.4-.5-1.1-.5-2Zm.6,0c0,.8,0,1.4,.3,1.6,.2,.3,.4,.4,.7,.4s.5-.1,.7-.4,.3-.8,.3-1.6,0-1.4-.3-1.6-.4-.4-.7-.4-.5,.1-.7,.4c-.2,.3-.3,.9-.3,1.7Z"/><path d="M292.4,249.6v.6h-3.3c0-.1,0-.3,0-.4,0-.2,.2-.4,.4-.7s.5-.5,.8-.8c.5-.4,.9-.8,1.1-1.1,.2-.3,.3-.5,.3-.7s0-.4-.3-.6c-.2-.2-.4-.3-.7-.3s-.5,0-.7,.3-.3,.4-.3,.7h-.6c0-.5,.2-.9,.5-1.1,.3-.2,.7-.4,1.1-.4s.9,.1,1.1,.4,.4,.6,.4,1,0,.4-.1,.6-.2,.4-.4,.6-.5,.5-.9,.9c-.4,.3-.6,.5-.7,.6-.1,.1-.2,.2-.3,.3h2.5Z"/><path d="M293.1,247.7c0-.6,0-1.1,.2-1.4,.1-.4,.3-.6,.5-.8s.5-.3,.9-.3,.5,0,.7,.2c.2,.1,.4,.3,.5,.5,.1,.2,.2,.5,.3,.7,0,.3,.1,.7,.1,1.2s0,1.1-.2,1.4c-.1,.4-.3,.6-.5,.8-.2,.2-.5,.3-.9,.3s-.9-.2-1.1-.5c-.3-.4-.5-1.1-.5-2Zm.6,0c0,.8,0,1.4,.3,1.6,.2,.3,.4,.4,.7,.4s.5-.1,.7-.4,.3-.8,.3-1.6,0-1.4-.3-1.6-.4-.4-.7-.4-.5,.1-.7,.4c-.2,.3-.3,.9-.3,1.7Z"/><path d="M296.7,248.6v-.5h3.9v.5h-3.9Z"/><path d="M304.1,249.6v.6h-3.3c0-.1,0-.3,0-.4,0-.2,.2-.4,.4-.7s.5-.5,.8-.8c.5-.4,.9-.8,1.1-1.1,.2-.3,.3-.5,.3-.7s0-.4-.3-.6c-.2-.2-.4-.3-.7-.3s-.5,0-.7,.3-.3,.4-.3,.7h-.6c0-.5,.2-.9,.5-1.1,.3-.2,.7-.4,1.1-.4s.9,.1,1.1,.4,.4,.6,.4,1,0,.4-.1,.6-.2,.4-.4,.6-.5,.5-.9,.9c-.4,.3-.6,.5-.7,.6-.1,.1-.2,.2-.3,.3h2.5Z"/><path d="M307.1,250.1h-.6v-3.9c-.1,.1-.3,.3-.6,.4s-.5,.2-.6,.3v-.6c.3-.2,.6-.4,.9-.6,.3-.2,.4-.5,.5-.7h.4v5Z"/></g></g><g><path d="M6.9,7.5h-1.1l-.4-1.1H3.4l-.4,1.1H1.9L3.8,2.5h1.1l2,5Zm-1.9-2l-.7-1.9-.7,1.9h1.4Z"/><path d="M7.4,3.8h.9v.5c.3-.4,.7-.6,1.1-.6s.4,0,.6,.1,.3,.2,.4,.4c.2-.2,.3-.3,.5-.4s.4-.1,.6-.1,.5,0,.7,.2c.2,.1,.3,.3,.4,.5,0,.2,0,.4,0,.8v2.3h-1v-2.1c0-.4,0-.6,0-.7,0-.1-.2-.2-.4-.2s-.3,0-.4,.1-.2,.2-.3,.4c0,.2,0,.4,0,.8v1.7h-1v-2c0-.4,0-.6,0-.7s0-.2-.2-.2c0,0-.2,0-.3,0s-.3,0-.4,.1-.2,.2-.3,.3c0,.2,0,.4,0,.7v1.8h-1V3.8Z"/><path d="M13.5,5.6c0-.3,0-.6,.2-.9s.4-.5,.7-.7c.3-.2,.6-.2,1-.2,.5,0,1,.2,1.4,.5,.4,.4,.5,.8,.5,1.4s-.2,1-.5,1.4c-.4,.4-.8,.5-1.3,.5s-.6,0-1-.2c-.3-.2-.5-.4-.7-.7-.2-.3-.2-.6-.2-1.1Zm1,0c0,.4,0,.6,.3,.8s.4,.3,.6,.3,.5,0,.6-.3c.2-.2,.3-.5,.3-.8s0-.6-.3-.8c-.2-.2-.4-.3-.6-.3s-.5,0-.6,.3-.3,.5-.3,.8Z"/><path d="M20.3,7.5v-.5c-.1,.2-.3,.3-.5,.5-.2,.1-.4,.2-.7,.2s-.5,0-.7-.2-.3-.3-.4-.5-.1-.5-.1-.8V3.8h1v1.7c0,.5,0,.8,0,.9,0,.1,.1,.2,.2,.3,0,0,.2,.1,.4,.1s.3,0,.4-.1c.1,0,.2-.2,.3-.3,0-.1,0-.5,0-1v-1.5h1v3.6h-.9Z"/><path d="M25.5,7.5h-1v-1.9c0-.4,0-.6,0-.8,0-.1-.1-.2-.2-.3,0,0-.2,0-.3,0s-.3,0-.4,.1-.2,.2-.3,.4c0,.2,0,.4,0,.8v1.6h-1V3.8h.9v.5c.3-.4,.7-.6,1.2-.6s.4,0,.6,.1c.2,0,.3,.2,.4,.3,0,.1,.2,.3,.2,.4,0,.2,0,.4,0,.6v2.3Z"/><path d="M28.2,3.8v.8h-.7v1.5c0,.3,0,.5,0,.5,0,0,0,0,0,.1,0,0,0,0,.2,0s.2,0,.4,0v.7c-.1,0-.4,.1-.7,.1s-.3,0-.5,0c-.1,0-.2-.1-.3-.2,0,0-.1-.2-.1-.4,0-.1,0-.3,0-.7v-1.6h-.4v-.8h.4v-.7l1-.6v1.3h.7Z"/></g><g><path class="c" d="M219.4,8.8V2.4h1.4v.5h-.7v5.4h.7v.5h-1.4Z"/><path class="c" d="M221.5,7.4V2.4h.7V7.4h-.7Z"/><path class="c" d="M223.2,7.4V3.8h.6v.5c.3-.4,.7-.6,1.2-.6s.4,0,.6,.1c.2,0,.3,.2,.4,.3s.2,.3,.2,.5c0,.1,0,.3,0,.6v2.2h-.6v-2.2c0-.3,0-.4,0-.6,0-.1-.1-.2-.3-.3-.1,0-.3-.1-.4-.1-.3,0-.5,0-.7,.2-.2,.2-.3,.5-.3,.9v2h-.6Z"/><path class="c" d="M231.5,6.1h.6c0,.5-.2,.8-.5,1.1-.3,.2-.6,.4-1,.4s-.9-.2-1.2-.5c-.3-.3-.5-.8-.5-1.4s0-.7,.2-1,.3-.5,.6-.7c.3-.1,.6-.2,.9-.2s.7,0,1,.3c.3,.2,.4,.5,.5,.8h-.6c0-.2-.2-.3-.3-.5-.1-.1-.3-.2-.5-.2-.3,0-.6,.1-.8,.3-.2,.2-.3,.6-.3,1.1s0,.8,.3,1.1,.4,.3,.7,.3,.4,0,.6-.2,.3-.4,.3-.7Z"/><path class="c" d="M232.4,5.6c0-.7,.2-1.2,.6-1.5,.3-.3,.7-.4,1.1-.4s.9,.2,1.2,.5c.3,.3,.5,.8,.5,1.4s0,.8-.2,1.1c-.1,.3-.3,.5-.6,.6-.3,.1-.6,.2-.9,.2-.5,0-.9-.2-1.2-.5-.3-.3-.5-.8-.5-1.4Zm.6,0c0,.5,.1,.8,.3,1,.2,.2,.5,.3,.8,.3s.6-.1,.8-.3,.3-.6,.3-1.1-.1-.8-.3-1c-.2-.2-.5-.3-.8-.3s-.6,.1-.8,.3-.3,.6-.3,1Z"/><path class="c" d="M236.5,7.4V3.8h.6v.5c.3-.4,.7-.6,1.2-.6s.4,0,.6,.1c.2,0,.3,.2,.4,.3s.2,.3,.2,.5c0,.1,0,.3,0,.6v2.2h-.6v-2.2c0-.3,0-.4,0-.6,0-.1-.1-.2-.3-.3-.1,0-.3-.1-.4-.1-.3,0-.5,0-.7,.2-.2,.2-.3,.5-.3,.9v2h-.6Z"/><path class="c" d="M240.1,6.4h.6c0,.1,.1,.3,.3,.5,.2,.1,.4,.2,.7,.2s.5,0,.6-.2c.1-.1,.2-.2,.2-.4s0-.2-.2-.3c0,0-.3-.1-.6-.2-.5-.1-.8-.2-.9-.3-.2,0-.3-.2-.4-.3,0-.1-.1-.3-.1-.5s0-.3,.1-.4c0-.1,.2-.3,.3-.3,0,0,.2-.1,.4-.2,.2,0,.3,0,.5,0,.3,0,.5,0,.8,.1,.2,0,.4,.2,.5,.3,.1,.1,.2,.3,.2,.6h-.6c0-.1-.1-.3-.2-.4-.1-.1-.3-.2-.6-.2s-.5,0-.6,.1-.2,.2-.2,.3,0,.2,0,.2c0,0,.1,.1,.2,.2,0,0,.2,0,.5,.2,.4,.1,.7,.2,.9,.3,.2,0,.3,.2,.4,.3s.1,.3,.1,.5,0,.4-.2,.6c-.1,.2-.3,.3-.5,.4-.2,0-.5,.1-.8,.1-.5,0-.8,0-1.1-.3-.2-.2-.4-.5-.5-.9Z"/><path class="c" d="M245.2,6.9v.5c0,0-.2,0-.4,0-.2,0-.4,0-.5-.1s-.2-.2-.3-.3c0-.1,0-.4,0-.7v-2.1h-.5v-.5h.5v-.9l.6-.4v1.3h.6v.5h-.6v2.1c0,.2,0,.3,0,.3,0,0,0,0,.1,.1,0,0,.1,0,.2,0s.2,0,.3,0Z"/><path class="c" d="M248.2,7c-.2,.2-.4,.3-.7,.4-.2,0-.4,.1-.7,.1-.4,0-.7,0-.9-.3-.2-.2-.3-.4-.3-.7s0-.3,.1-.5c0-.1,.2-.3,.3-.4,.1,0,.3-.2,.4-.2,.1,0,.3,0,.5,0,.5,0,.9-.1,1.1-.2,0,0,0-.1,0-.2,0-.3,0-.4-.2-.5-.2-.1-.4-.2-.7-.2s-.5,0-.6,.2c-.1,.1-.2,.3-.3,.5h-.6c0-.3,.1-.5,.3-.7,.1-.2,.3-.3,.5-.4,.2,0,.5-.1,.8-.1s.6,0,.8,.1,.3,.2,.4,.3c0,.1,.2,.2,.2,.4,0,.1,0,.3,0,.6v.8c0,.6,0,.9,0,1.1,0,.2,0,.3,.2,.4h-.6c0-.1-.1-.3-.1-.4Zm0-1.4c-.2,0-.6,.2-1,.2-.3,0-.4,0-.5,.1s-.2,.1-.2,.2c0,0,0,.2,0,.3,0,.2,0,.3,.2,.4,.1,.1,.3,.2,.5,.2s.4,0,.6-.2c.2-.1,.3-.2,.4-.4,0-.1,0-.3,0-.6v-.2Z"/><path class="c" d="M249.7,7.4V3.8h.6v.5c.3-.4,.7-.6,1.2-.6s.4,0,.6,.1c.2,0,.3,.2,.4,.3s.2,.3,.2,.5c0,.1,0,.3,0,.6v2.2h-.6v-2.2c0-.3,0-.4,0-.6,0-.1-.1-.2-.3-.3-.1,0-.3-.1-.4-.1-.3,0-.5,0-.7,.2-.2,.2-.3,.5-.3,.9v2h-.6Z"/><path class="c" d="M254.9,6.9v.5c0,0-.2,0-.4,0-.2,0-.4,0-.5-.1s-.2-.2-.3-.3c0-.1,0-.4,0-.7v-2.1h-.5v-.5h.5v-.9l.6-.4v1.3h.6v.5h-.6v2.1c0,.2,0,.3,0,.3,0,0,0,0,.1,.1,0,0,.1,0,.2,0s.2,0,.3,0Z"/><path class="c" d="M260.6,6.9v.6h-3.3c0-.1,0-.3,0-.4,0-.2,.2-.4,.4-.7,.2-.2,.5-.5,.8-.8,.5-.4,.9-.8,1.1-1.1,.2-.3,.3-.5,.3-.7s0-.4-.3-.6c-.2-.2-.4-.3-.7-.3s-.5,0-.7,.3-.3,.4-.3,.7h-.6c0-.5,.2-.9,.5-1.1,.3-.2,.7-.4,1.1-.4s.9,.1,1.1,.4,.4,.6,.4,1,0,.4-.1,.6-.2,.4-.4,.6c-.2,.2-.5,.5-.9,.9-.4,.3-.6,.5-.7,.6-.1,.1-.2,.2-.3,.3h2.5Z"/><path class="c" d="M261.2,5c0-.6,0-1.1,.2-1.4,.1-.4,.3-.6,.5-.8,.2-.2,.5-.3,.9-.3s.5,0,.7,.2c.2,.1,.4,.3,.5,.5,.1,.2,.2,.5,.3,.7,0,.3,.1,.7,.1,1.2s0,1.1-.2,1.4c-.1,.4-.3,.6-.5,.8-.2,.2-.5,.3-.9,.3s-.9-.2-1.1-.5c-.3-.4-.5-1.1-.5-2Zm.6,0c0,.8,0,1.4,.3,1.6,.2,.3,.4,.4,.7,.4s.5-.1,.7-.4,.3-.8,.3-1.6,0-1.4-.3-1.6-.4-.4-.7-.4-.5,.1-.7,.4c-.2,.3-.3,.9-.3,1.7Z"/><path class="c" d="M268.3,6.9v.6h-3.3c0-.1,0-.3,0-.4,0-.2,.2-.4,.4-.7s.5-.5,.8-.8c.5-.4,.9-.8,1.1-1.1,.2-.3,.3-.5,.3-.7s0-.4-.3-.6c-.2-.2-.4-.3-.7-.3s-.5,0-.7,.3-.3,.4-.3,.7h-.6c0-.5,.2-.9,.5-1.1,.3-.2,.7-.4,1.1-.4s.9,.1,1.1,.4,.4,.6,.4,1,0,.4-.1,.6-.2,.4-.4,.6-.5,.5-.9,.9c-.4,.3-.6,.5-.7,.6-.1,.1-.2,.2-.3,.3h2.5Z"/><path class="c" d="M269,5c0-.6,0-1.1,.2-1.4,.1-.4,.3-.6,.5-.8s.5-.3,.9-.3,.5,0,.7,.2c.2,.1,.4,.3,.5,.5,.1,.2,.2,.5,.3,.7,0,.3,.1,.7,.1,1.2s0,1.1-.2,1.4c-.1,.4-.3,.6-.5,.8-.2,.2-.5,.3-.9,.3s-.9-.2-1.1-.5c-.3-.4-.5-1.1-.5-2Zm.6,0c0,.8,0,1.4,.3,1.6,.2,.3,.4,.4,.7,.4s.5-.1,.7-.4,.3-.8,.3-1.6,0-1.4-.3-1.6-.4-.4-.7-.4-.5,.1-.7,.4c-.2,.3-.3,.9-.3,1.7Z"/><path class="c" d="M272.6,5.9v-.5h3.9v.5h-3.9Z"/><path class="c" d="M280,6.9v.6h-3.3c0-.1,0-.3,0-.4,0-.2,.2-.4,.4-.7s.5-.5,.8-.8c.5-.4,.9-.8,1.1-1.1,.2-.3,.3-.5,.3-.7s0-.4-.3-.6c-.2-.2-.4-.3-.7-.3s-.5,0-.7,.3-.3,.4-.3,.7h-.6c0-.5,.2-.9,.5-1.1,.3-.2,.7-.4,1.1-.4s.9,.1,1.1,.4,.4,.6,.4,1,0,.4-.1,.6-.2,.4-.4,.6-.5,.5-.9,.9c-.4,.3-.6,.5-.7,.6-.1,.1-.2,.2-.3,.3h2.5Z"/><path class="c" d="M283,7.4h-.6V3.5c-.1,.1-.3,.3-.6,.4s-.5,.2-.6,.3v-.6c.3-.2,.6-.4,.9-.6,.3-.2,.4-.5,.5-.7h.4V7.4Z"/><path class="c" d="M289,7.4v-.5c-.2,.4-.6,.5-1,.5s-.6,0-.8-.2c-.2-.2-.4-.4-.6-.7-.1-.3-.2-.6-.2-1s0-.7,.2-1c.1-.3,.3-.5,.5-.7s.5-.2,.8-.2,.4,0,.6,.1c.2,0,.3,.2,.4,.4v-1.8h.6V7.4h-.6Zm-1.9-1.8c0,.5,0,.8,.3,1,.2,.2,.4,.3,.7,.3s.5-.1,.7-.3c.2-.2,.3-.6,.3-1s0-.9-.3-1.1-.4-.3-.7-.3-.5,.1-.7,.3-.3,.6-.3,1.1Z"/><path class="c" d="M290.3,5.6c0-.7,.2-1.2,.6-1.5,.3-.3,.7-.4,1.1-.4s.9,.2,1.2,.5c.3,.3,.5,.8,.5,1.4s0,.8-.2,1.1c-.1,.3-.3,.5-.6,.6s-.6,.2-.9,.2c-.5,0-.9-.2-1.2-.5s-.5-.8-.5-1.4Zm.6,0c0,.5,.1,.8,.3,1,.2,.2,.5,.3,.8,.3s.6-.1,.8-.3c.2-.2,.3-.6,.3-1.1s-.1-.8-.3-1c-.2-.2-.5-.3-.8-.3s-.6,.1-.8,.3-.3,.6-.3,1Z"/><path class="c" d="M294.5,7.4V2.4h.6V7.4h-.6Z"/><path class="c" d="M296,7.4V2.4h.6V7.4h-.6Z"/><path class="c" d="M299.9,7c-.2,.2-.4,.3-.7,.4s-.4,.1-.7,.1c-.4,0-.7,0-.9-.3-.2-.2-.3-.4-.3-.7s0-.3,.1-.5c0-.1,.2-.3,.3-.4s.3-.2,.4-.2c.1,0,.3,0,.5,0,.5,0,.9-.1,1.1-.2,0,0,0-.1,0-.2,0-.3,0-.4-.2-.5-.2-.1-.4-.2-.7-.2s-.5,0-.6,.2c-.1,.1-.2,.3-.3,.5h-.6c0-.3,.1-.5,.3-.7,.1-.2,.3-.3,.5-.4,.2,0,.5-.1,.8-.1s.6,0,.8,.1c.2,0,.3,.2,.4,.3,0,.1,.2,.2,.2,.4,0,.1,0,.3,0,.6v.8c0,.6,0,.9,0,1.1,0,.2,0,.3,.2,.4h-.6c0-.1-.1-.3-.1-.4Zm0-1.4c-.2,0-.6,.2-1,.2-.3,0-.4,0-.5,.1s-.2,.1-.2,.2c0,0,0,.2,0,.3,0,.2,0,.3,.2,.4s.3,.2,.5,.2,.4,0,.6-.2c.2-.1,.3-.2,.4-.4,0-.1,0-.3,0-.6v-.2Z"/><path class="c" d="M301.5,7.4V3.8h.6v.6c.1-.3,.3-.4,.4-.5,.1,0,.3-.1,.4-.1,.2,0,.4,0,.6,.2l-.2,.6c-.2,0-.3-.1-.5-.1s-.3,0-.4,.1c-.1,0-.2,.2-.2,.3,0,.2-.1,.5-.1,.7v1.9h-.6Z"/><path class="c" d="M303.6,6.4h.6c0,.1,.1,.3,.3,.5s.4,.2,.7,.2,.5,0,.6-.2c.1-.1,.2-.2,.2-.4s0-.2-.2-.3c0,0-.3-.1-.6-.2-.5-.1-.8-.2-.9-.3-.2,0-.3-.2-.4-.3,0-.1-.1-.3-.1-.5s0-.3,.1-.4c0-.1,.2-.3,.3-.3,0,0,.2-.1,.4-.2,.2,0,.3,0,.5,0,.3,0,.5,0,.8,.1,.2,0,.4,.2,.5,.3,.1,.1,.2,.3,.2,.6h-.6c0-.1-.1-.3-.2-.4s-.3-.2-.6-.2-.5,0-.6,.1-.2,.2-.2,.3,0,.2,0,.2c0,0,.1,.1,.2,.2,0,0,.2,0,.5,.2,.4,.1,.7,.2,.9,.3,.2,0,.3,.2,.4,.3s.1,.3,.1,.5,0,.4-.2,.6c-.1,.2-.3,.3-.5,.4-.2,0-.5,.1-.8,.1-.5,0-.8,0-1.1-.3s-.4-.5-.5-.9Z"/><path class="c" d="M308.3,8.8h-1.4v-.5h.7V2.9h-.7v-.5h1.4v6.4Z"/></g><rect class="b" x="42" y="142.1" width="25.1" height="11.1"/><rect class="b" x="143.5" y="52" width="28.8" height="11.1"/><rect class="b" x="117.7" y="69.2" width="28.8" height="11.1"/><rect class="b" x="196.5" y="112.8" width="27.9" height="11.1"/><rect class="b" x="270.1" y="156.1" width="27.9" height="11.1"/><rect class="b" x="378.2" y="110.4" width="23.7" height="11.1"/><rect class="b" x="425.5" y="114.9" width="30.1" height="11.1"/><g><path d="M46.4,153.8v-.6c-.3,0-.6-.1-.8-.2-.2,0-.4-.3-.5-.5s-.2-.5-.2-.8h.6c0,.2,.1,.5,.3,.6,.2,.2,.4,.3,.6,.4v-2c-.3,0-.5-.1-.8-.3-.2-.1-.3-.3-.5-.5s-.2-.4-.2-.7c0-.4,.2-.8,.5-1.1,.2-.2,.5-.3,.9-.3v-.3h.4v.3c.4,0,.6,.1,.9,.3,.3,.2,.4,.5,.5,.9h-.6c0-.1-.1-.3-.2-.5-.1-.1-.3-.2-.5-.3v1.8c.3,0,.5,.1,.6,.2,.2,0,.3,.2,.5,.3s.2,.3,.3,.4,0,.3,0,.5c0,.4-.1,.8-.4,1.1s-.6,.4-1.1,.5v.6h-.4Zm0-5.4c-.2,0-.4,.1-.6,.3-.1,.2-.2,.3-.2,.6s0,.4,.2,.5c.1,.1,.3,.3,.6,.3v-1.7Zm.4,4.3c.2,0,.4-.1,.6-.3,.2-.2,.2-.4,.2-.7s0-.4-.2-.5c-.1-.1-.3-.3-.7-.4v1.9Z"/><path d="M49.8,150.3c-.3,0-.4-.2-.6-.4s-.2-.4-.2-.6c0-.4,.1-.7,.4-.9s.6-.4,1-.4,.8,.1,1.1,.4c.3,.3,.4,.6,.4,.9s0,.4-.2,.6c-.1,.2-.3,.3-.6,.4,.3,.1,.5,.3,.7,.5s.2,.5,.2,.8-.2,.8-.5,1.1-.7,.4-1.2,.4-.9-.1-1.2-.4c-.3-.3-.5-.7-.5-1.1s0-.6,.2-.8c.2-.2,.4-.4,.7-.4Zm-.3,1.3c0,.2,0,.3,.1,.5,0,.2,.2,.3,.4,.4,.2,0,.3,.1,.5,.1,.3,0,.5,0,.7-.3s.3-.4,.3-.7,0-.5-.3-.7c-.2-.2-.4-.3-.7-.3s-.5,0-.7,.3c-.2,.2-.3,.4-.3,.7Zm.2-2.3c0,.2,0,.4,.2,.6s.4,.2,.6,.2,.4,0,.6-.2c.2-.1,.2-.3,.2-.5s0-.4-.2-.6c-.2-.2-.4-.2-.6-.2s-.4,0-.6,.2-.2,.3-.2,.5Z"/><path d="M53.1,153.1v-.7h.7v.7c0,.3,0,.5-.1,.6,0,.2-.2,.3-.4,.4l-.2-.3c.1,0,.2-.1,.3-.3,0-.1,0-.3,.1-.5h-.3Z"/><path d="M54.7,151.7h.6c0,.3,.2,.5,.3,.7,.2,.2,.4,.2,.6,.2s.5-.1,.8-.3,.3-.5,.3-.9,0-.6-.3-.8c-.2-.2-.5-.3-.8-.3s-.4,0-.5,.1c-.2,0-.3,.2-.4,.4h-.6l.5-2.6h2.5v.6h-2l-.3,1.3c.3-.2,.6-.3,.9-.3s.8,.2,1.1,.5,.5,.7,.5,1.2-.1,.8-.4,1.2c-.3,.4-.8,.6-1.3,.6s-.8-.1-1.1-.4c-.3-.3-.5-.6-.5-1Z"/><path d="M58.6,150.6c0-.6,0-1.1,.2-1.4,.1-.4,.3-.6,.5-.8,.2-.2,.5-.3,.9-.3s.5,0,.7,.2c.2,.1,.4,.3,.5,.5,.1,.2,.2,.5,.3,.7,0,.3,.1,.7,.1,1.2s0,1.1-.2,1.4c-.1,.4-.3,.6-.5,.8-.2,.2-.5,.3-.9,.3s-.9-.2-1.1-.5c-.3-.4-.5-1.1-.5-2Zm.6,0c0,.8,0,1.4,.3,1.6,.2,.3,.4,.4,.7,.4s.5-.1,.7-.4c.2-.3,.3-.8,.3-1.6s0-1.4-.3-1.6c-.2-.3-.4-.4-.7-.4s-.5,.1-.7,.4c-.2,.3-.3,.9-.3,1.7Z"/><path d="M62.5,150.6c0-.6,0-1.1,.2-1.4,.1-.4,.3-.6,.5-.8,.2-.2,.5-.3,.9-.3s.5,0,.7,.2c.2,.1,.4,.3,.5,.5,.1,.2,.2,.5,.3,.7,0,.3,.1,.7,.1,1.2s0,1.1-.2,1.4c-.1,.4-.3,.6-.5,.8-.2,.2-.5,.3-.9,.3s-.9-.2-1.1-.5c-.3-.4-.5-1.1-.5-2Zm.6,0c0,.8,0,1.4,.3,1.6,.2,.3,.4,.4,.7,.4s.5-.1,.7-.4c.2-.3,.3-.8,.3-1.6s0-1.4-.3-1.6c-.2-.3-.4-.4-.7-.4s-.5,.1-.7,.4c-.2,.3-.3,.9-.3,1.7Z"/></g><g><path d="M72.2,148v-.6c-.3,0-.6-.1-.8-.2-.2,0-.4-.3-.5-.5s-.2-.5-.2-.8h.6c0,.2,.1,.5,.3,.6,.2,.2,.4,.3,.6,.4v-2c-.3,0-.5-.1-.8-.3-.2-.1-.3-.3-.5-.5s-.2-.4-.2-.7c0-.4,.2-.8,.5-1.1,.2-.2,.5-.3,.9-.3v-.3h.4v.3c.4,0,.6,.1,.9,.3,.3,.2,.4,.5,.5,.9h-.6c0-.1-.1-.3-.2-.5-.1-.1-.3-.2-.5-.3v1.8c.3,0,.5,.1,.6,.2,.2,0,.3,.2,.5,.3s.2,.3,.3,.4,0,.3,0,.5c0,.4-.1,.8-.4,1.1s-.6,.4-1.1,.5v.6h-.4Zm0-5.4c-.2,0-.4,.1-.6,.3-.1,.2-.2,.3-.2,.6s0,.4,.2,.5c.1,.1,.3,.3,.6,.3v-1.7Zm.4,4.3c.2,0,.4-.1,.6-.3,.2-.2,.2-.4,.2-.7s0-.4-.2-.5c-.1-.1-.3-.3-.7-.4v1.9Z"/><path d="M74.7,146.1h.6c0,.2,.1,.4,.3,.6s.3,.2,.5,.2,.4,0,.5-.1c.1,0,.3-.2,.4-.3,0-.1,.2-.3,.2-.6s0-.5,0-.8,0,0,0-.1c-.1,.2-.3,.4-.5,.5-.2,.1-.4,.2-.7,.2-.4,0-.8-.2-1.1-.5s-.4-.7-.4-1.2,.1-.9,.4-1.2c.3-.3,.7-.5,1.1-.5s.6,0,.9,.3,.5,.4,.6,.8,.2,.8,.2,1.4,0,1.2-.2,1.5-.3,.7-.6,.9c-.3,.2-.6,.3-1,.3s-.7-.1-1-.3c-.2-.2-.4-.5-.4-.9Zm2.5-2.2c0-.4,0-.6-.3-.8s-.4-.3-.7-.3-.5,.1-.7,.3-.3,.5-.3,.9,0,.6,.3,.8c.2,.2,.4,.3,.7,.3s.5,0,.7-.3c.2-.2,.3-.5,.3-.8Z"/><path d="M78.9,147.3v-.7h.7v.7c0,.3,0,.5-.1,.6,0,.2-.2,.3-.4,.4l-.2-.3c.1,0,.2-.1,.3-.3,0-.1,0-.3,.1-.5h-.3Z"/><path d="M82.5,147.3v-1.2h-2.2v-.6l2.3-3.2h.5v3.2h.7v.6h-.7v1.2h-.6Zm0-1.8v-2.3l-1.6,2.3h1.6Z"/><path d="M84.4,144.8c0-.6,0-1.1,.2-1.4,.1-.4,.3-.6,.5-.8,.2-.2,.5-.3,.9-.3s.5,0,.7,.2c.2,.1,.4,.3,.5,.5,.1,.2,.2,.5,.3,.7,0,.3,.1,.7,.1,1.2s0,1.1-.2,1.4c-.1,.4-.3,.6-.5,.8-.2,.2-.5,.3-.9,.3s-.9-.2-1.1-.5c-.3-.4-.5-1.1-.5-2Zm.6,0c0,.8,0,1.4,.3,1.6,.2,.3,.4,.4,.7,.4s.5-.1,.7-.4c.2-.3,.3-.8,.3-1.6s0-1.4-.3-1.6c-.2-.3-.4-.4-.7-.4s-.5,.1-.7,.4c-.2,.3-.3,.9-.3,1.7Z"/><path d="M88.3,144.8c0-.6,0-1.1,.2-1.4,.1-.4,.3-.6,.5-.8,.2-.2,.5-.3,.9-.3s.5,0,.7,.2c.2,.1,.4,.3,.5,.5,.1,.2,.2,.5,.3,.7,0,.3,.1,.7,.1,1.2s0,1.1-.2,1.4c-.1,.4-.3,.6-.5,.8-.2,.2-.5,.3-.9,.3s-.9-.2-1.1-.5c-.3-.4-.5-1.1-.5-2Zm.6,0c0,.8,0,1.4,.3,1.6,.2,.3,.4,.4,.7,.4s.5-.1,.7-.4c.2-.3,.3-.8,.3-1.6s0-1.4-.3-1.6c-.2-.3-.4-.4-.7-.4s-.5,.1-.7,.4c-.2,.3-.3,.9-.3,1.7Z"/></g><g><path d="M121.7,80.1v-.6c-.3,0-.6-.1-.8-.2-.2,0-.4-.3-.5-.5s-.2-.5-.2-.8h.6c0,.2,.1,.5,.3,.6,.2,.2,.4,.3,.6,.4v-2c-.3,0-.5-.1-.8-.3-.2-.1-.3-.3-.5-.5s-.2-.4-.2-.7c0-.4,.2-.8,.5-1.1,.2-.2,.5-.3,.9-.3v-.3h.4v.3c.4,0,.6,.1,.9,.3,.3,.2,.4,.5,.5,.9h-.6c0-.1-.1-.3-.2-.5-.1-.1-.3-.2-.5-.3v1.8c.3,0,.5,.1,.6,.2,.2,0,.3,.2,.5,.3s.2,.3,.3,.4,0,.3,0,.5c0,.4-.1,.8-.4,1.1s-.6,.4-1.1,.5v.6h-.4Zm0-5.4c-.2,0-.4,.1-.6,.3-.1,.2-.2,.3-.2,.6s0,.4,.2,.5c.1,.1,.3,.3,.6,.3v-1.7Zm.4,4.3c.2,0,.4-.1,.6-.3,.2-.2,.2-.4,.2-.7s0-.4-.2-.5c-.1-.1-.3-.3-.7-.4v1.9Z"/><path d="M124.2,78.1h.6c0,.3,.2,.5,.4,.7,.2,.2,.4,.2,.6,.2s.5-.1,.7-.3c.2-.2,.3-.4,.3-.7s0-.5-.3-.7c-.2-.2-.4-.3-.7-.3s-.3,0-.4,0v-.5c.1,0,.1,0,.2,0,.3,0,.5,0,.7-.2s.3-.3,.3-.6,0-.4-.2-.6-.3-.2-.6-.2-.4,0-.6,.2-.3,.4-.3,.7h-.6c0-.5,.2-.8,.5-1.1,.3-.2,.6-.3,1-.3s.5,0,.8,.2c.2,.1,.4,.3,.5,.5,.1,.2,.2,.4,.2,.6s0,.4-.2,.6-.3,.3-.5,.4c.3,0,.5,.2,.7,.4s.2,.5,.2,.8-.2,.8-.5,1.1-.7,.5-1.2,.5-.8-.1-1.1-.4-.5-.6-.5-1Z"/><path d="M130.4,79.4h-.6v-3.9c-.1,.1-.3,.3-.6,.4-.2,.1-.5,.2-.6,.3v-.6c.3-.2,.6-.4,.9-.6s.4-.5,.5-.7h.4v5Z"/><path d="M132.3,79.4v-.7h.7v.7c0,.3,0,.5-.1,.6,0,.2-.2,.3-.4,.4l-.2-.3c.1,0,.2-.1,.3-.3,0-.1,0-.3,.1-.5h-.3Z"/><path d="M134,75v-.6h3.2v.5c-.3,.3-.6,.8-.9,1.4-.3,.6-.6,1.1-.7,1.7-.1,.4-.2,.9-.2,1.4h-.6c0-.4,0-.9,.2-1.4s.4-1.1,.6-1.6c.3-.5,.6-1,.9-1.3h-2.5Z"/><path d="M137.8,76.9c0-.6,0-1.1,.2-1.4,.1-.4,.3-.6,.5-.8,.2-.2,.5-.3,.9-.3s.5,0,.7,.2c.2,.1,.4,.3,.5,.5,.1,.2,.2,.5,.3,.7,0,.3,.1,.7,.1,1.2s0,1.1-.2,1.4c-.1,.4-.3,.6-.5,.8-.2,.2-.5,.3-.9,.3s-.9-.2-1.1-.5c-.3-.4-.5-1.1-.5-2Zm.6,0c0,.8,0,1.4,.3,1.6,.2,.3,.4,.4,.7,.4s.5-.1,.7-.4c.2-.3,.3-.8,.3-1.6s0-1.4-.3-1.6c-.2-.3-.4-.4-.7-.4s-.5,.1-.7,.4c-.2,.3-.3,.9-.3,1.7Z"/><path d="M141.7,76.9c0-.6,0-1.1,.2-1.4,.1-.4,.3-.6,.5-.8,.2-.2,.5-.3,.9-.3s.5,0,.7,.2c.2,.1,.4,.3,.5,.5,.1,.2,.2,.5,.3,.7,0,.3,.1,.7,.1,1.2s0,1.1-.2,1.4c-.1,.4-.3,.6-.5,.8-.2,.2-.5,.3-.9,.3s-.9-.2-1.1-.5c-.3-.4-.5-1.1-.5-2Zm.6,0c0,.8,0,1.4,.3,1.6,.2,.3,.4,.4,.7,.4s.5-.1,.7-.4c.2-.3,.3-.8,.3-1.6s0-1.4-.3-1.6c-.2-.3-.4-.4-.7-.4s-.5,.1-.7,.4c-.2,.3-.3,.9-.3,1.7Z"/></g><g><path d="M147.5,61.6v-.6c-.3,0-.6-.1-.8-.2-.2,0-.4-.3-.5-.5s-.2-.5-.2-.8h.6c0,.2,.1,.5,.3,.6,.2,.2,.4,.3,.6,.4v-2c-.3,0-.5-.1-.8-.3-.2-.1-.3-.3-.5-.5s-.2-.4-.2-.7c0-.4,.2-.8,.5-1.1,.2-.2,.5-.3,.9-.3v-.3h.4v.3c.4,0,.6,.1,.9,.3,.3,.2,.4,.5,.5,.9h-.6c0-.1-.1-.3-.2-.5-.1-.1-.3-.2-.5-.3v1.8c.3,0,.5,.1,.6,.2,.2,0,.3,.2,.5,.3s.2,.3,.3,.4,0,.3,0,.5c0,.4-.1,.8-.4,1.1s-.6,.4-1.1,.5v.6h-.4Zm0-5.4c-.2,0-.4,.1-.6,.3-.1,.2-.2,.3-.2,.6s0,.4,.2,.5c.1,.1,.3,.3,.6,.3v-1.7Zm.4,4.3c.2,0,.4-.1,.6-.3,.2-.2,.2-.4,.2-.7s0-.4-.2-.5c-.1-.1-.3-.3-.7-.4v1.9Z"/><path d="M149.9,59.6h.6c0,.3,.2,.5,.4,.7,.2,.2,.4,.2,.6,.2s.5-.1,.7-.3c.2-.2,.3-.4,.3-.7s0-.5-.3-.7c-.2-.2-.4-.3-.7-.3s-.3,0-.4,0v-.5c.1,0,.1,0,.2,0,.3,0,.5,0,.7-.2s.3-.3,.3-.6,0-.4-.2-.6-.3-.2-.6-.2-.4,0-.6,.2-.3,.4-.3,.7h-.6c0-.5,.2-.8,.5-1.1,.3-.2,.6-.3,1-.3s.5,0,.8,.2c.2,.1,.4,.3,.5,.5,.1,.2,.2,.4,.2,.6s0,.4-.2,.6-.3,.3-.5,.4c.3,0,.5,.2,.7,.4s.2,.5,.2,.8-.2,.8-.5,1.1-.7,.5-1.2,.5-.8-.1-1.1-.4-.5-.6-.5-1Z"/><path d="M153.9,56.5v-.6h3.2v.5c-.3,.3-.6,.8-.9,1.4-.3,.6-.6,1.1-.7,1.7-.1,.4-.2,.9-.2,1.4h-.6c0-.4,0-.9,.2-1.4s.4-1.1,.6-1.6c.3-.5,.6-1,.9-1.3h-2.5Z"/><path d="M158.1,60.9v-.7h.7v.7c0,.3,0,.5-.1,.6,0,.2-.2,.3-.4,.4l-.2-.3c.1,0,.2-.1,.3-.3,0-.1,0-.3,.1-.5h-.3Z"/><path d="M162.9,57.1h-.6c0-.2-.1-.4-.2-.5-.2-.2-.4-.3-.6-.3s-.4,0-.5,.2c-.2,.1-.3,.3-.5,.6s-.2,.7-.2,1.2c.1-.2,.3-.4,.5-.5s.4-.2,.7-.2c.4,0,.8,.2,1,.5,.3,.3,.4,.7,.4,1.2s0,.6-.2,.9c-.1,.3-.3,.5-.6,.6s-.5,.2-.8,.2c-.5,0-.9-.2-1.3-.6-.3-.4-.5-1-.5-1.9s.2-1.7,.5-2.1c.3-.4,.7-.6,1.3-.6s.7,.1,1,.3c.3,.2,.4,.5,.5,.9Zm-2.5,2.2c0,.2,0,.4,.1,.6,0,.2,.2,.3,.4,.4,.2,.1,.3,.2,.5,.2,.3,0,.5-.1,.7-.3s.3-.5,.3-.9,0-.6-.3-.8c-.2-.2-.4-.3-.7-.3s-.5,0-.7,.3c-.2,.2-.3,.5-.3,.8Z"/><path d="M163.6,58.4c0-.6,0-1.1,.2-1.4,.1-.4,.3-.6,.5-.8,.2-.2,.5-.3,.9-.3s.5,0,.7,.2c.2,.1,.4,.3,.5,.5,.1,.2,.2,.5,.3,.7,0,.3,.1,.7,.1,1.2s0,1.1-.2,1.4c-.1,.4-.3,.6-.5,.8-.2,.2-.5,.3-.9,.3s-.9-.2-1.1-.5c-.3-.4-.5-1.1-.5-2Zm.6,0c0,.8,0,1.4,.3,1.6,.2,.3,.4,.4,.7,.4s.5-.1,.7-.4c.2-.3,.3-.8,.3-1.6s0-1.4-.3-1.6c-.2-.3-.4-.4-.7-.4s-.5,.1-.7,.4c-.2,.3-.3,.9-.3,1.7Z"/><path d="M167.5,58.4c0-.6,0-1.1,.2-1.4,.1-.4,.3-.6,.5-.8,.2-.2,.5-.3,.9-.3s.5,0,.7,.2c.2,.1,.4,.3,.5,.5,.1,.2,.2,.5,.3,.7,0,.3,.1,.7,.1,1.2s0,1.1-.2,1.4c-.1,.4-.3,.6-.5,.8-.2,.2-.5,.3-.9,.3s-.9-.2-1.1-.5c-.3-.4-.5-1.1-.5-2Zm.6,0c0,.8,0,1.4,.3,1.6,.2,.3,.4,.4,.7,.4s.5-.1,.7-.4c.2-.3,.3-.8,.3-1.6s0-1.4-.3-1.6c-.2-.3-.4-.4-.7-.4s-.5,.1-.7,.4c-.2,.3-.3,.9-.3,1.7Z"/></g><g><path d="M199,122.5v-.6c-.3,0-.6-.1-.8-.2-.2,0-.4-.3-.5-.5s-.2-.5-.2-.8h.6c0,.2,.1,.5,.3,.6,.2,.2,.4,.3,.6,.4v-2c-.3,0-.5-.1-.8-.3-.2-.1-.3-.3-.5-.5s-.2-.4-.2-.7c0-.4,.2-.8,.5-1.1,.2-.2,.5-.3,.9-.3v-.3h.4v.3c.4,0,.6,.1,.9,.3,.3,.2,.4,.5,.5,.9h-.6c0-.1-.1-.3-.2-.5-.1-.1-.3-.2-.5-.3v1.8c.3,0,.5,.1,.6,.2,.2,0,.3,.2,.5,.3s.2,.3,.3,.4,0,.3,0,.5c0,.4-.1,.8-.4,1.1s-.6,.4-1.1,.5v.6h-.4Zm0-5.4c-.2,0-.4,.1-.6,.3-.1,.2-.2,.3-.2,.6s0,.4,.2,.5c.1,.1,.3,.3,.6,.3v-1.7Zm.4,4.3c.2,0,.4-.1,.6-.3,.2-.2,.2-.4,.2-.7s0-.4-.2-.5c-.1-.1-.3-.3-.7-.4v1.9Z"/><path d="M203.8,121.8h-.6v-3.9c-.1,.1-.3,.3-.6,.4-.2,.1-.5,.2-.6,.3v-.6c.3-.2,.6-.4,.9-.6s.4-.5,.5-.7h.4v5Z"/><path d="M206.3,119.1c-.3,0-.4-.2-.6-.4s-.2-.4-.2-.6c0-.4,.1-.7,.4-.9s.6-.4,1-.4,.8,.1,1.1,.4c.3,.3,.4,.6,.4,.9s0,.4-.2,.6c-.1,.2-.3,.3-.6,.4,.3,.1,.5,.3,.7,.5s.2,.5,.2,.8-.2,.8-.5,1.1-.7,.4-1.2,.4-.9-.1-1.2-.4c-.3-.3-.5-.7-.5-1.1s0-.6,.2-.8c.2-.2,.4-.4,.7-.4Zm-.3,1.3c0,.2,0,.3,.1,.5,0,.2,.2,.3,.4,.4,.2,0,.3,.1,.5,.1,.3,0,.5,0,.7-.3s.3-.4,.3-.7,0-.5-.3-.7c-.2-.2-.4-.3-.7-.3s-.5,0-.7,.3c-.2,.2-.3,.4-.3,.7Zm.2-2.3c0,.2,0,.4,.2,.6s.4,.2,.6,.2,.4,0,.6-.2c.2-.1,.2-.3,.2-.5s0-.4-.2-.6c-.2-.2-.4-.2-.6-.2s-.4,0-.6,.2-.2,.3-.2,.5Z"/><path d="M209.6,121.8v-.7h.7v.7c0,.3,0,.5-.1,.6,0,.2-.2,.3-.4,.4l-.2-.3c.1,0,.2-.1,.3-.3,0-.1,0-.3,.1-.5h-.3Z"/><path d="M213.5,121.8h-.6v-3.9c-.1,.1-.3,.3-.6,.4-.2,.1-.5,.2-.6,.3v-.6c.3-.2,.6-.4,.9-.6s.4-.5,.5-.7h.4v5Z"/><path d="M215.1,119.3c0-.6,0-1.1,.2-1.4,.1-.4,.3-.6,.5-.8,.2-.2,.5-.3,.9-.3s.5,0,.7,.2c.2,.1,.4,.3,.5,.5,.1,.2,.2,.5,.3,.7,0,.3,.1,.7,.1,1.2s0,1.1-.2,1.4c-.1,.4-.3,.6-.5,.8-.2,.2-.5,.3-.9,.3s-.9-.2-1.1-.5c-.3-.4-.5-1.1-.5-2Zm.6,0c0,.8,0,1.4,.3,1.6,.2,.3,.4,.4,.7,.4s.5-.1,.7-.4c.2-.3,.3-.8,.3-1.6s0-1.4-.3-1.6c-.2-.3-.4-.4-.7-.4s-.5,.1-.7,.4c-.2,.3-.3,.9-.3,1.7Z"/><path d="M219,119.3c0-.6,0-1.1,.2-1.4,.1-.4,.3-.6,.5-.8,.2-.2,.5-.3,.9-.3s.5,0,.7,.2c.2,.1,.4,.3,.5,.5,.1,.2,.2,.5,.3,.7,0,.3,.1,.7,.1,1.2s0,1.1-.2,1.4c-.1,.4-.3,.6-.5,.8-.2,.2-.5,.3-.9,.3s-.9-.2-1.1-.5c-.3-.4-.5-1.1-.5-2Zm.6,0c0,.8,0,1.4,.3,1.6,.2,.3,.4,.4,.7,.4s.5-.1,.7-.4c.2-.3,.3-.8,.3-1.6s0-1.4-.3-1.6c-.2-.3-.4-.4-.7-.4s-.5,.1-.7,.4c-.2,.3-.3,.9-.3,1.7Z"/></g><g><path d="M224.8,115.6v-.6c-.3,0-.6-.1-.8-.2-.2,0-.4-.3-.5-.5s-.2-.5-.2-.8h.6c0,.2,.1,.5,.3,.6,.2,.2,.4,.3,.6,.4v-2c-.3,0-.5-.1-.8-.3-.2-.1-.3-.3-.5-.5s-.2-.4-.2-.7c0-.4,.2-.8,.5-1.1,.2-.2,.5-.3,.9-.3v-.3h.4v.3c.4,0,.6,.1,.9,.3,.3,.2,.4,.5,.5,.9h-.6c0-.1-.1-.3-.2-.5-.1-.1-.3-.2-.5-.3v1.8c.3,0,.5,.1,.6,.2,.2,0,.3,.2,.5,.3s.2,.3,.3,.4,0,.3,0,.5c0,.4-.1,.8-.4,1.1s-.6,.4-1.1,.5v.6h-.4Zm0-5.4c-.2,0-.4,.1-.6,.3-.1,.2-.2,.3-.2,.6s0,.4,.2,.5c.1,.1,.3,.3,.6,.3v-1.7Zm.4,4.3c.2,0,.4-.1,.6-.3,.2-.2,.2-.4,.2-.7s0-.4-.2-.5c-.1-.1-.3-.3-.7-.4v1.9Z"/><path d="M229.5,114.9h-.6v-3.9c-.1,.1-.3,.3-.6,.4-.2,.1-.5,.2-.6,.3v-.6c.3-.2,.6-.4,.9-.6s.4-.5,.5-.7h.4v5Z"/><path d="M232,112.2c-.3,0-.4-.2-.6-.4s-.2-.4-.2-.6c0-.4,.1-.7,.4-.9s.6-.4,1-.4,.8,.1,1.1,.4c.3,.3,.4,.6,.4,.9s0,.4-.2,.6c-.1,.2-.3,.3-.6,.4,.3,.1,.5,.3,.7,.5s.2,.5,.2,.8-.2,.8-.5,1.1-.7,.4-1.2,.4-.9-.1-1.2-.4c-.3-.3-.5-.7-.5-1.1s0-.6,.2-.8c.2-.2,.4-.4,.7-.4Zm-.3,1.3c0,.2,0,.3,.1,.5,0,.2,.2,.3,.4,.4,.2,0,.3,.1,.5,.1,.3,0,.5,0,.7-.3s.3-.4,.3-.7,0-.5-.3-.7c-.2-.2-.4-.3-.7-.3s-.5,0-.7,.3c-.2,.2-.3,.4-.3,.7Zm.2-2.3c0,.2,0,.4,.2,.6s.4,.2,.6,.2,.4,0,.6-.2c.2-.1,.2-.3,.2-.5s0-.4-.2-.6c-.2-.2-.4-.2-.6-.2s-.4,0-.6,.2-.2,.3-.2,.5Z"/><path d="M235.3,114.9v-.7h.7v.7c0,.3,0,.5-.1,.6,0,.2-.2,.3-.4,.4l-.2-.3c.1,0,.2-.1,.3-.3,0-.1,0-.3,.1-.5h-.3Z"/><path d="M240.2,114.3v.6h-3.3c0-.1,0-.3,0-.4,0-.2,.2-.4,.4-.7,.2-.2,.5-.5,.8-.8,.5-.4,.9-.8,1.1-1.1,.2-.3,.3-.5,.3-.7s0-.4-.3-.6-.4-.3-.7-.3-.5,0-.7,.3-.3,.4-.3,.7h-.6c0-.5,.2-.9,.5-1.1,.3-.2,.7-.4,1.1-.4s.9,.1,1.1,.4,.4,.6,.4,1,0,.4-.1,.6-.2,.4-.4,.6c-.2,.2-.5,.5-.9,.9-.4,.3-.6,.5-.7,.6-.1,.1-.2,.2-.3,.3h2.5Z"/><path d="M240.8,112.4c0-.6,0-1.1,.2-1.4,.1-.4,.3-.6,.5-.8,.2-.2,.5-.3,.9-.3s.5,0,.7,.2c.2,.1,.4,.3,.5,.5,.1,.2,.2,.5,.3,.7,0,.3,.1,.7,.1,1.2s0,1.1-.2,1.4c-.1,.4-.3,.6-.5,.8-.2,.2-.5,.3-.9,.3s-.9-.2-1.1-.5c-.3-.4-.5-1.1-.5-2Zm.6,0c0,.8,0,1.4,.3,1.6,.2,.3,.4,.4,.7,.4s.5-.1,.7-.4c.2-.3,.3-.8,.3-1.6s0-1.4-.3-1.6c-.2-.3-.4-.4-.7-.4s-.5,.1-.7,.4c-.2,.3-.3,.9-.3,1.7Z"/><path d="M244.7,112.4c0-.6,0-1.1,.2-1.4,.1-.4,.3-.6,.5-.8,.2-.2,.5-.3,.9-.3s.5,0,.7,.2c.2,.1,.4,.3,.5,.5,.1,.2,.2,.5,.3,.7,0,.3,.1,.7,.1,1.2s0,1.1-.2,1.4c-.1,.4-.3,.6-.5,.8-.2,.2-.5,.3-.9,.3s-.9-.2-1.1-.5c-.3-.4-.5-1.1-.5-2Zm.6,0c0,.8,0,1.4,.3,1.6,.2,.3,.4,.4,.7,.4s.5-.1,.7-.4c.2-.3,.3-.8,.3-1.6s0-1.4-.3-1.6c-.2-.3-.4-.4-.7-.4s-.5,.1-.7,.4c-.2,.3-.3,.9-.3,1.7Z"/></g><g><path d="M278.2,169.8v-.6c-.3,0-.6-.1-.8-.2s-.4-.3-.5-.5c-.1-.2-.2-.5-.2-.8h.6c0,.2,.1,.5,.3,.6,.2,.2,.4,.3,.6,.4v-2c-.3,0-.5-.1-.8-.3-.2-.1-.3-.3-.5-.5-.1-.2-.2-.4-.2-.7,0-.4,.2-.8,.5-1.1,.2-.2,.5-.3,.9-.3v-.3h.4v.3c.4,0,.6,.1,.9,.3,.3,.2,.4,.5,.5,.9h-.6c0-.1-.1-.3-.2-.5-.1-.1-.3-.2-.5-.3v1.8c.3,0,.5,.1,.6,.2,.2,0,.3,.2,.5,.3,.1,.1,.2,.3,.3,.4,0,.2,0,.3,0,.5,0,.4-.1,.8-.4,1.1s-.6,.4-1.1,.5v.6h-.4Zm0-5.4c-.2,0-.4,.1-.6,.3s-.2,.3-.2,.6,0,.4,.2,.5,.3,.3,.6,.3v-1.7Zm.4,4.3c.2,0,.4-.1,.6-.3s.2-.4,.2-.7,0-.4-.2-.5c-.1-.1-.3-.3-.7-.4v1.9Z"/><path d="M280.7,167.7h.6c0,.3,.2,.5,.4,.7s.4,.2,.6,.2,.5-.1,.7-.3,.3-.4,.3-.7,0-.5-.3-.7c-.2-.2-.4-.3-.7-.3s-.3,0-.4,0v-.5c.1,0,.1,0,.2,0,.3,0,.5,0,.7-.2,.2-.1,.3-.3,.3-.6s0-.4-.2-.6-.3-.2-.6-.2-.4,0-.6,.2-.3,.4-.3,.7h-.6c0-.5,.2-.8,.5-1.1,.3-.2,.6-.3,1-.3s.5,0,.8,.2c.2,.1,.4,.3,.5,.5s.2,.4,.2,.6,0,.4-.2,.6-.3,.3-.5,.4c.3,0,.5,.2,.7,.4s.2,.5,.2,.8-.2,.8-.5,1.1-.7,.5-1.2,.5-.8-.1-1.1-.4c-.3-.3-.5-.6-.5-1Z"/><path d="M284.9,169v-.7h.7v.7c0,.3,0,.5-.1,.6,0,.2-.2,.3-.4,.4l-.2-.3c.1,0,.2-.1,.3-.3,0-.1,0-.3,.1-.5h-.3Z"/><path d="M286.5,167.7h.6c0,.3,.2,.5,.4,.7s.4,.2,.6,.2,.5-.1,.7-.3,.3-.4,.3-.7,0-.5-.3-.7c-.2-.2-.4-.3-.7-.3s-.3,0-.4,0v-.5c.1,0,.1,0,.2,0,.3,0,.5,0,.7-.2,.2-.1,.3-.3,.3-.6s0-.4-.2-.6-.3-.2-.6-.2-.4,0-.6,.2-.3,.4-.3,.7h-.6c0-.5,.2-.8,.5-1.1,.3-.2,.6-.3,1-.3s.5,0,.8,.2c.2,.1,.4,.3,.5,.5s.2,.4,.2,.6,0,.4-.2,.6-.3,.3-.5,.4c.3,0,.5,.2,.7,.4s.2,.5,.2,.8-.2,.8-.5,1.1-.7,.5-1.2,.5-.8-.1-1.1-.4c-.3-.3-.5-.6-.5-1Z"/><path d="M290.4,166.6c0-.6,0-1.1,.2-1.4,.1-.4,.3-.6,.5-.8s.5-.3,.9-.3,.5,0,.7,.2c.2,.1,.4,.3,.5,.5,.1,.2,.2,.5,.3,.7,0,.3,.1,.7,.1,1.2s0,1.1-.2,1.4c-.1,.4-.3,.6-.5,.8-.2,.2-.5,.3-.9,.3s-.9-.2-1.1-.5c-.3-.4-.5-1.1-.5-2Zm.6,0c0,.8,0,1.4,.3,1.6,.2,.3,.4,.4,.7,.4s.5-.1,.7-.4,.3-.8,.3-1.6,0-1.4-.3-1.6-.4-.4-.7-.4-.5,.1-.7,.4c-.2,.3-.3,.9-.3,1.7Z"/><path d="M294.3,166.6c0-.6,0-1.1,.2-1.4,.1-.4,.3-.6,.5-.8s.5-.3,.9-.3,.5,0,.7,.2c.2,.1,.4,.3,.5,.5,.1,.2,.2,.5,.3,.7,0,.3,.1,.7,.1,1.2s0,1.1-.2,1.4c-.1,.4-.3,.6-.5,.8-.2,.2-.5,.3-.9,.3s-.9-.2-1.1-.5c-.3-.4-.5-1.1-.5-2Zm.6,0c0,.8,0,1.4,.3,1.6,.2,.3,.4,.4,.7,.4s.5-.1,.7-.4,.3-.8,.3-1.6,0-1.4-.3-1.6-.4-.4-.7-.4-.5,.1-.7,.4c-.2,.3-.3,.9-.3,1.7Z"/></g><g><path d="M304,162.9v-.6c-.3,0-.6-.1-.8-.2s-.4-.3-.5-.5c-.1-.2-.2-.5-.2-.8h.6c0,.2,.1,.5,.3,.6,.2,.2,.4,.3,.6,.4v-2c-.3,0-.5-.1-.8-.3-.2-.1-.3-.3-.5-.5-.1-.2-.2-.4-.2-.7,0-.4,.2-.8,.5-1.1,.2-.2,.5-.3,.9-.3v-.3h.4v.3c.4,0,.6,.1,.9,.3,.3,.2,.4,.5,.5,.9h-.6c0-.1-.1-.3-.2-.5-.1-.1-.3-.2-.5-.3v1.8c.3,0,.5,.1,.6,.2,.2,0,.3,.2,.5,.3,.1,.1,.2,.3,.3,.4,0,.2,0,.3,0,.5,0,.4-.1,.8-.4,1.1s-.6,.4-1.1,.5v.6h-.4Zm0-5.4c-.2,0-.4,.1-.6,.3s-.2,.3-.2,.6,0,.4,.2,.5,.3,.3,.6,.3v-1.7Zm.4,4.3c.2,0,.4-.1,.6-.3s.2-.4,.2-.7,0-.4-.2-.5c-.1-.1-.3-.3-.7-.4v1.9Z"/><path d="M306.4,160.8h.6c0,.3,.2,.5,.4,.7s.4,.2,.6,.2,.5-.1,.7-.3,.3-.4,.3-.7,0-.5-.3-.7c-.2-.2-.4-.3-.7-.3s-.3,0-.4,0v-.5c.1,0,.1,0,.2,0,.3,0,.5,0,.7-.2,.2-.1,.3-.3,.3-.6s0-.4-.2-.6-.3-.2-.6-.2-.4,0-.6,.2-.3,.4-.3,.7h-.6c0-.5,.2-.8,.5-1.1,.3-.2,.6-.3,1-.3s.5,0,.8,.2c.2,.1,.4,.3,.5,.5s.2,.4,.2,.6,0,.4-.2,.6-.3,.3-.5,.4c.3,0,.5,.2,.7,.4s.2,.5,.2,.8-.2,.8-.5,1.1-.7,.5-1.2,.5-.8-.1-1.1-.4c-.3-.3-.5-.6-.5-1Z"/><path d="M310.6,162.2v-.7h.7v.7c0,.3,0,.5-.1,.6,0,.2-.2,.3-.4,.4l-.2-.3c.1,0,.2-.1,.3-.3,0-.1,0-.3,.1-.5h-.3Z"/><path d="M312.3,161h.6c0,.2,.1,.4,.3,.6,.1,.1,.3,.2,.5,.2s.4,0,.5-.1,.3-.2,.4-.3c0-.1,.2-.3,.2-.6s0-.5,0-.8,0,0,0-.1c-.1,.2-.3,.4-.5,.5-.2,.1-.4,.2-.7,.2-.4,0-.8-.2-1.1-.5s-.4-.7-.4-1.2,.2-.9,.5-1.2,.7-.5,1.1-.5,.6,0,.9,.3c.3,.2,.5,.4,.6,.8,.1,.3,.2,.8,.2,1.4s0,1.2-.2,1.5-.3,.7-.6,.9-.6,.3-1,.3-.7-.1-1-.3c-.2-.2-.4-.5-.4-.9Zm2.5-2.2c0-.4,0-.6-.3-.8-.2-.2-.4-.3-.7-.3s-.5,.1-.7,.3c-.2,.2-.3,.5-.3,.9s0,.6,.3,.8c.2,.2,.4,.3,.7,.3s.5,0,.7-.3c.2-.2,.3-.5,.3-.8Z"/><path d="M316.1,159.7c0-.6,0-1.1,.2-1.4,.1-.4,.3-.6,.5-.8s.5-.3,.9-.3,.5,0,.7,.2c.2,.1,.4,.3,.5,.5,.1,.2,.2,.5,.3,.7,0,.3,.1,.7,.1,1.2s0,1.1-.2,1.4c-.1,.4-.3,.6-.5,.8-.2,.2-.5,.3-.9,.3s-.9-.2-1.1-.5c-.3-.4-.5-1.1-.5-2Zm.6,0c0,.8,0,1.4,.3,1.6,.2,.3,.4,.4,.7,.4s.5-.1,.7-.4,.3-.8,.3-1.6,0-1.4-.3-1.6-.4-.4-.7-.4-.5,.1-.7,.4c-.2,.3-.3,.9-.3,1.7Z"/><path d="M320,159.7c0-.6,0-1.1,.2-1.4,.1-.4,.3-.6,.5-.8s.5-.3,.9-.3,.5,0,.7,.2c.2,.1,.4,.3,.5,.5,.1,.2,.2,.5,.3,.7,0,.3,.1,.7,.1,1.2s0,1.1-.2,1.4c-.1,.4-.3,.6-.5,.8-.2,.2-.5,.3-.9,.3s-.9-.2-1.1-.5c-.3-.4-.5-1.1-.5-2Zm.6,0c0,.8,0,1.4,.3,1.6,.2,.3,.4,.4,.7,.4s.5-.1,.7-.4,.3-.8,.3-1.6,0-1.4-.3-1.6-.4-.4-.7-.4-.5,.1-.7,.4c-.2,.3-.3,.9-.3,1.7Z"/></g><g><path d="M353.5,127.7v-.6c-.3,0-.6-.1-.8-.2s-.4-.3-.5-.5c-.1-.2-.2-.5-.2-.8h.6c0,.2,.1,.5,.3,.6,.2,.2,.4,.3,.6,.4v-2c-.3,0-.5-.1-.8-.3-.2-.1-.3-.3-.5-.5-.1-.2-.2-.4-.2-.7,0-.4,.2-.8,.5-1.1,.2-.2,.5-.3,.9-.3v-.3h.4v.3c.4,0,.6,.1,.9,.3,.3,.2,.4,.5,.5,.9h-.6c0-.1-.1-.3-.2-.5-.1-.1-.3-.2-.5-.3v1.8c.3,0,.5,.1,.6,.2,.2,0,.3,.2,.5,.3,.1,.1,.2,.3,.3,.4,0,.2,0,.3,0,.5,0,.4-.1,.8-.4,1.1s-.6,.4-1.1,.5v.6h-.4Zm0-5.4c-.2,0-.4,.1-.6,.3s-.2,.3-.2,.6,0,.4,.2,.5,.3,.3,.6,.3v-1.7Zm.4,4.3c.2,0,.4-.1,.6-.3s.2-.4,.2-.7,0-.4-.2-.5c-.1-.1-.3-.3-.7-.4v1.9Z"/><path d="M358.3,126.9h-.6v-3.9c-.1,.1-.3,.3-.6,.4s-.5,.2-.6,.3v-.6c.3-.2,.6-.4,.9-.6,.3-.2,.4-.5,.5-.7h.4v5Z"/><path d="M363,123.2h-.6c0-.2-.1-.4-.2-.5-.2-.2-.4-.3-.6-.3s-.4,0-.5,.2c-.2,.1-.3,.3-.5,.6-.1,.3-.2,.7-.2,1.2,.1-.2,.3-.4,.5-.5,.2-.1,.4-.2,.7-.2,.4,0,.8,.2,1,.5,.3,.3,.4,.7,.4,1.2s0,.6-.2,.9-.3,.5-.6,.6-.5,.2-.8,.2c-.5,0-.9-.2-1.3-.6-.3-.4-.5-1-.5-1.9s.2-1.7,.5-2.1c.3-.4,.7-.6,1.3-.6s.7,.1,1,.3,.4,.5,.5,.9Zm-2.5,2.2c0,.2,0,.4,.1,.6s.2,.3,.4,.4c.2,.1,.3,.2,.5,.2,.3,0,.5-.1,.7-.3,.2-.2,.3-.5,.3-.9s0-.6-.3-.8c-.2-.2-.4-.3-.7-.3s-.5,0-.7,.3c-.2,.2-.3,.5-.3,.8Z"/><path d="M364.1,126.9v-.7h.7v.7c0,.3,0,.5-.1,.6,0,.2-.2,.3-.4,.4l-.2-.3c.1,0,.2-.1,.3-.3,0-.1,0-.3,.1-.5h-.3Z"/><path d="M365.7,125.6h.6c0,.3,.2,.5,.3,.7,.2,.2,.4,.2,.6,.2s.5-.1,.8-.3,.3-.5,.3-.9,0-.6-.3-.8-.5-.3-.8-.3-.4,0-.5,.1c-.2,0-.3,.2-.4,.4h-.6l.5-2.6h2.5v.6h-2l-.3,1.3c.3-.2,.6-.3,.9-.3s.8,.2,1.1,.5,.5,.7,.5,1.2-.1,.8-.4,1.2c-.3,.4-.8,.6-1.3,.6s-.8-.1-1.1-.4-.5-.6-.5-1Z"/><path d="M369.6,124.5c0-.6,0-1.1,.2-1.4,.1-.4,.3-.6,.5-.8s.5-.3,.9-.3,.5,0,.7,.2c.2,.1,.4,.3,.5,.5,.1,.2,.2,.5,.3,.7,0,.3,.1,.7,.1,1.2s0,1.1-.2,1.4c-.1,.4-.3,.6-.5,.8-.2,.2-.5,.3-.9,.3s-.9-.2-1.1-.5c-.3-.4-.5-1.1-.5-2Zm.6,0c0,.8,0,1.4,.3,1.6,.2,.3,.4,.4,.7,.4s.5-.1,.7-.4,.3-.8,.3-1.6,0-1.4-.3-1.6-.4-.4-.7-.4-.5,.1-.7,.4c-.2,.3-.3,.9-.3,1.7Z"/><path d="M373.5,124.5c0-.6,0-1.1,.2-1.4,.1-.4,.3-.6,.5-.8s.5-.3,.9-.3,.5,0,.7,.2c.2,.1,.4,.3,.5,.5,.1,.2,.2,.5,.3,.7,0,.3,.1,.7,.1,1.2s0,1.1-.2,1.4c-.1,.4-.3,.6-.5,.8-.2,.2-.5,.3-.9,.3s-.9-.2-1.1-.5c-.3-.4-.5-1.1-.5-2Zm.6,0c0,.8,0,1.4,.3,1.6,.2,.3,.4,.4,.7,.4s.5-.1,.7-.4,.3-.8,.3-1.6,0-1.4-.3-1.6-.4-.4-.7-.4-.5,.1-.7,.4c-.2,.3-.3,.9-.3,1.7Z"/></g><g><path d="M379.3,121v-.6c-.3,0-.6-.1-.8-.2s-.4-.3-.5-.5c-.1-.2-.2-.5-.2-.8h.6c0,.2,.1,.5,.3,.6,.2,.2,.4,.3,.6,.4v-2c-.3,0-.5-.1-.8-.3-.2-.1-.3-.3-.5-.5-.1-.2-.2-.4-.2-.7,0-.4,.2-.8,.5-1.1,.2-.2,.5-.3,.9-.3v-.3h.4v.3c.4,0,.6,.1,.9,.3,.3,.2,.4,.5,.5,.9h-.6c0-.1-.1-.3-.2-.5-.1-.1-.3-.2-.5-.3v1.8c.3,0,.5,.1,.6,.2,.2,0,.3,.2,.5,.3,.1,.1,.2,.3,.3,.4,0,.2,0,.3,0,.5,0,.4-.1,.8-.4,1.1s-.6,.4-1.1,.5v.6h-.4Zm0-5.4c-.2,0-.4,.1-.6,.3s-.2,.3-.2,.6,0,.4,.2,.5,.3,.3,.6,.3v-1.7Zm.4,4.3c.2,0,.4-.1,.6-.3s.2-.4,.2-.7,0-.4-.2-.5c-.1-.1-.3-.3-.7-.4v1.9Z"/><path d="M384,120.3h-.6v-3.9c-.1,.1-.3,.3-.6,.4s-.5,.2-.6,.3v-.6c.3-.2,.6-.4,.9-.6,.3-.2,.4-.5,.5-.7h.4v5Z"/><path d="M386.6,117.6c-.3,0-.4-.2-.6-.4s-.2-.4-.2-.6c0-.4,.1-.7,.4-.9,.3-.2,.6-.4,1-.4s.8,.1,1.1,.4c.3,.3,.4,.6,.4,.9s0,.4-.2,.6c-.1,.2-.3,.3-.6,.4,.3,.1,.5,.3,.7,.5,.2,.2,.2,.5,.2,.8s-.2,.8-.5,1.1-.7,.4-1.2,.4-.9-.1-1.2-.4c-.3-.3-.5-.7-.5-1.1s0-.6,.2-.8c.2-.2,.4-.4,.7-.4Zm-.3,1.3c0,.2,0,.3,.1,.5s.2,.3,.4,.4c.2,0,.3,.1,.5,.1,.3,0,.5,0,.7-.3s.3-.4,.3-.7,0-.5-.3-.7-.4-.3-.7-.3-.5,0-.7,.3-.3,.4-.3,.7Zm.2-2.3c0,.2,0,.4,.2,.6,.2,.2,.4,.2,.6,.2s.4,0,.6-.2c.2-.1,.2-.3,.2-.5s0-.4-.2-.6-.4-.2-.6-.2-.4,0-.6,.2-.2,.3-.2,.5Z"/><path d="M389.8,120.3v-.7h.7v.7c0,.3,0,.5-.1,.6,0,.2-.2,.3-.4,.4l-.2-.3c.1,0,.2-.1,.3-.3,0-.1,0-.3,.1-.5h-.3Z"/><path d="M391.4,117.8c0-.6,0-1.1,.2-1.4,.1-.4,.3-.6,.5-.8s.5-.3,.9-.3,.5,0,.7,.2c.2,.1,.4,.3,.5,.5,.1,.2,.2,.5,.3,.7,0,.3,.1,.7,.1,1.2s0,1.1-.2,1.4c-.1,.4-.3,.6-.5,.8-.2,.2-.5,.3-.9,.3s-.9-.2-1.1-.5c-.3-.4-.5-1.1-.5-2Zm.6,0c0,.8,0,1.4,.3,1.6,.2,.3,.4,.4,.7,.4s.5-.1,.7-.4,.3-.8,.3-1.6,0-1.4-.3-1.6-.4-.4-.7-.4-.5,.1-.7,.4c-.2,.3-.3,.9-.3,1.7Z"/><path d="M395.3,117.8c0-.6,0-1.1,.2-1.4,.1-.4,.3-.6,.5-.8s.5-.3,.9-.3,.5,0,.7,.2c.2,.1,.4,.3,.5,.5,.1,.2,.2,.5,.3,.7,0,.3,.1,.7,.1,1.2s0,1.1-.2,1.4c-.1,.4-.3,.6-.5,.8-.2,.2-.5,.3-.9,.3s-.9-.2-1.1-.5c-.3-.4-.5-1.1-.5-2Zm.6,0c0,.8,0,1.4,.3,1.6,.2,.3,.4,.4,.7,.4s.5-.1,.7-.4,.3-.8,.3-1.6,0-1.4-.3-1.6-.4-.4-.7-.4-.5,.1-.7,.4c-.2,.3-.3,.9-.3,1.7Z"/><path d="M399.2,117.8c0-.6,0-1.1,.2-1.4,.1-.4,.3-.6,.5-.8s.5-.3,.9-.3,.5,0,.7,.2c.2,.1,.4,.3,.5,.5,.1,.2,.2,.5,.3,.7,0,.3,.1,.7,.1,1.2s0,1.1-.2,1.4c-.1,.4-.3,.6-.5,.8-.2,.2-.5,.3-.9,.3s-.9-.2-1.1-.5c-.3-.4-.5-1.1-.5-2Zm.6,0c0,.8,0,1.4,.3,1.6,.2,.3,.4,.4,.7,.4s.5-.1,.7-.4,.3-.8,.3-1.6,0-1.4-.3-1.6-.4-.4-.7-.4-.5,.1-.7,.4c-.2,.3-.3,.9-.3,1.7Z"/></g><g><path d="M430.8,126v-.6c-.3,0-.6-.1-.8-.2s-.4-.3-.5-.5c-.1-.2-.2-.5-.2-.8h.6c0,.2,.1,.5,.3,.6,.2,.2,.4,.3,.6,.4v-2c-.3,0-.5-.1-.8-.3-.2-.1-.3-.3-.5-.5-.1-.2-.2-.4-.2-.7,0-.4,.2-.8,.5-1.1,.2-.2,.5-.3,.9-.3v-.3h.4v.3c.4,0,.6,.1,.9,.3,.3,.2,.4,.5,.5,.9h-.6c0-.1-.1-.3-.2-.5-.1-.1-.3-.2-.5-.3v1.8c.3,0,.5,.1,.6,.2,.2,0,.3,.2,.5,.3,.1,.1,.2,.3,.3,.4,0,.2,0,.3,0,.5,0,.4-.1,.8-.4,1.1s-.6,.4-1.1,.5v.6h-.4Zm0-5.4c-.2,0-.4,.1-.6,.3s-.2,.3-.2,.6,0,.4,.2,.5,.3,.3,.6,.3v-1.7Zm.4,4.3c.2,0,.4-.1,.6-.3s.2-.4,.2-.7,0-.4-.2-.5c-.1-.1-.3-.3-.7-.4v1.9Z"/><path d="M435.5,125.3h-.6v-3.9c-.1,.1-.3,.3-.6,.4s-.5,.2-.6,.3v-.6c.3-.2,.6-.4,.9-.6,.3-.2,.4-.5,.5-.7h.4v5Z"/><path d="M440.3,121.5h-.6c0-.2-.1-.4-.2-.5-.2-.2-.4-.3-.6-.3s-.4,0-.5,.2c-.2,.1-.3,.3-.5,.6-.1,.3-.2,.7-.2,1.2,.1-.2,.3-.4,.5-.5,.2-.1,.4-.2,.7-.2,.4,0,.8,.2,1,.5,.3,.3,.4,.7,.4,1.2s0,.6-.2,.9-.3,.5-.6,.6-.5,.2-.8,.2c-.5,0-.9-.2-1.3-.6-.3-.4-.5-1-.5-1.9s.2-1.7,.5-2.1c.3-.4,.7-.6,1.3-.6s.7,.1,1,.3,.4,.5,.5,.9Zm-2.5,2.2c0,.2,0,.4,.1,.6s.2,.3,.4,.4c.2,.1,.3,.2,.5,.2,.3,0,.5-.1,.7-.3,.2-.2,.3-.5,.3-.9s0-.6-.3-.8c-.2-.2-.4-.3-.7-.3s-.5,0-.7,.3c-.2,.2-.3,.5-.3,.8Z"/><path d="M441.3,125.3v-.7h.7v.7c0,.3,0,.5-.1,.6,0,.2-.2,.3-.4,.4l-.2-.3c.1,0,.2-.1,.3-.3,0-.1,0-.3,.1-.5h-.3Z"/><path d="M446.1,121.5h-.6c0-.2-.1-.4-.2-.5-.2-.2-.4-.3-.6-.3s-.4,0-.5,.2c-.2,.1-.3,.3-.5,.6-.1,.3-.2,.7-.2,1.2,.1-.2,.3-.4,.5-.5,.2-.1,.4-.2,.7-.2,.4,0,.8,.2,1,.5,.3,.3,.4,.7,.4,1.2s0,.6-.2,.9-.3,.5-.6,.6-.5,.2-.8,.2c-.5,0-.9-.2-1.3-.6-.3-.4-.5-1-.5-1.9s.2-1.7,.5-2.1c.3-.4,.7-.6,1.3-.6s.7,.1,1,.3,.4,.5,.5,.9Zm-2.5,2.2c0,.2,0,.4,.1,.6s.2,.3,.4,.4c.2,.1,.3,.2,.5,.2,.3,0,.5-.1,.7-.3,.2-.2,.3-.5,.3-.9s0-.6-.3-.8c-.2-.2-.4-.3-.7-.3s-.5,0-.7,.3c-.2,.2-.3,.5-.3,.8Z"/><path d="M446.8,122.9c0-.6,0-1.1,.2-1.4,.1-.4,.3-.6,.5-.8s.5-.3,.9-.3,.5,0,.7,.2c.2,.1,.4,.3,.5,.5,.1,.2,.2,.5,.3,.7,0,.3,.1,.7,.1,1.2s0,1.1-.2,1.4c-.1,.4-.3,.6-.5,.8-.2,.2-.5,.3-.9,.3s-.9-.2-1.1-.5c-.3-.4-.5-1.1-.5-2Zm.6,0c0,.8,0,1.4,.3,1.6,.2,.3,.4,.4,.7,.4s.5-.1,.7-.4,.3-.8,.3-1.6,0-1.4-.3-1.6-.4-.4-.7-.4-.5,.1-.7,.4c-.2,.3-.3,.9-.3,1.7Z"/><path d="M450.7,122.9c0-.6,0-1.1,.2-1.4,.1-.4,.3-.6,.5-.8s.5-.3,.9-.3,.5,0,.7,.2c.2,.1,.4,.3,.5,.5,.1,.2,.2,.5,.3,.7,0,.3,.1,.7,.1,1.2s0,1.1-.2,1.4c-.1,.4-.3,.6-.5,.8-.2,.2-.5,.3-.9,.3s-.9-.2-1.1-.5c-.3-.4-.5-1.1-.5-2Zm.6,0c0,.8,0,1.4,.3,1.6,.2,.3,.4,.4,.7,.4s.5-.1,.7-.4,.3-.8,.3-1.6,0-1.4-.3-1.6-.4-.4-.7-.4-.5,.1-.7,.4c-.2,.3-.3,.9-.3,1.7Z"/></g><g><path d="M456.5,133v-.6c-.3,0-.6-.1-.8-.2s-.4-.3-.5-.5c-.1-.2-.2-.5-.2-.8h.6c0,.2,.1,.5,.3,.6,.2,.2,.4,.3,.6,.4v-2c-.3,0-.5-.1-.8-.3-.2-.1-.3-.3-.5-.5-.1-.2-.2-.4-.2-.7,0-.4,.2-.8,.5-1.1,.2-.2,.5-.3,.9-.3v-.3h.4v.3c.4,0,.6,.1,.9,.3,.3,.2,.4,.5,.5,.9h-.6c0-.1-.1-.3-.2-.5-.1-.1-.3-.2-.5-.3v1.8c.3,0,.5,.1,.6,.2,.2,0,.3,.2,.5,.3,.1,.1,.2,.3,.3,.4,0,.2,0,.3,0,.5,0,.4-.1,.8-.4,1.1s-.6,.4-1.1,.5v.6h-.4Zm0-5.4c-.2,0-.4,.1-.6,.3s-.2,.3-.2,.6,0,.4,.2,.5,.3,.3,.6,.3v-1.7Zm.4,4.3c.2,0,.4-.1,.6-.3s.2-.4,.2-.7,0-.4-.2-.5c-.1-.1-.3-.3-.7-.4v1.9Z"/><path d="M461.3,132.2h-.6v-3.9c-.1,.1-.3,.3-.6,.4s-.5,.2-.6,.3v-.6c.3-.2,.6-.4,.9-.6,.3-.2,.4-.5,.5-.7h.4v5Z"/><path d="M462.9,130.9h.6c0,.3,.2,.5,.3,.7,.2,.2,.4,.2,.6,.2s.5-.1,.8-.3,.3-.5,.3-.9,0-.6-.3-.8-.5-.3-.8-.3-.4,0-.5,.1c-.2,0-.3,.2-.4,.4h-.6l.5-2.6h2.5v.6h-2l-.3,1.3c.3-.2,.6-.3,.9-.3s.8,.2,1.1,.5,.5,.7,.5,1.2-.1,.8-.4,1.2c-.3,.4-.8,.6-1.3,.6s-.8-.1-1.1-.4-.5-.6-.5-1Z"/><path d="M467.1,132.2v-.7h.7v.7c0,.3,0,.5-.1,.6,0,.2-.2,.3-.4,.4l-.2-.3c.1,0,.2-.1,.3-.3,0-.1,0-.3,.1-.5h-.3Z"/><path d="M469.7,129.5c-.3,0-.4-.2-.6-.4s-.2-.4-.2-.6c0-.4,.1-.7,.4-.9,.3-.2,.6-.4,1-.4s.8,.1,1.1,.4c.3,.3,.4,.6,.4,.9s0,.4-.2,.6c-.1,.2-.3,.3-.6,.4,.3,.1,.5,.3,.7,.5,.2,.2,.2,.5,.2,.8s-.2,.8-.5,1.1-.7,.4-1.2,.4-.9-.1-1.2-.4c-.3-.3-.5-.7-.5-1.1s0-.6,.2-.8c.2-.2,.4-.4,.7-.4Zm-.3,1.3c0,.2,0,.3,.1,.5s.2,.3,.4,.4c.2,0,.3,.1,.5,.1,.3,0,.5,0,.7-.3s.3-.4,.3-.7,0-.5-.3-.7-.4-.3-.7-.3-.5,0-.7,.3-.3,.4-.3,.7Zm.2-2.3c0,.2,0,.4,.2,.6,.2,.2,.4,.2,.6,.2s.4,0,.6-.2c.2-.1,.2-.3,.2-.5s0-.4-.2-.6-.4-.2-.6-.2-.4,0-.6,.2-.2,.3-.2,.5Z"/><path d="M472.6,129.8c0-.6,0-1.1,.2-1.4,.1-.4,.3-.6,.5-.8s.5-.3,.9-.3,.5,0,.7,.2c.2,.1,.4,.3,.5,.5,.1,.2,.2,.5,.3,.7,0,.3,.1,.7,.1,1.2s0,1.1-.2,1.4c-.1,.4-.3,.6-.5,.8-.2,.2-.5,.3-.9,.3s-.9-.2-1.1-.5c-.3-.4-.5-1.1-.5-2Zm.6,0c0,.8,0,1.4,.3,1.6,.2,.3,.4,.4,.7,.4s.5-.1,.7-.4,.3-.8,.3-1.6,0-1.4-.3-1.6-.4-.4-.7-.4-.5,.1-.7,.4c-.2,.3-.3,.9-.3,1.7Z"/><path d="M476.5,129.8c0-.6,0-1.1,.2-1.4,.1-.4,.3-.6,.5-.8s.5-.3,.9-.3,.5,0,.7,.2c.2,.1,.4,.3,.5,.5,.1,.2,.2,.5,.3,.7,0,.3,.1,.7,.1,1.2s0,1.1-.2,1.4c-.1,.4-.3,.6-.5,.8-.2,.2-.5,.3-.9,.3s-.9-.2-1.1-.5c-.3-.4-.5-1.1-.5-2Zm.6,0c0,.8,0,1.4,.3,1.6,.2,.3,.4,.4,.7,.4s.5-.1,.7-.4,.3-.8,.3-1.6,0-1.4-.3-1.6-.4-.4-.7-.4-.5,.1-.7,.4c-.2,.3-.3,.9-.3,1.7Z"/></g><rect class="h" x="42.5" y="169.7" width="25.8" height="25.6"/><rect class="f" x="68.2" y="167.2" width="25.8" height="28.1"/><rect class="h" x="119.8" y="100.2" width="25.8" height="95.1"/><rect class="f" x="145.6" y="82.4" width="25.8" height="112.9"/><rect class="h" x="197.1" y="141" width="25.8" height="54.2"/><rect class="f" x="222.9" y="140.6" width="25.8" height="54.7"/><rect class="h" x="274.5" y="185.5" width="25.8" height="9.8"/><rect class="f" x="300.3" y="183.7" width="25.8" height="11.6"/><rect class="h" x="351.8" y="145.9" width="25.8" height="49.4"/><rect class="f" x="377.6" y="141.4" width="25.8" height="53.9"/><rect class="h" x="429.2" y="145.5" width="25.8" height="49.8"/><rect class="f" x="454.9" y="148" width="25.8" height="47.3"/></svg>